<?xml version="1.0" encoding="UTF-8" standalone="no"?>
<svg
   xmlns:dc="http://purl.org/dc/elements/1.1/"
   xmlns:cc="http://creativecommons.org/ns#"
   xmlns:rdf="http://www.w3.org/1999/02/22-rdf-syntax-ns#"
   xmlns:svg="http://www.w3.org/2000/svg"
   xmlns="http://www.w3.org/2000/svg"
   height="500"
   width="500"
   version="1.1"
   viewBox="0 0 499.99999 499.99999"
   data-name="Capa 1"
   id="Capa_1">
  <metadata
     id="metadata3809">
    <rdf:RDF>
      <cc:Work
         rdf:about="">
        <dc:format>image/svg+xml</dc:format>
        <dc:type
           rdf:resource="http://purl.org/dc/dcmitype/StillImage" />
        <dc:title>avion</dc:title>
      </cc:Work>
    </rdf:RDF>
  </metadata>
  <defs
     id="defs3682">
    <style
       id="style3680">.cls-1{fill:#fff;}.cls-2,.cls-5{fill:#eaeff1;}.cls-3{fill:#010002;}.cls-4,.cls-6{fill:#dbe5ea;}.cls-4,.cls-5,.cls-7,.cls-8{opacity:0.63;}.cls-7{fill:#9cc1d8;}.cls-9{fill:#8ec4ea;}.cls-10{fill:#211915;}</style>
  </defs>
  <title
     id="title3684">avion</title>
  <g
     transform="matrix(0.9336443,0,0,0.93127684,-0.0652687,-59.376918)"
     id="g3871">
    <path
       class="cls-1"
       d="m 132.27,280.29 c -6.62,-3.88 -14,-5.26 -21.58,-5.2 -3,0 -6,2.91 -7.25,5.4 a 15.32,15.32 0 0 0 -0.66,10.41 c 2.19,7.22 7.66,12.76 15.38,12.79 0.5,0 1,0.09 1.5,0.16 1.14,0.15 2.24,0.43 3.36,0.67 0.39,0.15 0.79,0.31 1.17,0.48 a 31.73,31.73 0 0 1 3.15,1.65 c 6,3.53 13.57,-0.84 14.57,-7.43 1.2,-7.93 -2.96,-15 -9.64,-18.93 z"
       id="path3686"
       style="fill:#ffffff" />
    <path
       class="cls-2"
       d="m 146.69,305.36 c -1.12,-3.69 -3.12,-7.45 -6.29,-9.78 -2.42,-1.78 -6.17,-3.95 -9.29,-3 a 53.88,53.88 0 0 1 -10.65,2.09 c -1.25,0.11 -4,0.74 -5.19,0.21 h 1.26 q -0.94,0 -1.89,-0.12 c -0.94,-0.08 -1.88,-0.19 -2.82,-0.32 a 9.87,9.87 0 0 0 -8.7,3 18.88,18.88 0 0 0 -2.11,-0.82 l -0.28,-0.12 c -0.74,-0.32 -1.48,-0.61 -2.2,-1 -0.72,-0.39 -1.21,-0.62 -1.81,-0.95 v 0 c -0.75,-0.6 -1.66,-1.18 -2.46,-1.84 l -0.49,-0.58 c -0.62,-0.7 -1.19,-1.44 -1.75,-2.19 -3.73,-5 -12.65,-8.48 -17.44,-2.89 a 12.61,12.61 0 0 0 -0.85,1.11 c -4,-1.25 -8,-2 -12.18,-1 a 24.61,24.61 0 0 0 -7.28,3.02 c -0.24,0 -0.49,0.09 -0.72,0.15 a 14.74,14.74 0 0 0 -7.43,4.14 h -0.61 c -3,0 -6,2.94 -7.25,5.4 a 15.32,15.32 0 0 0 -0.66,10.42 c 2,6.63 6.72,11.73 13.39,12.65 l 0.1,0.07 c 2.75,1.88 5.81,3.48 9.29,3 a 8.77,8.77 0 0 0 2,-0.53 18.82,18.82 0 0 0 8.73,10.07 c 12.14,6.51 28.34,6.45 39.88,-1.4 a 11.28,11.28 0 0 0 5.29,-7.63 14.57,14.57 0 0 0 0.23,-3.28 59.78,59.78 0 0 0 22.25,-2.06 c 3.29,-1 5.65,-2.14 7.25,-5.4 a 15.32,15.32 0 0 0 0.68,-10.42 z"
       id="path3688"
       style="fill:#eaeff1" />
    <path
       class="cls-3"
       d="m 86.74,297.61 c -12,-0.36 -24.4,-1.71 -36.37,-1 -5.1,0.3 -12,2.79 -12,8.93 a 9.79,9.79 0 0 0 4.2,7.73 15.37,15.37 0 0 0 5.85,2.32 c 1.79,0.38 5.74,-0.22 6.65,1.42 0.31,0.55 -0.11,3.71 0.19,4.62 a 9.83,9.83 0 0 0 2.6,4.07 c 3.12,3 7.54,3.83 11.65,4.56 8.2,1.45 16.87,2.43 24.53,-1.58 3.26,-1.71 5.74,-4.21 8.31,-6.8 5.57,-5.61 12.09,-5.52 19.21,-7 5.75,-1.16 12.58,-3.69 15.76,-9 4.54,-7.6 -1.24,-16 -7.83,-19.9 -7.55,-4.51 -19.65,-9.27 -28.27,-5.35 -5.14,2.34 -10.05,9.69 -4.47,14.2 0.84,0.68 4.9,-1.66 4.33,-2.33 -8.37,-9.79 -23.83,-17.27 -36.68,-12.1 -4.28,1.72 -8.45,5.12 -8.1,10.19 0.49,7.12 7.84,8.64 13.37,6.36 1.81,-0.75 3.71,-3.28 0.52,-2 -5,2.06 -10,-2.73 -9.34,-7.75 1,-7.28 10.41,-6 15.28,-4.94 a 37.24,37.24 0 0 1 20.45,12.41 l 4.33,-2.33 c -2.09,-1.69 -2.44,-4.07 -1.67,-6.56 1.6,-5.14 8,-4 11.95,-2.92 5.52,1.5 11.6,3.56 16.24,7 4.49,3.31 8.22,9.21 6.58,15 -2.27,8 -12.31,7.7 -18.93,8.91 a 30,30 0 0 0 -11.29,4.2 c -5.72,3.79 -8.47,9.88 -16.1,10.84 -7.88,1 -33.23,-1.45 -27.57,-14.73 0.13,-0.31 -0.3,-0.44 -0.5,-0.44 -4.69,-0.14 -10.09,-0.26 -13.71,-3.65 -4.44,-4.16 -4,-10.79 3.15,-10.8 11.39,0 22.83,0.68 34.22,1 1.17,0 4.95,-2.57 3.53,-2.61 v 0 z"
       id="path3690"
       style="fill:#010002" />
    <path
       class="cls-4"
       d="m 522.2,247.29 c -4.91,-3.61 -11.76,-4.36 -15.51,0.67 -2.86,-3.27 -6.74,-5.53 -11.16,-4.85 a 184,184 0 0 1 -21.49,2 h -1.41 a 10.2,10.2 0 0 0 0.74,-1.39 c 6.32,-14.34 10.11,-30.84 5.16,-46.22 -5.2,-16.17 -17.55,-29.62 -35,-31.87 -7.45,-1 -15.18,-0.48 -22.63,0.28 a 154.3,154.3 0 0 0 -22.09,3.88 c -13.28,3.35 -26.25,8.66 -33.55,21 a 33.3,33.3 0 0 0 -3.86,20.73 35.2,35.2 0 0 0 4.4,13.65 34,34 0 0 0 11,11.32 20.82,20.82 0 0 0 -13.21,7.37 c -10.41,12.74 -4.86,31.39999 9.32,38.71999 4.71,2.43 10.14,3.12 15.3,3.91 5.42,0.84 10.84,1.63 16.29,2.24 11.26,1.25 22.81,1.83 34.07,0.38 a 87.65,87.65 0 0 0 21.29,-5.39 18,18 0 0 0 11,9.1 c 21.9,6.76 47,-5.11 56.93,-25.37 C 531.06,260.9 527.95,251.51 522.2,247.29 Z m -68,-2.72 q -4.37,-0.4 -8.72,-1 a 56.94,56.94 0 0 0 6.62,-3 17.12,17.12 0 0 0 3,4.1 z m 0.65,-38.45 c -3,-5.38 -10.47,-12 -17.13,-8.13 a 61.11,61.11 0 0 1 -11.12,5.08 60.41,60.41 0 0 1 -10.33,1.9 c -1.73,0.16 -3.45,0.18 -5.18,0.25 h -0.35 -0.82 q -1.29,-0.09 -2.58,-0.24 h -0.36 a 18.78,18.78 0 0 0 -1.57,-6.13 147.26,147.26 0 0 1 24.16,-4.27 q 3.89,-0.37 7.79,-0.55 c 1.19,-0.05 2.38,-0.09 3.58,-0.1 h 1 0.33 a 48.7,48.7 0 0 1 6.15,0.87 l 0.85,0.15 0.2,0.08 c 0.72,0.36 1.62,0.93 2.43,1.27 l 0.55,0.42 0.35,0.31 c 0.4,0.47 0.79,0.95 1.17,1.44 l 1.14,2.23 q 0.44,1.38 0.76,2.8 v 0.19 c 0.08,1.58 0,3.27 0.07,4.87 a 15.91,15.91 0 0 0 -1.08,-2.45 z"
       id="path3692"
       style="opacity:0.62999998;fill:#dbe5ea" />
    <path
       class="cls-5"
       d="m 456.85,221.59 a 20.22,20.22 0 0 0 -1.09,-5 15.8,15.8 0 0 0 -0.53,-5.92 c -2.24,-7.37 -7.74,-12.76 -15.59,-12.8 h -3.44 l -1.29,-0.05 a 18,18 0 0 0 -9.24,-12.27 16.4,16.4 0 0 0 -1.63,-4.26 c -2.9,-5.24 -10.57,-12.19 -17.13,-8.13 a 55.43,55.43 0 0 0 -11.64,8.9 23.75,23.75 0 0 0 -7.33,5 22.65,22.65 0 0 0 -6,11.42 22.07,22.07 0 0 0 -2.35,8.66 23.83,23.83 0 0 0 9.29,20.32 22.34,22.34 0 0 0 5.57,3 24.1,24.1 0 0 0 5.87,3.08 c 6.82,2.41 13.46,2.19 19.48,-0.71 q 6.1,0 12.2,-0.23 a 6.15,6.15 0 0 0 1.74,-0.34 q 5.69,0.81 11.42,1.31 c 3.25,0.29 6.26,-0.22 8.63,-2.7 a 12.83,12.83 0 0 0 3.06,-9.28 z"
       id="path3694"
       style="opacity:0.62999998;fill:#eaeff1" />
    <path
       class="cls-5"
       d="m 440.93,249.29 c -1.9,-6.25 -8,-14.14 -15.59,-12.8 a 106.94,106.94 0 0 1 -11.78,1.44 q -3.08,0.2 -6.17,0.22 c -0.94,0 -1.91,0 -2.85,0 h 1.25 l -1.9,-0.09 a 104.28,104.28 0 0 1 -16.21,-2.27 v 0 a 16.66,16.66 0 0 0 -18,-2.91 c -6.29,2.7 -8.92,9.49 -8.89,15.89 a 19,19 0 0 0 4.22,10.84 c 2,2.48 5.49,5.17999 8.81,5.58999 3.07,0.38 6.43,-0.17 8.59,-2.64999 a 113.36,113.36 0 0 0 50.67,2.57999 C 440.27,263.85 442.89,255.76 440.93,249.29 Z"
       id="path3696"
       style="opacity:0.62999998;fill:#eaeff1" />
    <path
       class="cls-2"
       d="m 423.01,245.84 c 0.79,-6 -1.78,-12.9 -6.68,-16.33 l -10.18,-7.13 c -2.71,-1.9 -5.85,-3.48 -9.29,-3 a 9.8,9.8 0 0 0 -6.51,4.07 16.59,16.59 0 0 0 -2.48,-3.84 c -4,-4.63 -12.37,-8.77 -17.44,-2.89 -0.9,1 -1.77,2.1 -2.62,3.18 a 29.94,29.94 0 0 0 -9.79,1.73 c -7.73,2.75 -12.79,9.6 -15,17.26 -5.24,18.2 13.64,40.87999 32.66,32.86999 2.86,-1.2 4.73,-4.79 5.29,-7.62999 0.07,-0.33 0.11,-0.68 0.15,-1 5,1 10.32,0.79 15.4,0.5 a 91.63,91.63 0 0 0 18.32,-3 c 3.26,-0.87 5.69,-2.23 7.25,-5.4 a 15.22,15.22 0 0 0 0.92,-9.39 z"
       id="path3698"
       style="fill:#eaeff1" />
    <path
       class="cls-1"
       d="m 435.33,218.82 c 0.9,1.13 0.59,0.67 0,0 z"
       id="path3700"
       style="fill:#ffffff" />
    <path
       class="cls-1"
       d="m 458.54,212.72 a 45.21,45.21 0 0 0 -12.72,-17 41.69,41.69 0 0 0 -18.32,-8.68 c -7,-1.41 -13.65,-0.5 -20.38,1.67 -2.84,0.91 -4.78,5 -5.29,7.63 a 17.56,17.56 0 0 0 1.8,11 c 1.78,3.22 4.34,6.47 7.84,7.93 a 11.84,11.84 0 0 0 8.36,0.48 l -1.29,0.4 a 28.6,28.6 0 0 1 6.3,-1.11 h 0.82 c 0.81,0.09 1.62,0.16 2.43,0.29 0.35,0.06 2.29,0.7 2.94,0.74 l 0.8,0.33 c 0.59,0.27 1.16,0.57 1.73,0.87 0.25,0.18 0.51,0.36 0.75,0.55 a 8.87,8.87 0 0 1 1,1 l -0.8,-1 v 0 c 0.47,0.6 1,1.14 1.5,1.73 l 0.33,0.44 q 0.45,0.86 0.89,1.73 0.28,1 0.55,2.08 c 0,0.22 0,0.44 0.06,0.66 0.06,1 -0.14,4.7 0.18,0.37 v 0 c -0.29,4 -0.06,7.34 1.8,11 1.57,3.08 4.55,6.56 7.84,7.93 2.88,1.2 6.4,1.89 9.28,0.21 2.67,-1.56 5.05,-4.43 5.29,-7.63 a 49.82,49.82 0 0 0 -3.69,-23.62 z"
       id="path3702"
       style="fill:#ffffff" />
    <path
       class="cls-1"
       d="m 489.84,246.42 -1.44,-3.75 a 18.48,18.48 0 0 0 -4.85,-6 l -3,-1.89 a 11.36,11.36 0 0 0 -6.3,-1.12 h -2 a 6.84,6.84 0 0 0 -4.23,1.85 7.23,7.23 0 0 0 -3,3.54 10.34,10.34 0 0 0 -1.14,4.92 12.51,12.51 0 0 0 0.47,5.49 l 1.44,3.75 a 18.48,18.48 0 0 0 4.85,6 l 3,1.89 a 11.36,11.36 0 0 0 6.3,1.12 h 2 a 6.84,6.84 0 0 0 4.23,-1.85 7.23,7.23 0 0 0 3,-3.54 10.34,10.34 0 0 0 1.14,-4.92 12.51,12.51 0 0 0 -0.47,-5.49 z"
       id="path3704"
       style="fill:#ffffff" />
    <path
       class="cls-3"
       d="m 379.39,246.04 c -0.19,-13.38 -20.11,-19.29 -29,-10.43 -5.88,5.88 -6.94,15.45 -3.64,22.88 3.3,7.42999 10,12.62999 17.22,15.89999 9.26,4.23 19.48,5.33 29.54,5.76 12.76,0.55 25.55,0.89 38.32,1.18 q 19.4,0.45 38.8,0.34 c 11.34,-0.07 23.09,0.42 34.21,-2.13 16.05,-3.68 34.61,-19.64999 24.09,-37.47999 -3.43,-5.82 -9.64,-8.77 -16.15,-9.67 a 71.32,71.32 0 0 0 -11.95,-0.13 c -4.2,0.13 -8.91,0 -12.44,-2.7 -2.18,-1.69 -3.5,-4.84 -4.3,-7.38 -2.64,-8.43 -1.74,-17.41 -5.16,-25.7 a 48.39,48.39 0 0 0 -16.16,-20 C 448.27,165.7 429.52,162.4 411.88,165.53 a 97.93,97.93 0 0 0 -33.06,12.76 c -9,5.38 -17.77,12.56 -22.14,22.32 -7,15.74 3,35.3 21,35.61 2.28,0 -2.1,-2 -3.06,-2 -8.43,-0.14 -13.69,-9.1 -15.17,-16.48 -1.48,-7.38 0.82,-14.67 4.82,-20.78 9.14,-13.68 26.38,-22.38 41.69,-27.08 18.36,-5.63 38.84,-5.09 54.35,7.32 a 46.23,46.23 0 0 1 13.63,17.47 c 2.94,6.75 3.12,13.86 4.27,21 0.92,5.73 2.78,11.27 7.77,14.67 4.49,3.07 10,4 15.38,4 3.67,0 7.41,-0.52 11.07,-0.22 6.45,0.53 10.5,3.33 12.94,9.06 a 21.49,21.49 0 0 1 -2.09,20.2 c -10.44,15.99999 -31.8,16.06999 -48.75,16.25999 -19.88,0.23 -39.75,-0.06 -59.63,-0.65 -10.94,-0.33 -22,-0.26 -32.9,-1.36 -11.78,-1.19 -24.15,-5.46 -29.94,-16.61999 -3.44,-6.63 -3.31,-15.22 1.09,-21.42 2.23,-3.15 6.14,-6.35 10.26,-6.28 a 11.14,11.14 0 0 1 11.2,11.2 c 0,1.31 4.76,2.08 4.75,1.56 v 0 z"
       id="path3706"
       style="fill:#010002" />
    <path
       class="cls-1"
       d="m 272.46,440.94 a 6.43,6.43 0 0 1 -1.2,0 h -0.15 a 0.82,0.82 0 0 1 0.05,-0.18 2.83,2.83 0 0 1 0.76,-1 c 2,-1.37 2.18,-3.92 1.12,-6 a 5.8,5.8 0 0 0 -0.8,-1.15 5.7,5.7 0 0 0 0.1,-3 5.25,5.25 0 0 0 -5,-4.12 c -2.44,0 -3,3.3 -2.55,5.09 a 6,6 0 0 0 1,2.06 10,10 0 0 0 -1.9,10.65 c 1.71,4.4 6.24,7.63 11,6.9 5.25,-0.82 2.28,-9.95 -2.43,-9.25 z"
       id="path3708"
       style="fill:#ffffff" />
    <path
       class="cls-1"
       d="m 330.09,457.19 a 7,7 0 0 0 0.87,-6.13 10.27,10.27 0 0 0 -0.49,-1.42 c -1.23,-5.37 -5.36,-10.22 -10.78,-11.47 a 10.51,10.51 0 0 0 -10.94,3.95 c -4.09,-0.11 -8.24,0.85 -10.47,3.91 a 21,21 0 0 0 -4,2.7 c -2.88,2.49 0.27,7.6 3.22,8.28 l 0.65,0.14 c -0.7,3.55 3.71,7.94 6.52,5.83 a 18.22,18.22 0 0 0 4.19,1.77 16.83,16.83 0 0 0 7.8,0.24 c 0.3,0 0.6,0.07 0.91,0.09 a 13.07,13.07 0 0 0 5.89,-1.1 2.77,2.77 0 0 0 3.26,-2.06 11.84,11.84 0 0 0 3.37,-4.73 z"
       id="path3710"
       style="fill:#ffffff" />
    <path
       class="cls-2"
       d="m 340.75,458.7 c -4.19,-4.8 -12.18,-8.58 -17.44,-2.89 a 40.48,40.48 0 0 1 -18.93,12 q -1.75,0.47 -3.52,0.82 c -1.76,-3 -4.18,-5.83 -7.41,-7.17 a 11.79,11.79 0 0 0 -8.22,-0.52 l 1.06,-0.33 a 63.34,63.34 0 0 1 -15,2.73 c -1.28,0.07 -2.57,0.06 -3.85,0.09 l -1.56,-0.1 c -0.85,-0.07 -1.7,-0.16 -2.54,-0.26 a 15.45,15.45 0 0 0 0.67,-10.26 c -2.08,-6.84 -7.85,-13.42 -15.59,-12.8 -9.67,0.78 -18.52,4.77 -21.28,14.81 -3.52,12.78 5.87,24.61 16.39,30.45 4,2.22 8.67,3.53 13.07,4.68 a 62.56,62.56 0 0 0 12,1.89 76.3,76.3 0 0 0 18.21,-1 c 2.87,4.47 7.4,7.56 13.11,7.4 a 60.66,60.66 0 0 0 42.05,-19.4 c 4.98,-5.41 3.3,-14.95 -1.22,-20.14 z"
       id="path3712"
       style="fill:#eaeff1" />
    <path
       class="cls-1"
       d="m 322.36,448.37 c -5.38,-5.13 -13.56,-7.67 -20.85,-5.76 a 22.16,22.16 0 0 0 -14,11.08 22.54,22.54 0 0 1 -13.07,-3.32 c -5.3,-3.38 -7.88,4.49 -3.51,7.27 a 32.64,32.64 0 0 0 16.76,5.24 l 0.35,0.3 c 1.48,1.18 4.47,1.54 5.3,-0.69 a 30.68,30.68 0 0 0 7.28,-2.16 c 2.72,-1.19 2.21,-4.81 0.38,-7.05 a 15,15 0 0 1 17.8,2.37 3.38,3.38 0 0 0 5.33,-0.77 c 1.22,-2.29 -0.11,-4.93 -1.77,-6.51 z"
       id="path3714"
       style="fill:#ffffff" />
    <path
       class="cls-1"
       d="m 248.83,470.5 c -6.7,-2 -8.28,-10.59 -4.58,-16.07 2.62,-3.88 -4,-10.44 -7.14,-5.74 -7.48,11.08 0.05,27.31 12.16,31 2.31,0.7 3.84,-1.91 3.75,-3.86 a 5.79,5.79 0 0 0 -4.19,-5.33 z"
       id="path3716"
       style="fill:#ffffff" />
    <path
       class="cls-3"
       d="m 266.27,440.66 a 19,19 0 0 0 -25.7,-5.26 c -9.28,5.73 -12.06,19 -12.35,29.16 -0.32,11.1 7.41,18.9 17.66,21.88 6.22,1.8 12.8,1.87 19.22,2.07 l 22.79,0.71 c 18.46,0.56 46,-1 48.18,-24.9 1.83,-20.16 -20.74,-33.88 -38,-23.35 -5.23,3.2 -10.7,12 -17.66,11.24 -10.18,-1.16 -2.23,-14.82 -1.77,-20.39 0.37,-4.52 -1.44,-9.64 -6.15,-11.1 a 7.59,7.59 0 0 0 -9.39,4.09 c -1.24,2.73 3.58,4 4.76,1.41 1.7,-3.76 4.9,0.24 5.49,1.71 a 8.84,8.84 0 0 1 0.29,3.67 c -0.2,2.48 -1.24,4.82 -2,7.17 -1.1,3.49 -2,7.12 -0.95,10.74 1.74,6.2 8.26,8.19 14,6.64 8,-2.15 12,-10.4 19.65,-13.11 8.52,-3 18.69,0 23.62,7.69 a 21.23,21.23 0 0 1 -1.34,24.23 c -5.53,6.72 -14.47,8.9 -22.77,9.64 -9,0.8 -18.19,0.07 -27.22,-0.21 -10.58,-0.33 -23.35,1 -33.15,-3.62 -12.13,-5.71 -11,-17.59 -8.18,-28.79 1.36,-5.38 3.7,-10.61 8.84,-13.33 a 13.63,13.63 0 0 1 17.66,4.09 c 1.66,2.3 6.23,0.44 4.41,-2.07 v 0 z"
       id="path3718"
       style="fill:#010002" />
    <path
       class="cls-3"
       d="m 260.75,235.14 4.58,3.82 c 0.58,0.48 1.67,1.09 1.93,-0.05 a 3.88,3.88 0 0 0 -1.28,-3.21 l -4.58,-3.82 c -0.58,-0.48 -1.67,-1.09 -1.93,0.05 a 3.88,3.88 0 0 0 1.28,3.21 z"
       id="path3720"
       style="fill:#010002" />
    <path
       class="cls-3"
       d="m 19.09,395.76 9.33,9.2 4.85,-4.79 a 10.31,10.31 0 0 1 -5.76,-5.1 l -5.59,3.89 32,12 1.57,-6.67 -22.22,-5.41 -0.23,7.09 a 440,440 0 0 0 122.53,7.82 c 2.34,-0.18 2.95,-2.65 2,-4.41 -1.27,-2.24 -4.09,-3 -6.47,-2.86 A 423.62,423.62 0 0 1 33.27,398.88 c -6.49,-1.34 -5.5,5.81 -0.23,7.09 l 22.2,5.4 c 5.41,1.32 6.31,-4.86 1.49,-6.66 l -32,-12 c -2.85,-1.07 -7.83,-0.12 -5.59,3.89 a 21.72,21.72 0 0 0 11.42,9.78 c 3.4,1.31 8.74,-1 4.88,-4.79 l -9.33,-9.2 c -3.38,-3.33 -11.66,-1.26 -7,3.34 v 0 z"
       id="path3722"
       style="fill:#010002" />
    <path
       class="cls-3"
       d="m 17.46,387.29 c -3,4.13 -2.41,9.29 0.3,13.35 1.67,2.5 7.16,2.85 8.55,-0.16 l 3.37,-7.34 -9.41,-1.85 a 20,20 0 0 0 8.36,13.54 c 2,1.41 5.12,1.66 7,-0.12 a 3.77,3.77 0 0 0 -0.69,-5.81 11.28,11.28 0 0 1 -4.78,-7.88 c -0.57,-3.89 -7.65,-5.8 -9.46,-1.85 l -3.43,7.35 8.55,-0.16 c -1.08,-1.62 -0.32,-3.69 0.7,-5.08 1.51,-2.06 -0.58,-4.76 -2.47,-5.59 a 5.33,5.33 0 0 0 -6.59,1.6 z"
       id="path3724"
       style="fill:#010002" />
    <path
       class="cls-3"
       d="m 94.83,369.48 -2.42,8.36 c -0.22,0.75 4.54,2.28 4.71,1.68 l 2.42,-8.36 c 0.22,-0.75 -4.54,-2.28 -4.71,-1.68 z"
       id="path3726"
       style="fill:#010002" />
    <path
       class="cls-3"
       d="M 109.08,371.83 V 381 c 0,2.23 4.6,0.37 4.6,-1.68 v -9.17 c 0,-2.23 -4.6,-0.37 -4.6,1.68 z"
       id="path3728"
       style="fill:#010002" />
    <path
       class="cls-3"
       d="m 122.06,372.12 0.76,5.35 c 0.42,3 5.3,2 4.9,-0.79 l -0.76,-5.39 c -0.42,-3 -5.3,-2 -4.9,0.79 v 0 z"
       id="path3730"
       style="fill:#010002" />
    <path
       class="cls-6"
       d="m 428.12,463.67 c -0.22,-5.86 -4.51,-14.74 -10.42,-15.08 l -1.22,-0.1 a 31.48,31.48 0 0 1 0.33,6.23 c -0.07,1.7 -1.31,10.91 -4.53,8.16 -12.52,-10.7 -28.95,-7 -42.51,-14.85 -1.64,-0.95 -2.85,-4.93 -3.36,-9.25 a 87.45,87.45 0 0 0 -17.89,-7.12 39.13,39.13 0 0 1 -13,-2.73 c -2.12,-0.84 -3.44,-5.87 -3.71,-10.9 -4.51,-1.6 -9,-3.12 -13.6,-4.5 -17.54,-5.29 -35.23,-10.8 -53,-15.2 -13,-3.23 -26.35,-5.65 -39.61,-7.9 -0.61,1.67 -1.51,2.73 -2.7,2.73 h -41.15 a 223,223 0 0 1 -37.54,12.58 c 2.26,4.48 6.19,7.48 10.92,7.47 18.05,0 36.73,-1.88 54.68,0.52 8.64,1.16 17.18,3.19 25.77,4.7 8.87,1.56 17.75,3 26.56,5 17.19,3.88 34.24,9.5 51.23,14.44 17.49,5.08 34.36,12.12 51.6,18.16 9.05,3.17 18.22,5.95 27.07,9.84 8.85,3.89 17.3,8.26 26.76,8.81 5.8,0.34 9.57,-4.27 9.32,-11.01 z"
       id="path3732"
       style="fill:#dbe5ea" />
    <path
       class="cls-7"
       d="m 505.07,258.01 c -4.92,5.58 -9.57,11.88999 -15.22,16.51999 -6.39,5.24 -13.61,8.75 -19.75,14.48 -5.53,5.16 -10.54,10 -16.82,14 -6.28,4 -12.9,8 -19.62,10.47 -13.72,5 -28.76,-0.21 -42.77,2.25 -7.75,1.36 -15.41,3.19 -23.18,4.47 -6.6,1.08 -14.56,-1 -19.75,5.72 -2.69,3.47 -2.95,8.37 -1.69,12.76 -7.28,0.28 -14.56,0.53 -21.83,0.22 -13.66,-0.59 -27,-4.31 -40.64,-4.85 -17.82,-0.69 -35.7,-0.55 -53.57,-0.36 0,-0.51 0.05,-1.08 0.08,-1.77 0.17,-4.18 -0.1,-7.79 0.82,-11.76 2,-8.68 9.16,-16.3 13.82,-23.54 6.24,-9.7 10.92,-20 15.68,-30.73 2.42,-5.43999 4.77,-10.99999 7.44,-16.26999 2.29,-4.53 5.27,-8.51 8,-12.71 2.56,-4 5.14,-8 6,-12.94 1,-6.38 -1.44,-13.57 -5.84,-17.58 -5.87,-5.36 -13.27,-3.25 -19.35,0.45 -13.95,8.5 -23.57,25.53 -31.26,40.73 -9.01,17.57999 -16.35,36.41999 -29.25,50.71999 -8.3,9.2 4.92,30.71 14.34,21.69 -0.06,1.83 -0.09,3.66 -0.12,5.5 0,0 0,0.13 0,0.24 a 11,11 0 0 0 -2.44,-0.29 c -12.46,0 -25,-1.18 -37.44,0.6 -13.18,1.89 -24.13,8.54 -36.15,14.38 -11.76,5.72 -24.15,9.58 -36,15.13 a 282.32,282.32 0 0 0 -35.14,19.53 8.54,8.54 0 0 0 -1.49,1.27 H 61.1 c -6.13,-0.09 -11.6,0 -17.3,2 -1.76,-4.07 -4.8,-7.44 -8.73,-8.22 -5.75,-1.13 -9.72,4.8 -9.32,11 0.86,13.42 10.38,21.84 20.09,27.47 a 117.77,117.77 0 0 0 14.52,7.42 60.23,60.23 0 0 0 19.08,4 c 11.95,0.87 23.89,2.78 35.88,2.56 10.47,-0.19 23,-1.88 31.27,-9.77 a 7.9,7.9 0 0 0 2.09,-3.65 c 5.56,0.53 11.13,1 16.69,1.48 13.23,1.17 26.67,1.85 39.68,-1.63 5.81,-1.55 7.77,-8.29 6.33,-14.51 -1.27,-5.49 -6.63,-13.31 -12.47,-11.75 -12.58,3.36 -25.29,2.7 -38.06,1.49 -13.28,-1.26 -26.47,-2.44 -39.67,-4.56 -2.69,-0.43 -5.38,-0.82 -8.05,-1.17 10.17,-4.46 20.62,-8 30.71,-12.72 11.12,-5.18 20.89,-11.73 33,-13.47 a 115.58,115.58 0 0 1 16.64,-1 c 2.11,5.26 6.34,8.89 11.56,8.89 h 42 c 13.78,0 27.64,-0.66 41.41,0.1 13.32,0.73 26.27,4.29 39.61,4.79 13.84,0.52 27.67,-0.58 41.51,-0.64 6.06,0 7.52,-9.39 6.33,-14.51 a 19.33,19.33 0 0 0 -1.2,-3.58 c 1.75,-0.32 3.5,-0.67 5.23,-1 7.59,-1.28 15.14,-3.62 22.8,-4.16 15.1,-1.07 29.54,2.64 44.07,-4.2 a 149.79,149.79 0 0 0 19.43,-10.79 c 6.65,-4.44 12.19,-10 18.14,-15.49 5.73,-5.28 12.73,-8.49 18.64,-13.52 6.25,-5.32 11.46,-11.83 17,-18.08 8.33,-9.48 -5.62,-31.68999 -14.94,-21.10999 z m -242.9,-44 c 0.46,-2.49 1.54,-3.08 0,0 z"
       id="path3734"
       style="opacity:0.62999998;fill:#9cc1d8" />
    <g
       class="cls-8"
       id="g3742"
       style="opacity:0.62999998"
       transform="translate(0,164.4)">
      <path
         class="cls-9"
         d="m 249.86,314.53 -1.59,-0.31 c 0.69,0.18 2.29,0.55 3.47,0.78 l -0.63,-0.18 z"
         transform="translate(-13.73,-65.11)"
         id="path3736"
         style="fill:#8ec4ea" />
      <path
         class="cls-9"
         d="m 373.21,330.73 a 11,11 0 0 1 -1.61,-3.2 c -21,-6.17 -42.46,-10.21 -64.63,-10.3 -6,0 -6.81,-22.24 -1.35,-22.22 a 217.71,217.71 0 0 1 39.85,4 c -0.32,-5.7 0.86,-11.49 3.59,-11.39 a 84.81,84.81 0 0 1 22.21,4.08 l 2.67,-0.38 c 14.93,-2.26 30,-3.37 44.83,-6 30.06,-22.53 65.87,-33.76 98.37,-51.77 3.66,-11.44 10.2,-21.41 20,-27.44 a 159,159 0 0 1 8.08,-27.33 58.31,58.31 0 0 0 -9,-1.78 c -9.49,-1.1 -19.61,-1.16 -28.84,1.86 -5.91,1.93 -13.91,4.48 -17.2,11 a 93,93 0 0 1 -10.82,16.56 69.83,69.83 0 0 1 -10.64,8.84 c -4.58,3.28 -8.3,8 -12,12.5 -0.47,0.51 -0.94,1 -1.42,1.52 -0.26,0.26 -1.19,1 -2,1.64 -8.82,2.45 -16.91,6.57 -25.37,10.16 l 0.78,-0.2 c -0.34,0.09 -0.68,0.2 -1,0.31 l -0.14,0.06 a 15.14,15.14 0 0 1 -1.46,0.51 c -0.75,0.28 -1.5,0.58 -2.24,0.82 -3.26,1.09 -6.54,2.08 -9.83,3 -4.31,1.21 -8.65,2.31 -13,3.36 3.09,-2.45 5.95,-5.8 5.6,-9.62 -0.6,-6.64 -6,-10.74 -11,-13.06 -8.36,-4 -17.48,-5.32 -26.47,-5.41 a 124.67,124.67 0 0 0 -32.77,4.29 c -2.14,0.56 -4.25,1.28 -6.37,1.93 l -0.81,0.12 h -1 c -3,0 -6,0 -9.05,0 h -19.38 -30 c -0.74,-5.51 -7.49,-9.78 -10.9,-11.54 a 41.31,41.31 0 0 0 -6,-2.48 c 12.43,-14.81 24.31,-30.19 34.1,-47.44 3.06,-5.39 0,-10.86 -3.77,-14.23 -5.71,-5.16 -15.44,-7.68 -22.37,-8.49 -9.49,-1.1 -19.61,-1.16 -28.84,1.86 -6.14,2 -13.51,4.54 -17.2,11 -10.53,18.53 -23.51,34.87 -36.92,50.68 q -7,8.15 -14,16.29 a 60.25,60.25 0 0 0 -9.81,0.75 c -6.56,1.07 -13.3,2.61 -19.18,6.24 -1.92,0.72 -3.81,1.53 -5.68,2.34 -3,1.29 -6,2.7 -8.92,4.08 -5.74,2.67 -11.42,5.48 -17.1,8.3 a 384.24,384.24 0 0 0 -38,21.48 10,10 0 0 0 -2.56,2.41 67.24,67.24 0 0 0 -11.34,-1 c -8.23,0 -18.88,1.17 -26.47,5.41 -4.17,2.33 -11.56,6.46 -11,13.06 0.56,6.6 6,11 11,13.06 16.58,7 33.84,7.82 51.21,7.72 a 64,64 0 0 0 23.32,4.05 h 113.76 14.59 c 2.26,0.31 4.52,0.64 6.78,1 q 5.33,0.84 10.64,1.84 l 3.13,0.6 c -0.61,-0.16 -0.52,-0.16 1.19,0.22 l 0.4,0.09 0.59,0.11 c 0.19,0 0.42,0.1 0.66,0.17 l 1.33,0.31 -0.7,-0.12 a 5.27,5.27 0 0 0 0.91,0.17 c 6.58,1.49 13.15,3 19.69,4.73 30.12,7.75 60,16.84 89.74,26.31 l 12.38,4 6.19,2 0.45,0.11 c 4.29,1.91 8.56,3.85 12.93,5.51 l 2.56,1 c 5.78,3.9 13.85,5.7 19.89,6.55 0.68,0.1 1.38,0.18 2.09,0.26 l -1.46,-0.77 c -15.67,-8.52 -32.33,-18.91 -43.89,-34.1 z"
         transform="translate(-13.73,-65.11)"
         id="path3738"
         style="fill:#8ec4ea" />
      <path
         class="cls-9"
         d="m 427.88,241.05 c -6.2,1.63 -4,1.33 -1.84,0.67 0.53,-0.2 1.06,-0.39 1.59,-0.57 z"
         transform="translate(-13.73,-65.11)"
         id="path3740"
         style="fill:#8ec4ea" />
    </g>
    <path
       class="cls-7"
       d="m 415.5,477.06 c -2.75,-3.88 -9.08,-7.53 -13,-3.74 -1.47,-0.55 -3,-1 -4.42,-1.6 a 63.41,63.41 0 0 1 -8.81,-4.43 c -6.81,-3.95 -13.56,-8 -20.07,-12.52 -6.51,-4.52 -12.51,-10 -19.1,-14.37 -6.59,-4.37 -13.93,-7.23 -21.27,-9.56 -14.14,-4.48 -28.41,-7.31 -42.32,-12.8 q -12,-4.72 -23.81,-9.8 c -7.31,-3.13 -14.6,-7.28 -22.41,-8.42 -14,-2 -10.5,24.41 1.1,26.08 7.23,1 14,5.1 20.77,8 q 12.72,5.38 25.55,10.37 a 207.53,207.53 0 0 0 23.74,7.75 c 7.44,1.89 15,3.47 22.26,6.21 14.88,5.63 27.1,18.34 40.77,26.87 6.79,4.19 13.79,8.65 21.23,11.47 5.21,2 15.14,7.13 20.74,-1 3.77,-5.5 2.76,-13.28 -0.95,-18.51 z"
       id="path3744"
       style="opacity:0.62999998;fill:#9cc1d8" />
    <path
       class="cls-4"
       d="m 490.27,262.29 c -2.88,3.23999 -6,6.30999 -8.46,9.99999 a 94.8,94.8 0 0 0 -7.28,13.93 c -1.86,4.05 -3.85,8 -5.8,12 -1.41,2.89 -2.91,6.68 -5.86,7.85 -2.95,1.17 -7.08,0.44 -10.1,0.37 -4.75,-0.1 -9.61,-0.53 -14.35,0.14 -8.54,1.21 -16.09,6.6 -24.7,7.9 -9.11,1.37 -18.56,0.54 -27.74,1 -8.73,0.46 -17.23,1.25 -25.69,3.87 -8.72,2.69 -17.17,1.47 -26,2.2 -9.28,0.75 -18.38,3 -27.72,3.52 -10.47,0.59 -21,0.45 -31.46,0.42 -3.62,0 -7.26,-0.14 -10.87,0.19 l -0.88,0.09 a 1.12,1.12 0 0 1 -1,-0.48 8.4,8.4 0 0 0 -6.29,-3.73 c -8.1,-0.38 -15.48,2 -23.26,4.29 -1.37,0.41 -2.84,0.93 -4.35,1.45 a 1.13,1.13 0 0 1 -1.36,-0.65 18.23,18.23 0 0 0 -9.7,-9.29 1.43,1.43 0 0 1 -0.36,-2.3 c 1.16,-1.11 2.32,-2.21 3.44,-3.31 8.41,-8.27 16.67,-17.28 23.35,-27.45 3.35,-5.09 6.35,-10.47 9.56,-15.68 3.37,-5.46999 6.73,-10.89999 8.71,-17.23999 2.76,-8.83 -2.44,-22.44 -11.94,-21.31 -8.53,1 -13.53,8.91 -19.83,14.66 -6.66,6.09 -13.5,11.92 -20.18,18 -12.92,11.71999 -26.43,23.29999 -38.44,36.24999 a 84.89,84.89 0 0 0 -7.62,9.82 c -3.19,4.63 -7.32,7.33 -7.08,14 a 22.24,22.24 0 0 0 0.54,4.17 1.22,1.22 0 0 1 -1.66,1.51 c -3,-1.84 -6.47,-1.78 -9.4,1.68 l -0.3,0.37 -0.17,0.11 a 18.43,18.43 0 0 1 -1.86,1 16.51,16.51 0 0 1 -3.66,1.34 c -3,0.86 -6.1,1.45 -9.13,2.27 a 188.56,188.56 0 0 0 -29.1,10.33 c -8.66,3.94 -17.85,6.08 -26.44,10.24 -1.49,0.72 -3,1.49 -4.42,2.28 11.6,-2 23.77,-1.44 35.6,-1.45 a 1.05,1.05 0 0 0 0.52,-0.14 c 2.55,-1.44 5.08,-2.91 7.71,-4.15 2.17,-1 3.51,0.78 4.36,3 a 1.17,1.17 0 0 0 1.15,0.82 l 1.1,-0.09 a 2.18,2.18 0 0 1 1.35,0.34 1,1 0 0 0 1,0 q 1.63,-0.87 3.28,-1.69 a 1.31,1.31 0 0 0 0.66,-0.85 9.07,9.07 0 0 1 1.88,-3.7 22.29,22.29 0 0 1 8.45,-5.79 c 1.34,-0.54 2.57,2 3.07,3 q 0.22,0.44 0.39,0.9 a 1.14,1.14 0 0 0 1.28,0.78 c 0.88,-0.18 1.76,-0.34 2.65,-0.47 a 2,2 0 0 1 0.55,0 77.68,77.68 0 0 0 9.77,-3.22 1.25,1.25 0 0 0 0.68,-0.81 5.11,5.11 0 0 1 1.81,-2.9 16.22,16.22 0 0 1 2.37,-1.23 l 1.21,-0.57 a 1.43,1.43 0 0 0 0.67,-1.75 20.83,20.83 0 0 0 -0.78,-2 19.14,19.14 0 0 0 2.35,2.28 1,1 0 0 0 1,0.18 27.27,27.27 0 0 1 12.7,-1.59 c 1.8,0.22 3,1.65 3.69,3.64 a 1.2,1.2 0 0 0 0.94,0.79 c 8,1.16 16.08,-0.3 24,-1.25 1.27,-0.15 2.32,0.78 3.12,2.33 a 1.12,1.12 0 0 0 1.3,0.62 c 9.16,-2.7 13.31,-2.69 23.23,-2.32 2.25,0.08 4.83,3.29 10.15,3.67 h 0.13 c 7.72,-0.17 15.47,-1 23.07,1 a 4.38,4.38 0 0 1 2.48,1.83 1.18,1.18 0 0 0 0.91,0.5 c 10.39,0.44 20.76,-0.7 31,2.23 1.31,0.38 2.31,2.05 3,4.32 a 1.17,1.17 0 0 0 1.27,0.9 q 2.07,-0.34 4.13,-0.75 a 1.34,1.34 0 0 0 1,-1.39 q 0,-0.24 0,-0.47 a 1.27,1.27 0 0 1 1.11,-1.39 q 1.75,-0.1 3.49,-0.22 c 3.06,-0.22 6.11,-0.63 9.16,-1.08 l 1.07,-1.32 c 0.15,-2.84 0.71,-6 2.34,-6.91 17.05,-9.31 37.49,-8.13 55.91,-9.91 20.27,-2 40.5,-4.57 60.68,-7.54 2.2,-0.32 3.79,3 4.54,7.14 a 1.2,1.2 0 0 0 1.13,1 c 4.39,0 8.79,0.37 13.18,0.31 12.1,-0.16 17.82,-9.27 23.3,-20.28 2.65,-5.32 5.07,-10.78 7.68,-16.12 2.52,-5.15 6.4,-8.9 10,-13 8.39,-9.41 -5.56,-31.61999 -14.93,-21.03999 z"
       id="path3746"
       style="opacity:0.62999998;fill:#dbe5ea" />
    <path
       class="cls-10"
       d="M 422.09,323.84 H 319.46 c -33.94,0 -68,-1 -101.9,-0.12 -31.9,0.83 -64.28,7.2 -95.29,14.4 -28.31,6.57 -55.73,16.52 -81,30.88 -8.72,4.95 -18.61,11.06 -22.91,20.55 -1.87,4.13 -3.32,10.31 -0.12,14.16 2.8,3.37 7.78,4 11.81,4.7 31.3,5.75 63.54,4.22 95.22,4.78 33.15,0.58 66.34,1.25 99.45,-0.65 a 479.59,479.59 0 0 0 96.74,-15.25 c 31.89,-8.53 63.4,-18.92 94.86,-28.92 15.86,-5 31.49,-10.58 47.6,-14.78 7.56,-2 15.33,-4.35 23.1,-5.35 5.41,-0.7 10.86,-1 16.17,-2.38 4.78,-1.24 9.71,-3.1 13.53,-6.3 1.61,-1.35 -1.7,-0.67 -2.15,-0.57 a 15.69,15.69 0 0 0 -6.25,2.81 c -3.38,2.83 -11.29,2 -15.57,2.66 -6.44,0.91 -12.82,2.76 -19.12,4.34 -14.78,3.69 -29.23,8.21 -43.67,13 -29.3,9.81 -59,19 -88.64,27.67 -30.35,8.88 -61.05,15.14 -92.59,17.83 -30.81,2.63 -61.76,2.63 -92.65,2.19 -30.67,-0.44 -61.68,0.35 -92.27,-1.89 -6.8,-0.5 -13.59,-1.23 -20.32,-2.37 -4.69,-0.79 -11.63,-1.06 -15.3,-4.5 -8.42,-7.88 3.27,-21.44 9.53,-26.29 9.3,-7.2 20.6,-12.46 31.29,-17.16 a 264.7,264.7 0 0 1 41.34,-13.95 c 14.62,-3.72 29.5,-6.38 44.34,-9.07 15.39,-2.78 30.87,-5.23 46.5,-6.19 17.66,-1.09 35.48,-0.5 53.17,-0.43 17.69,0.07 35.64,0.16 53.46,0.16 H 414.4 a 14.57,14.57 0 0 0 6.5,-2.16 c 0.57,-0.33 3.23,-1.87 1.19,-1.87 v 0 z"
       id="path3748"
       style="fill:#211915" />
    <path
       class="cls-10"
       d="m 148.09,334.06999 c 3.18,-10.6 12.91,-18.08 20.38,-25.71 9.26,-9.46 18.58,-18.89 26.9,-29.2 7.66,-9.49 16.41,-17.10999 26.14,-24.40999 4.45,-3.34 8.8,-6.85 13.48,-9.87 4.68,-3.02 9.36,-5.86 12.8,-10.33 0.86,-1.11 -2.44,-4.67 -2.9,-4.08 -3.44,4.46 -8.13,7.32 -12.8,10.33 -4.91,3.17 -9.48,6.86 -14.15,10.37 a 151.42,151.42 0 0 0 -26.67,25.34999 c -8.41,10.22 -17.75,19.62 -27,29.07 -7.24,7.39 -16.25,14.52 -19.33,24.79 -0.38,1.28 2.87,4.55 3.13,3.69 v 0 z"
       id="path3750"
       style="fill:#211915" />
    <path
       class="cls-10"
       d="m 230.5,323.16999 c 9,-16.49 18.63,-32.57 27.33,-49.21 C 266.14,258.04 274.4,242.17 283.52,226.69 c 4,-6.7 6.88,-14 11,-20.6 3.38,-5.5 9.47,-9.81 11.31,-16.16 1.66,-5.75 -4.83,-8.77 -9.56,-9.78 -5.6,-1.2 -11.34,-0.46 -17,-0.38 -6.3,0.09 -5.4,8 0.8,7.89 5.08,-0.07 13.7,-2.12 17.17,2.62 l -0.81,-3 c -1.37,5.23 -6.19,8.73 -9.2,13.07 a 114.07,114.07 0 0 0 -7.76,14 c -5.76,11.49 -12.71,22.35 -18.73,33.71 -6.22,11.74 -12.17,23.62999 -18.52,35.29999 -6.71,12.32 -14,24.34 -20.65,36.66 -2.83,5.21 6.59,7.53 9,3.12 v 0 z"
       id="path3752"
       style="fill:#211915" />
    <path
       class="cls-10"
       d="m 188,397.34 c 10.19,-0.76 19.6,4.54 28.47,8.91 9.32,4.59 18.37,9.69 27.6,14.46 8.31,4.29 16.74,8.28 25.24,12.19 9.12,4.2 17.63,9.46 26.26,14.55 a 547,547 0 0 0 52.12,27 c 9.2,4.17 18.64,7.64 27.95,11.53 4.5,1.88 8.93,3.88 13.57,5.41 4.64,1.53 9.56,2.33 13.9,4.63 5.94,3.14 4.81,-3 0.69,-5.16 -6.75,-3.56 -14.13,-4.82 -21.18,-7.6 -7.05,-2.78 -14.29,-5.78 -21.44,-8.66 a 478.46,478.46 0 0 1 -45.91,-21.75 c -13.77,-7.34 -26.88,-15.9 -40.76,-23 -14.61,-7.49 -29.57,-14.17 -44.07,-21.91 -7.86,-4.2 -15.79,-8.29 -23.9,-12 -7.55,-3.43 -15.4,-6.42 -23.83,-5.79 -4.23,0.31 2.33,7.42 5.32,7.19 v 0 z"
       id="path3754"
       style="fill:#211915" />
    <path
       class="cls-10"
       d="m 267.91,385.77 c 5.42,-0.35 9.88,2.27 14.5,4.73 l 13.49,7.18 c 8.93,4.76 18,9.32 26.85,14.21 8,4.41 15.63,9.49 23.45,14.23 4,2.43 8.1,4.62 11.8,7.52 3.33,2.61 6.45,5.46 9.87,8 3.42,2.54 7.48,4.32 11,6.86 3.52,2.54 6.86,5.72 10.47,8.34 6,4.39 12.87,9 19.66,12.06 2.38,1.08 6.39,1.82 8.22,3.77 1.2,1.27 1,-0.15 0.56,1.38 -0.23,0.89 -2,1.79 -2.68,2.21 -4.35,2.58 -9.77,3.37 -14.71,4 -4.94,0.63 -2,10.09 2.48,9.51 7.62,-1 20.88,-2.8 22.78,-12 1.16,-5.61 -2.41,-10.77 -7,-13.62 a 50.63,50.63 0 0 0 -7.25,-3.36 71.17,71.17 0 0 1 -8.64,-4.86 c -7.36,-4.4 -13.76,-9.49 -20.59,-14.62 -3,-2.22 -6.18,-3.83 -9.31,-5.77 a 92.61,92.61 0 0 1 -9.7,-7.55 c -6.27,-5.16 -13.32,-9 -20.19,-13.24 -7.79,-4.85 -15.55,-9.7 -23.68,-14 q -13.53,-7.08 -27,-14.29 c -8.25,-4.39 -17.11,-10.82 -26.86,-10.18 -5.06,0.33 -2,9.8 2.48,9.51 v 0 z"
       id="path3756"
       style="fill:#211915" />
    <path
       class="cls-10"
       d="m 422.54,325.71999 c 0.37,-3 8.5,-5.58 10.9,-6.69 6.2,-2.87 12.31,-5.82 18.62,-8.47 11.38,-4.78 24.79,-10.14 32.36,-20.42 4.16,-5.64 6,-12.65 7.12,-19.47 A 103,103 0 0 0 492.66,258.38 c 0.13,-3.2 -0.14,-6.58 3.06,-8.14 5.41,-2.64 13.26,-3.07 18.74,-0.71 6.3,2.72 10.53,9.93 11.68,16.48999 0.68,3.85 0.51,7.76 0.64,11.65 0.15,4.78 1.07,10.34 -0.44,15 -1.12,3.45 -3.36,6.42 -4.51,9.89 a 61,61 0 0 0 -2.56,12.82 c -0.25,2.41 8.27,-1.46 8.59,-4.51 a 48.86,48.86 0 0 1 3,-13.75 c 1.48,-3.56 3.7,-6.59 4.36,-10.47 0.75,-4.43 0.2,-9 0.06,-13.5 -0.14,-4.5 0.05,-8.7 -0.9,-12.99999 -1.5,-6.71 -5.62,-13.57 -12,-16.66 -6.11,-3 -13.3,-2.16 -19.64,-0.5 -6,1.58 -12.3,4.28 -16.06,9.52 -4.44,6.2 -2.67,15.42999 -3.83,22.63999 -1.43,8.91 -4.27,17 -12.33,21.77 -7.86,4.61 -16.37,7.79 -24.68,11.44 -6.43,2.83 -13,5.87 -19.2,9.23 -4.77,2.6 -12.06,6.57 -12.8,12.62 -0.29,2.37 8.22,-1.46 8.59,-4.51 v 0 z"
       id="path3758"
       style="fill:#211915" />
    <path
       class="cls-10"
       d="m 41.87,371.7 c -0.19,5.63 -0.55,10.37 5.54,12.71 6.09,2.34 12.86,1.19 19.16,1 8.82,-0.26 17.68,0 26.51,0 8.43,0 17.89,-1.26 26.18,0.28 6.53,1.21 11.67,4.65 18.6,3.73 a 30.75,30.75 0 0 0 14.41,-5.64 c 12.06,-9.25 -6.37,-17 -14.54,-17.82 a 68.32,68.32 0 0 0 -22.68,1.73 c -4.42,1 -9.12,0.47 -13.64,0.47 H 85.69 c -1.61,0 -5.7,0.71 -6.43,2.43 -0.73,1.72 0.65,2.08 2.41,2.08 8.5,0 17.07,0.34 25.56,0.11 3.64,-0.1 6.77,-1 10.27,-1.8 a 44.54,44.54 0 0 1 11.76,-0.74 c 4.84,0.21 18.56,2.58 17.36,9.92 -1,6.31 -9.71,4.77 -13.47,3.39 -7.09,-2.6 -13.36,-2.74 -20.87,-2.71 q -13.39,0.06 -26.79,0 c -7.86,0 -15.75,0.51 -23.6,0.44 -3.47,0 -8.38,-0.33 -10,-4 -1.08,-2.42 -0.42,-5.66 -0.33,-8.21 0.07,-2 -9.55,-0.63 -9.66,2.57 v 0 z"
       id="path3760"
       style="fill:#211915" />
    <path
       class="cls-9"
       d="m 216.27,411.1 c -1,-0.37 -1.93,-0.8 -2.89,-1.25 h 3.09 c 7.8,0 2.67,-10.49 -3,-10.49 h -5.35 c -1.77,0 -3.55,0 -5.32,-0.08 a 17.72,17.72 0 0 0 -6.85,0.79 c -2.37,-0.42 -5.43,-1.88 -7.84,-2.3 l -1.18,-0.18 a 31.68,31.68 0 0 0 -11.71,-0.56 l -0.5,0.08 c -2,0 -4,0.18 -6,0.42 a 33.68,33.68 0 0 0 -4.34,0.65 c -0.73,0.13 -1.47,0.27 -2.2,0.43 -3.42,0.72 -6.89,0.8 -10.33,1.34 a 46.23,46.23 0 0 0 -6.21,1.43 l -1.11,0.35 0.09,-0.07 c 1.22,-0.9 2.64,-1.58 3,-3.17 l -0.26,-0.3 c -4.26,-1.95 -10.55,-0.62 -14.83,0.7 h -0.09 a 26.39,26.39 0 0 0 -5.81,0.2 43,43 0 0 0 -9,1.88 c -3.69,1.19 -7.41,2.16 -11.16,3.11 -5.25,-0.13 -10.31,-0.92 -15.6,-0.84 -5.68,0.09 -11.38,0 -17.06,0 -3.11,0 -6.23,0 -9.34,0 h -1.15 c 0,-0.06 -1.22,-0.29 -1.49,-0.37 -1.31,-0.4 -2.61,-0.82 -3.94,-1.17 a 26.94,26.94 0 0 1 -4,-1.37 l 0.6,-0.26 h 2.85 a 3.25,3.25 0 0 1 -1.16,-1.09 v 0 c 0.11,-0.13 1.13,-0.8 0.35,-0.8 a 45.51,45.51 0 0 1 -7.3,-0.56 c -1.63,-1.38 -2.83,-3.12 -4.39,-4.61 -0.5,-0.48 -2.48,-0.42 -3,-0.42 -0.52,0 -0.81,0 -1.22,0 a 15.68,15.68 0 0 0 -0.43,-1.64 c 0.23,-1.22 0.6,-2.42 0.8,-3.64 0.73,-4.56 -11.14,-1.79 -12.08,2.44 -1.15,0.91 -2,2.07 -1.48,3.32 0.16,0.4 0.33,0.8 0.49,1.22 -0.29,1.79 -0.28,3.56 0.84,4.77 -0.29,0.23 -0.51,0.44 -0.42,0.49 5.23,2.94 10.84,3.85 16.76,3.91 1.18,0.36 2.37,0.69 3.58,1 a 36.13,36.13 0 0 0 4.61,1.27 41.68,41.68 0 0 0 6.3,0.23 h 24.32 c 1.14,0 2.28,0 3.43,0 0.33,0 0.67,0 1,-0.05 l 0.27,0.06 a 33.66,33.66 0 0 0 5.72,0.82 c 2.47,0.08 4.95,0.12 7.42,0.14 h 0.41 a 61.57,61.57 0 0 0 10,-0.07 l 7.1,-0.06 8.54,-0.07 -0.1,0.13 q -0.42,0.37 0.07,0.64 c 4.33,1.84 9.26,0.49 13.74,-0.79 h 2.86 c 7.76,0.09 15.13,2.48 22.9,2.26 3.44,-0.1 6.77,0.69 10.21,0.78 a 32.7,32.7 0 0 1 5,0 c 1.69,0.32 3.19,1.16 4.93,1.38 a 49.47,49.47 0 0 0 7,0.17 66.17,66.17 0 0 1 6.39,2 30.07,30.07 0 0 0 11.57,1.81 c 0.72,0 8.86,-1.05 7.64,-2.27 -1,-1 -2.48,-1.23 -3.74,-1.74 z m -49.12,-9.94 0.16,-0.06 c 0.76,-0.28 1.5,-0.57 2.25,-0.89 l 0.77,-0.32 a 9,9 0 0 0 1.4,0.65 c -0.77,0.62 -2.29,1.16 -4.62,0.62 z m 14.06,4.3 a 3.78,3.78 0 0 0 0.37,-0.42 l 0.19,-0.34 c -1,-1.27 -2.44,-1.49 -4,-1.64 a 29.4,29.4 0 0 0 -4,-0.05 c -0.46,0 -1.09,0 -1.69,0 a 16.39,16.39 0 0 0 2.19,-1.72 c 0.76,0.17 1.5,0.31 2.2,0.47 a 44.35,44.35 0 0 1 4.83,1.61 c 1.79,0.63 3.64,0.9 5.44,1.47 1.55,0.49 2.92,1.09 4.47,1.41 l 0.42,0.18 q -5.22,-0.74 -10.46,-0.97 z"
       id="path3762"
       style="fill:#8ec4ea" />
    <path
       class="cls-9"
       d="m 285.65,404.18 c -1.42,-2.93 -4.13,-3.38 -7,-2.47 -0.65,0.21 -1.31,0.44 -2,0.69 -0.61,-0.26 -1.22,-0.51 -1.84,-0.72 -1.9,-0.64 -3.91,-0.84 -5.81,-1.44 -1.9,-0.6 -3.62,-1.7 -5.72,-1.74 -1.85,0 -4.22,1.23 -5.85,2 -1.36,0.6 -4.68,1.62 -5.37,3 a 2.87,2.87 0 0 0 -0.22,0.6 13.51,13.51 0 0 0 -5.65,0.4 c -0.73,0.21 -1.49,0.45 -2.25,0.71 -1.92,-1.29 -4.07,-2.66 -6.41,-2.53 -2.51,0.13 -5.17,1.59 -7.38,2.67 -1,0.48 -2.66,1 -3.33,1.88 -0.09,0.11 -1.14,0.87 -0.33,0.83 2.92,-0.16 5.38,2.11 7.7,3.58 a 34.62,34.62 0 0 0 9.29,3.77 c 1.65,0.46 5.25,-1.67 6.62,-2.31 l 0.59,-0.25 a 7.66,7.66 0 0 0 2.69,0.52 c 1.88,0 4.18,-1.21 5.85,-2 0.33,-0.14 0.77,-0.32 1.26,-0.51 a 8.16,8.16 0 0 0 3.62,-0.7 l 1.09,-0.42 0.63,0.2 c 1.46,0.44 3.55,0 4.66,1 0.93,0.87 5.22,-1.44 6.14,-1.85 0.17,-0.07 1.14,-0.57 2.22,-1.16 3.27,-1.19 7.19,-2.95 6.8,-3.75 z"
       id="path3764"
       style="fill:#8ec4ea" />
    <path
       class="cls-9"
       d="m 387.48,374.49 a 1.51,1.51 0 0 0 0.8,0 h -0.64 z"
       id="path3766"
       style="fill:#8ec4ea" />
    <path
       class="cls-9"
       d="m 453.61,350.01 c -2.32,-0.07 -5.93,0 -7.75,1.72 a 15.93,15.93 0 0 1 -11.59,5.17 124.25,124.25 0 0 0 -17,3.73 108.24,108.24 0 0 0 -16.24,5.74 c -2.16,1 -4.3,2.51 -6.58,3.16 -1.18,0.34 -2.41,0.5 -3.6,0.76 l -0.93,0.22 c -2.9,-0.34 -6.22,0.46 -9,1.11 -2.78,0.65 -5.33,0.73 -8,1.37 a 121.1,121.1 0 0 1 -14.65,2.63 107,107 0 0 0 -16.31,3.52 67.2,67.2 0 0 0 -13.69,5.67 c -1.32,-2.37 -3.23,-4.38 -4.81,-4.2 a 23.9,23.9 0 0 0 -4.45,1 10.37,10.37 0 0 0 -3.56,-2.88 8,8 0 0 0 -6.29,0.33 44.9,44.9 0 0 0 -5.39,-1.18 c -0.93,-2.07 -3,-5.5 -5.52,-5.7 -2.52,-0.2 -3.35,2 -5.62,2.26 a 11.83,11.83 0 0 1 -6.05,-0.48 c -2.38,-1 -4.46,-0.74 -4.61,2.17 -0.17,3.38 2.16,7.09 4.44,9.42 3.66,3.75 8.08,4.69 13.08,5.57 1.18,0.21 2.38,0.34 3.55,0.66 l 0.6,0.16 c 0,0 0,0 0.1,0.11 0.38,0.24 0.72,0.54 1.08,0.81 1.43,1.08 3.2,2.66 5.1,2.65 1.11,0 1.43,-0.94 1.44,-1.95 5.39,3.33 11.42,-1 17.13,-1.68 1.12,-0.13 1.51,-1.09 1.41,-2.41 a 22,22 0 0 0 6.76,-1.94 c 2.54,-1.25 4.84,-2.76 7.49,-3.79 a 94.8,94.8 0 0 1 15.16,-4.38 c 5.55,-1.13 11.33,-1.37 16.86,-2.63 a 15.63,15.63 0 0 0 2.51,-0.69 c 0.11,0 0.67,-0.27 0.79,-0.35 1.15,-0.19 2.43,-0.12 3.57,-0.31 a 39.59,39.59 0 0 0 4.43,-0.92 1.22,1.22 0 0 1 -0.35,-0.15 1.39,1.39 0 0 0 0.52,0.11 l 0.21,-0.06 c 0.91,-0.28 0.84,0 0.43,0.08 0.94,0 2.1,-0.08 2.17,-0.08 a 58.77,58.77 0 0 0 8.64,-1.58 33.13,33.13 0 0 0 8.9,-3.14 84.37,84.37 0 0 1 15.68,-6.14 141.7,141.7 0 0 1 17.81,-3.73 c 6.35,-1 12,-3.25 16.68,-7.75 1.57,-1.46 -4.11,-2 -4.55,-2.01 z"
       id="path3768"
       style="fill:#8ec4ea" />
    <path
       class="cls-3"
       d="m 298.76,395.5 c 2.5,-0.63 4.3,1.84 5,3.86 l 8.59,-2.63 -4.71,0.84 c 2.4,2.06 7.9,1.85 8.7,-1.72 2,-9.11 -12.46,-12.56 -16.72,-5.24 -2.07,3.55 -0.4,7.44 3.05,9.32 a 11,11 0 0 0 12.09,-1.22 c 4,-3.12 -4.58,-6.7 -7.51,-4.7 l -3.49,2.39 7.51,4.7 c 9.41,-8.13 -8.36,-18.64 -14.76,-8.3 -2,3.3 3.88,4.67 5.81,4.63 l 23.08,-0.49 -2.13,-6.72 -11.57,0.76 2.14,6.71 10,-1.1 -4.41,-6 -7.49,3.53 6.68,5.32 16.14,-7.85 c 1.91,-0.93 2,-2.95 0.73,-4.4 -1.48,-1.75 -4.33,-1.86 -6.36,-1.37 l -13.53,3.3 c -5.75,1.4 -0.86,7.12 3.36,6.46 l 24.6,-3.84 -3.4,-6.45 -18.26,7.22 c -6.36,2.51 0.24,7.15 4.58,6.21 l 16.87,-3.65 -4.58,-6.21 -22,5.68 4.58,6.21 15.93,-5 c 5.65,-1.76 0.89,-7.16 -3.36,-6.46 l -11.86,2 3.36,6.46 100.71,-26.34 c 2.07,-0.54 3.36,-2.55 2.15,-4.47 -1.21,-1.92 -4.63,-2.29 -6.73,-1.74 l -100.71,26.3 c -5.72,1.5 -0.87,7.16 3.36,6.46 l 11.87,-1.95 -3.36,-6.46 -15.93,5 c -6.36,2 0.14,7.36 4.58,6.21 l 22,-5.68 c 2.07,-0.54 3.36,-2.56 2.15,-4.47 -1.35,-2.13 -4.59,-2.2 -6.73,-1.74 l -16.87,3.65 4.58,6.21 18.26,-7.22 c 5.44,-2.15 1,-7.14 -3.36,-6.46 l -24.6,3.84 3.36,6.46 13.53,-3.3 -5.64,-5.76 -16.14,7.85 c -2.12,1 -1.91,3.37 -0.37,4.77 1.85,1.68 5,1.54 7,0.55 l 7.49,-3.53 c 4.93,-2.33 -1.5,-6.34 -4.41,-6 l -10,1.1 c -6.64,0.74 -3.18,7.06 2.14,6.71 l 11.57,-0.76 c 2,-0.13 4.33,-1.61 3.8,-3.88 -0.56,-2.43 -4,-2.87 -5.95,-2.83 l -23.08,0.49 5.81,4.63 q -2.4,-1.65 -2.2,0.2 a 1.33,1.33 0 0 1 -0.85,1.49 c -3.94,3.41 4.66,6.65 7.51,4.7 l 3.49,-2.39 -7.51,-4.7 q 4.16,-1.44 1.29,-0.83 a 1,1 0 0 0 -1.33,1.27 l 8.7,-1.72 c -2.84,-2.44 -7.6,-3.13 -10.69,-0.69 -3.09,2.44 -2.35,6.11 0.56,8.29 2,1.53 10.25,1.89 8.59,-2.63 -2.93,-7.95 -11.56,-11 -19.37,-9 -2.08,0.52 -3.36,2.56 -2.15,4.47 1.32,2.09 4.62,2.27 6.73,1.74 v 0 z"
       id="path3770"
       style="fill:#010002" />
    <path
       class="cls-3"
       d="m 229.78,312.78 -3.05,11.7 9.35,-3 a 21.64,21.64 0 0 1 5.62,-22.39 c 1.51,-1.41 -1.56,-0.86 -2.17,-0.75 -2,0.35 -4.82,1.23 -6.32,2.64 a 22.89,22.89 0 0 0 -6.56,23.84 c 0.43,1.37 9,-1.61 9.35,-3 l 3.05,-11.7 c 0.22,-0.86 -8.7,0.48 -9.28,2.69 v 0 z"
       id="path3772"
       style="fill:#010002" />
    <path
       class="cls-3"
       d="m 187.06,400.29 h 7.35 a 8.43,8.43 0 0 0 6.19,-3 c 0.8,-1 2.15,-3.5 -0.22,-3.63 l -12.21,-0.67 a 8.23,8.23 0 0 0 -6.19,3 c -0.85,1.06 -2.12,3.43 0.22,3.63 l 4.89,0.43 1.73,-5.27 -2.55,1.45 c -2.66,1.52 -4.7,6.86 0.23,5 5.11,-1.94 10.1,-1.14 14.72,1.62 l 6.7,-6.47 -3.79,-1 c -2.44,-0.62 -9.71,5.3 -6.7,6.47 l 20.84,8.14 c 2.62,1 10.63,-4.38 7.42,-6.28 l -14.75,-8.72 c -2.2,-1.3 -10,3.57 -7.91,5.86 a 32.27,32.27 0 0 0 15.95,9.85 c 2.73,0.73 10.61,-5.05 7.42,-6.28 l -12.92,-5 c -2.92,-1.12 -10.43,5 -7.42,6.28 l 54.14,22.85 c 3,1.25 10.37,-5 7.42,-6.28 l -54.14,-22.85 -7.42,6.28 12.92,5 7.42,-6.28 a 30,30 0 0 1 -15,-9 l -7.87,5.87 14.74,8.7 7.42,-6.28 -20.85,-8.11 -6.7,6.47 3.79,1 c 2.23,0.57 9.82,-4.61 6.7,-6.47 a 22.68,22.68 0 0 0 -20.08,-1.44 l 0.23,5 2.55,-1.46 c 1.15,-0.66 5.27,-5 1.73,-5.27 l -4.89,-0.43 -6,6.66 12.23,0.63 6,-6.66 h -7.35 a 8.43,8.43 0 0 0 -6.19,3 c -0.74,0.92 -2.19,3.63 0.22,3.63 v 0 z"
       id="path3774"
       style="fill:#010002" />
    <path
       class="cls-3"
       d="m 169.78,410.43 a 95,95 0 0 0 48,-0.55 c 0.95,-0.26 4.26,-2.41 3.69,-2.27 l -20.87,5 -3.33,2.2 15.68,-5.18 c 0.8,-0.26 3.44,-2.19 3.57,-2.19 l -42,1.86 c -1.41,0.06 -3.67,2.32 -4.22,2.34 l 42,-1.86 3.57,-2.19 -15.68,5.18 c -0.78,0.26 -4,2.32 -3.31,2.16 l 20.87,-5 3.69,-2.27 a 93.86,93.86 0 0 1 -47.47,0.48 c -1.22,-0.3 -4,2.39 -4.22,2.34 v 0 z"
       id="path3776"
       style="fill:#010002" />
    <path
       class="cls-3"
       d="m 277.33,362.36 a 37.25,37.25 0 0 0 13.49,18 c 2.38,1.72 5.49,-1.11 2.84,-3 a 32.84,32.84 0 0 1 -11.91,-16.13 c -0.87,-2.5 -5.45,-1.81 -4.41,1.16 v 0 z"
       id="path3778"
       style="fill:#010002" />
    <path
       class="cls-3"
       d="m 282.83,365.77 44.07,-5.28 21.54,-2.58 10.77,-1.29 c 2.94,-0.35 11.22,-2.58 10.21,2.64 -0.22,1.14 3.87,3.65 4.07,2.61 0.78,-4 -3.13,-7.33 -6.6,-8.59 -4.13,-1.5 -9,-0.17 -13.23,0.33 l -14.69,1.76 -59.7,7.16 c -0.6,0.07 2.21,3.41 3.59,3.24 v 0 z"
       id="path3780"
       style="fill:#010002" />
    <path
       class="cls-3"
       d="m 294.67,384.62 a 220.87,220.87 0 0 0 80.31,-24.17 c 0.69,-0.36 -2.16,-4.31 -3.4,-3.66 a 219.59,219.59 0 0 1 -79.88,24 c -0.89,0.09 1.63,4 3,3.82 v 0 z"
       id="path3782"
       style="fill:#010002" />
    <path
       class="cls-3"
       d="m 294.36,368.46 a 14.84,14.84 0 0 0 12.11,11.16 4.35,4.35 0 0 0 2.89,-1.2 c 0.18,-0.14 1.79,-1.62 1,-1.75 a 14.33,14.33 0 0 1 -11.73,-10.91 c -0.16,-0.66 -4.55,1.28 -4.21,2.69 v 0 z"
       id="path3784"
       style="fill:#010002" />
    <path
       class="cls-3"
       d="m 314.85,365.39 12.9,13 c 0.41,0.41 1.47,1.43 1.93,0.67 0.46,-0.76 -1.12,-2.39 -1.49,-2.76 l -12.92,-13.01 c -0.41,-0.41 -1.47,-1.43 -1.93,-0.67 -0.46,0.76 1.12,2.39 1.49,2.76 v 0 z"
       id="path3786"
       style="fill:#010002" />
    <path
       class="cls-3"
       d="m 330.83,361.02 12.17,15.9 c 0.84,1.1 5.12,-1.25 4.63,-1.88 l -12.17,-15.9 c -0.84,-1.1 -5.12,1.25 -4.63,1.88 z"
       id="path3788"
       style="fill:#010002" />
    <path
       class="cls-3"
       d="m 348.84,358.58 6.11,6.87 c 1,1.16 5.7,0 4.72,-1.15 l -6.11,-6.87 c -1,-1.16 -5.7,0 -4.72,1.15 z"
       id="path3790"
       style="fill:#010002" />
    <path
       class="cls-3"
       d="m 512.96,254.95 a 95.78,95.78 0 0 1 -8.44,72.06999 c -0.65,1.17 4.14,1.93 4.78,0.77 A 96.3,96.3 0 0 0 517.95,255.29 c -0.42,-1.49 -5.23,-1.16 -5,-0.3 v 0 z"
       id="path3792"
       style="fill:#010002" />
    <path
       class="cls-3"
       d="m 524.85,291 4.58,-3.82 c 0.23,-0.19 -3.1,-3.89 -3.6,-3.46 l -4.56,3.81 c -0.23,0.19 3.1,3.89 3.6,3.46 v 0 z"
       id="path3794"
       style="fill:#010002" />
    <path
       class="cls-3"
       d="m 523.27,289.1 3.82,-2.29 c 0.38,-0.23 -1.53,-0.62 -1.67,-0.65 a 17.91,17.91 0 0 0 -1.91,-0.25 2.48,2.48 0 0 0 -1.16,0 l -3.82,2.29 c -0.38,0.23 1.53,0.62 1.67,0.65 a 17.91,17.91 0 0 0 1.91,0.25 2.48,2.48 0 0 0 1.16,0 z"
       id="path3796"
       style="fill:#010002" />
    <path
       class="cls-3"
       d="m 522.55,275.73 4.58,-3.82 c 0.85,-0.71 -0.25,-2.26 -0.79,-2.78 -0.54,-0.52 -1.94,-1.42 -2.8,-0.7 l -4.58,3.86 c -0.85,0.71 0.25,2.26 0.79,2.78 0.54,0.52 1.94,1.42 2.8,0.7 v 0 z"
       id="path3798"
       style="fill:#010002" />
    <path
       class="cls-3"
       d="m 313.9,416.63 7.64,-4.58 c 0.81,-0.49 1.81,-1.76 1.2,-2.73 -0.61,-0.97 -2.21,-0.43 -3,0 l -7.64,4.58 c -0.81,0.49 -1.81,1.76 -1.2,2.73 0.61,0.97 2.21,0.43 3,0 z"
       id="path3800"
       style="fill:#010002" />
    <path
       class="cls-3"
       d="m 313.27,417 26,26.14 c 8.4,8.44 16.51,17.36 25.38,25.31 5.69,5.1 12.91,9.72 20.9,8.85 6.69,-0.73 13,-5.09 13.85,-12.07 0.31,-2.47 -4.39,-4.13 -4.72,-1.42 -1,8.19 -10.58,11 -17.43,8.36 -7.84,-3 -13.78,-10.38 -19.52,-16.14 l -41.46,-41.74 c -2.06,-2.07 -5.28,0.36 -3,2.67 v 0 z"
       id="path3802"
       style="fill:#010002" />
    <path
       class="cls-3"
       d="m 258.85,233.55 c -6.46,5 -9.88,12.41 -13.56,19.53 l -12.34,23.88999 -6.17,11.95 c -1.15,2.23 -3.55,5.2 -2.44,7.88 0.75,1.81 5.28,5.83 6.78,3.08 0.47,-0.85 -3.56,-3.63 -3.72,-3.34 q -0.44,1.5 -2.24,0.58 l 3,2.56 c -1.53,-1.94 2.44,-7.57 3.24,-9.11 l 4.41,-8.53 8.82,-17.07 c 5,-9.58999 9.21,-21.22999 18,-28.05999 0.32,-0.25 -3,-3.91 -3.72,-3.34 v 0 z"
       id="path3804"
       style="fill:#010002" />
  </g>
</svg>
