<svg id="Capa_1" data-name="Capa 1" xmlns="http://www.w3.org/2000/svg" viewBox="0 0 555.71 482.86"><defs><style>.cls-1,.cls-5{fill:#dbe5ea;}.cls-2{fill:#9cc1d8;}.cls-2,.cls-3,.cls-5{opacity:0.63;}.cls-4{fill:#8ec4ea;}.cls-6{fill:#211915;}</style></defs><title>Avion</title><path class="cls-1" d="M441.64,348.76c-0.22-5.82-4.56-14.64-10.53-15l-1.24-.1a30.75,30.75,0,0,1,.33,6.19c-0.07,1.69-1.33,10.84-4.58,8.11-12.65-10.63-29.26-7-43-14.76-1.66-.94-2.88-4.9-3.39-9.19A89.3,89.3,0,0,0,361.18,317a40.15,40.15,0,0,1-13.09-2.71c-2.14-.84-3.48-5.83-3.76-10.83-4.55-1.59-9.13-3.1-13.74-4.47-17.73-5.25-35.61-10.73-53.53-15.1-13.18-3.21-26.63-5.61-40-7.85-0.61,1.65-1.52,2.71-2.73,2.71H192.6a228.12,228.12,0,0,1-38,12.5c2.29,4.46,6.25,7.43,11,7.43,18.25,0,37.13-1.87,55.27.51,8.73,1.15,17.36,3.17,26.05,4.67,9,1.55,17.95,3,26.84,4.95,17.38,3.85,34.61,9.44,51.79,14.34,17.68,5,34.74,12,52.16,18,9.15,3.15,18.42,5.91,27.36,9.78s17.48,8.2,27,8.75C438.09,360,441.9,355.46,441.64,348.76Z"/><path class="cls-2" d="M519.43,144.41c-5,5.55-9.67,11.81-15.39,16.42-6.46,5.21-13.76,8.7-20,14.39-5.59,5.13-10.65,9.92-17,13.89s-13,8-19.84,10.4c-13.87,4.93-29.07-.21-43.23,2.23-7.83,1.35-15.58,3.17-23.43,4.44-6.68,1.07-14.72-.95-20,5.68-2.74,3.47-3,8.36-1.73,12.7-7.36.28-14.72,0.53-22.07,0.22-13.81-.58-27.24-4.29-41.08-4.81-18-.69-36.09-0.55-54.15-0.35,0-.5.05-1.07,0.08-1.76,0.17-4.15-.1-7.74.82-11.68,2-8.63,9.26-16.2,14-23.39,6.31-9.64,11-19.91,15.85-30.54,2.45-5.41,4.82-10.91,7.52-16.17,2.31-4.5,5.32-8.45,8.05-12.63,2.59-4,5.2-7.91,6-12.86A20.11,20.11,0,0,0,288,93.12c-5.94-5.32-13.42-3.23-19.56.45-14.1,8.45-23.82,25.36-31.6,40.47-9,17.47-16.38,36.19-29.45,50.43-8.39,9.14,5,30.52,14.49,21.55-0.06,1.82-.09,3.64-0.12,5.47,0,0,0,.13,0,0.23a11.33,11.33,0,0,0-2.47-.29c-12.6,0-25.3-1.18-37.85.59-13.32,1.88-24.39,8.48-36.54,14.29-11.89,5.68-24.41,9.52-36.38,15A286.86,286.86,0,0,0,73,260.75,8.6,8.6,0,0,0,71.48,262H70.64c-6.19-.09-11.72,0-17.49,1.95-1.78-4-4.85-7.4-8.83-8.17-5.82-1.13-9.83,4.77-9.42,10.93C35.77,280,45.39,288.42,55.2,294a119.84,119.84,0,0,0,14.67,7.38,61.79,61.79,0,0,0,19.29,4c12.08,0.86,24.15,2.76,36.27,2.54,10.59-.19,23.25-1.86,31.61-9.71a7.82,7.82,0,0,0,2.11-3.63c5.62,0.52,11.25,1,16.88,1.47,13.37,1.16,27,1.84,40.11-1.62,5.88-1.54,7.86-8.24,6.4-14.42-1.29-5.46-6.71-13.22-12.6-11.67-12.72,3.34-25.56,2.68-38.47,1.48-13.42-1.25-26.75-2.42-40.1-4.53-2.72-.43-5.43-0.81-8.14-1.16,10.29-4.43,20.85-8,31-12.64,11.24-5.15,21.11-11.66,33.36-13.38a118.84,118.84,0,0,1,16.82-1c2.13,5.23,6.41,8.83,11.69,8.83h42.45c13.93,0,27.94-.65,41.86.1,13.46,0.72,26.55,4.26,40,4.76,14,0.51,28-.58,42-0.63,6.12,0,7.6-9.33,6.4-14.42a19,19,0,0,0-1.22-3.56c1.77-.32,3.54-0.66,5.29-1,7.67-1.27,15.3-3.6,23.05-4.14,15.27-1.06,29.86,2.62,44.54-4.17a152.2,152.2,0,0,0,19.64-10.73c6.73-4.41,12.32-9.93,18.34-15.39,5.79-5.25,12.87-8.44,18.84-13.43,6.31-5.29,11.58-11.75,17.15-18C543,156,528.86,133.89,519.43,144.41ZM273.89,100.69c0.47-2.48,1.56-3.06,0,0h0Z"/><g class="cls-3"><path class="cls-4" d="M247.57,299.23l-1.61-.3c0.7,0.18,2.31.55,3.51,0.77l-0.64-.18Z"/><path class="cls-4" d="M372.26,315.33a10.83,10.83,0,0,1-1.63-3.18C349.37,306,327.7,302,305.29,301.92c-6.1,0-6.89-22.1-1.37-22.08a223.77,223.77,0,0,1,40.28,3.93c-0.33-5.66.86-11.42,3.63-11.31a87.06,87.06,0,0,1,22.45,4.06l2.7-.38c15.1-2.25,30.29-3.35,45.32-6,30.39-22.39,66.59-33.55,99.44-51.44,3.7-11.37,10.31-21.27,20.17-27.27a155.91,155.91,0,0,1,8.17-27.15,59.85,59.85,0,0,0-9.06-1.77c-9.6-1.1-19.82-1.15-29.16,1.85-6,1.92-14.06,4.45-17.39,11a92.27,92.27,0,0,1-10.94,16.46,70.33,70.33,0,0,1-10.76,8.79c-4.63,3.26-8.39,7.93-12.14,12.42-0.47.51-.95,1-1.44,1.51-0.26.26-1.2,0.95-2,1.63-8.92,2.43-17.09,6.53-25.64,10.09l0.79-.2c-0.35.09-.69,0.2-1,0.31l-0.14.06a15.48,15.48,0,0,1-1.47.5c-0.76.28-1.52,0.57-2.27,0.82-3.29,1.08-6.61,2.06-9.94,3-4.36,1.21-8.75,2.29-13.14,3.34,3.12-2.44,6-5.77,5.66-9.55-0.61-6.59-6.11-10.67-11.08-13-8.45-3.93-17.67-5.28-26.76-5.38A128.08,128.08,0,0,0,335,210.38c-2.17.55-4.29,1.27-6.44,1.92l-0.82.12-1,0c-3,0-6.1,0-9.15,0l-19.59,0H267.63c-0.75-5.48-7.57-9.72-11-11.46a42.16,42.16,0,0,0-6.06-2.46c12.56-14.71,24.57-30,34.47-47.13,3.09-5.36,0-10.79-3.81-14.14-5.78-5.13-15.6-7.64-22.61-8.44-9.6-1.1-19.82-1.15-29.16,1.85-6.2,2-13.66,4.51-17.39,11C201.42,160,188.29,176.25,174.73,192q-7.07,8.1-14.16,16.19a61.94,61.94,0,0,0-9.91.74c-6.64,1.07-13.44,2.59-19.39,6.2-1.94.71-3.85,1.52-5.74,2.32-3,1.28-6,2.68-9,4.05-5.8,2.65-11.54,5.44-17.28,8.25A390.31,390.31,0,0,0,60.78,251a10.09,10.09,0,0,0-2.58,2.4,69.12,69.12,0,0,0-11.46-.95c-8.32,0-19.08,1.17-26.76,5.38-4.22,2.31-11.69,6.41-11.08,13S15,281.74,20,283.83c16.76,7,34.2,7.77,51.76,7.67a65.65,65.65,0,0,0,23.58,4H210.43l14.75,0c2.29,0.31,4.57.64,6.85,1q5.39,0.84,10.76,1.82l3.17,0.6c-0.62-.16-0.52-0.16,1.2.21l0.4,0.09,0.59,0.11c0.19,0,.42.1,0.66,0.17l1.35,0.3-0.71-.12a5.41,5.41,0,0,0,.92.17c6.65,1.48,13.29,3,19.9,4.7,30.45,7.71,60.65,16.73,90.71,26.14l12.52,3.94,6.25,2,0.46,0.11c4.34,1.9,8.66,3.82,13.08,5.48l2.59,1c5.84,3.88,14,5.66,20.1,6.5,0.69,0.1,1.4.18,2.11,0.26l-1.47-.77C400.78,340.74,383.95,330.42,372.26,315.33Z"/><path class="cls-4" d="M427.52,226.22c-6.26,1.62-4.09,1.33-1.86.67,0.54-.2,1.07-0.39,1.61-0.56Z"/></g><path class="cls-2" d="M428.89,362.06c-2.78-3.86-9.18-7.48-13.15-3.72-1.48-.55-3-1-4.46-1.59a64.54,64.54,0,0,1-8.94-4.43c-6.88-3.92-13.7-7.91-20.29-12.44S369.4,330,362.74,325.61s-14.08-7.18-21.5-9.49c-14.29-4.45-28.72-7.26-42.78-12.72q-12.09-4.69-24.07-9.74c-7.39-3.11-14.76-7.24-22.66-8.36-14.11-2-10.61,24.25,1.11,25.92,7.3,1,14.15,5.07,21,7.92q12.86,5.34,25.83,10.3a212.38,212.38,0,0,0,24,7.7c7.52,1.88,15.18,3.45,22.5,6.17,15,5.59,27.4,18.23,41.22,26.7,6.92,4.24,14,8.66,21.5,11.45,5.27,2,15.3,7.08,21-1C433.65,375,432.63,367.26,428.89,362.06Z"/><path class="cls-5" d="M504.48,148.63c-2.91,3.22-6,6.27-8.55,9.91a93.63,93.63,0,0,0-7.36,13.84c-1.88,4-3.89,8-5.86,11.92-1.42,2.87-2.94,6.64-5.92,7.8s-7.15.44-10.21,0.37c-4.81-.1-9.72-0.53-14.5.14-8.63,1.21-16.27,6.56-25,7.85-9.21,1.36-18.77.54-28,1-8.83.45-17.42,1.25-26,3.84-8.82,2.68-17.35,1.47-26.33,2.18-9.38.75-18.58,3-28,3.5-10.59.58-21.2,0.44-31.8,0.42-3.66,0-7.34-.14-11,0.19l-0.89.09a1.13,1.13,0,0,1-1-.48,8.52,8.52,0,0,0-6.36-3.71c-8.19-.37-15.64,2-23.51,4.26-1.38.4-2.88,0.92-4.4,1.44a1.14,1.14,0,0,1-1.38-.65,18.3,18.3,0,0,0-9.8-9.23,1.4,1.4,0,0,1-.37-2.28c1.18-1.1,2.34-2.19,3.47-3.29,8.5-8.21,16.85-17.17,23.6-27.27,3.38-5.06,6.42-10.4,9.66-15.58,3.4-5.43,6.8-10.83,8.8-17.13,2.79-8.77-2.47-22.3-12.07-21.17-8.62,1-13.68,8.85-20,14.57-6.74,6-13.65,11.84-20.4,17.87-13.06,11.65-26.71,23.16-38.86,36a84.55,84.55,0,0,0-7.7,9.76c-3.22,4.6-7.4,7.29-7.16,14a21.74,21.74,0,0,0,.55,4.14,1.22,1.22,0,0,1-1.68,1.5c-3.07-1.82-6.54-1.77-9.5,1.67l-0.3.37-0.17.11a18.73,18.73,0,0,1-1.88,1,16.87,16.87,0,0,1-3.7,1.34c-3.06.85-6.17,1.44-9.23,2.26a192.81,192.81,0,0,0-29.42,10.24c-8.75,3.92-18,6-26.73,10.17-1.5.71-3,1.48-4.47,2.27,11.72-1.95,24-1.43,36-1.44a1.08,1.08,0,0,0,.53-0.14c2.58-1.43,5.14-2.89,7.8-4.13,2.19-1,3.55.77,4.41,3a1.18,1.18,0,0,0,1.16.81l1.11-.09a2.23,2.23,0,0,1,1.37.34,1,1,0,0,0,1,0q1.65-.87,3.32-1.68a1.31,1.31,0,0,0,.66-0.85,9,9,0,0,1,1.9-3.68,22.55,22.55,0,0,1,8.54-5.75c1.35-.54,2.6,2,3.11,3q0.22,0.44.4,0.9a1.16,1.16,0,0,0,1.29.78c0.88-.18,1.78-0.34,2.68-0.46a2,2,0,0,1,.55,0,79.49,79.49,0,0,0,9.88-3.2,1.25,1.25,0,0,0,.69-0.81,5.07,5.07,0,0,1,1.83-2.89,16.5,16.5,0,0,1,2.39-1.22l1.23-.57a1.41,1.41,0,0,0,.68-1.74,20.48,20.48,0,0,0-.79-2,19.2,19.2,0,0,0,2.37,2.27,1.07,1.07,0,0,0,1,.18A28,28,0,0,1,189,222.92c1.82,0.22,3,1.63,3.73,3.61a1.21,1.21,0,0,0,.95.79c8,1.15,16.26-.3,24.29-1.24,1.28-.15,2.34.77,3.16,2.32a1.14,1.14,0,0,0,1.32.62c9.26-2.68,13.46-2.68,23.48-2.3,2.27,0.08,4.88,3.27,10.26,3.64h0.13c7.81-.16,15.64-1,23.32,1a4.42,4.42,0,0,1,2.51,1.82,1.19,1.19,0,0,0,.92.49c10.5,0.44,21-.69,31.31,2.21,1.33,0.37,2.33,2,3,4.29a1.18,1.18,0,0,0,1.28.89q2.09-.33,4.17-0.74a1.33,1.33,0,0,0,1-1.38q0-.23,0-0.47a1.27,1.27,0,0,1,1.12-1.39q1.77-.09,3.53-0.22c3.1-.22,6.18-0.62,9.25-1.07l1.08-1.31c0.15-2.82.72-6,2.37-6.87,17.24-9.25,37.89-8.07,56.52-9.85,20.5-2,40.94-4.54,61.34-7.49,2.22-.32,3.83,3,4.59,7.1a1.21,1.21,0,0,0,1.15,1c4.44,0,8.88.37,13.32,0.31,12.24-.16,18-9.21,23.56-20.15,2.68-5.29,5.12-10.71,7.77-16,2.55-5.12,6.47-8.84,10.15-12.92C528,160.22,513.95,138.15,504.48,148.63Z"/><path class="cls-6" d="M435.51,209.81H330.76c-34.25,0-68.62-1.1-102.85-.09-31.79.93-64,7.13-95,14.18-28.54,6.5-56.23,16.28-81.85,30.53-8.92,5-19.18,11.05-23.64,20.71-1.9,4.11-3.34,10.26-.12,14.07,2.85,3.38,7.88,3.94,11.94,4.68,31.88,5.76,64.72,4.2,97,4.76,33.81,0.58,67.67,1.24,101.45-.75a491.41,491.41,0,0,0,97.11-15.28c32.52-8.6,64.7-19,96.78-29.07,15.95-5,31.69-10.41,47.92-14.52,7.46-1.89,15-4.13,22.7-5,5.28-.61,10.59-1,15.75-2.36,4.67-1.23,9.48-3.07,13.23-6.18,1.62-1.34-1.71-.67-2.15-0.57a15.83,15.83,0,0,0-6.25,2.81c-3.27,2.71-11,2-15.17,2.54-6.55.86-13,2.7-19.45,4.27-14.47,3.54-28.68,7.79-42.81,12.48-29.6,9.84-59.62,18.86-89.58,27.55-31.16,9-62.62,15.46-95,18.21-30.83,2.61-61.8,2.66-92.71,2.24-15.43-.21-30.85-0.54-46.28-0.73-16.15-.2-32.34,0-48.46-1.16-6.87-.49-13.74-1.22-20.54-2.35-4.73-.78-11.74-1-15.47-4.47-8.55-7.88,3.44-21.39,9.64-26.12,9.55-7.28,21.15-12.54,32.12-17.24a275.92,275.92,0,0,1,43.57-14.19c14.54-3.54,29.32-6.11,44-8.71,15.2-2.68,30.48-5,45.9-5.92,17.45-1,35.05-.48,52.52-0.41,17.65,0.07,35.3.16,53,.16H427.82a14.57,14.57,0,0,0,6.5-2.16c0.57-.33,3.23-1.87,1.19-1.87h0Z"/><path class="cls-6" d="M160.12,221.84c3.21-10.49,13-17.85,20.48-25.36,9.35-9.39,18.77-18.76,27.19-29,7.76-9.45,16.61-17,26.43-24.26,4.5-3.32,8.9-6.81,13.63-9.81s9.45-5.81,12.94-10.26c1.73-2.2-4.85-9.36-5.79-8.15-3.49,4.45-8.23,7.28-12.94,10.26-5,3.14-9.59,6.82-14.31,10.31a152,152,0,0,0-26.93,25.18c-8.51,10.17-17.95,19.5-27.3,28.88-7.35,7.37-16.5,14.5-19.66,24.83-0.78,2.54,5.74,9.1,6.27,7.38h0Z"/><path class="cls-6" d="M241.83,209.17c9.07-16.39,18.83-32.35,27.62-48.9,8.41-15.82,16.75-31.6,26-47,4-6.66,7-13.88,11.08-20.47,3.42-5.47,9.57-9.72,11.42-16.07C319.61,71,313,68,308.3,67c-5.66-1.2-11.46-.46-17.18-0.38-6.3.09-5.4,8,.8,7.89,5.11-.07,13.88-2.14,17.41,2.59l-0.81-3c-1.39,5.2-6.27,8.68-9.3,13a112.91,112.91,0,0,0-7.84,13.94c-5.83,11.42-12.85,22.21-18.94,33.5-6.29,11.66-12.3,23.48-18.72,35.07-6.78,12.24-14.1,24.18-20.88,36.42-2.87,5.18,6.56,7.51,9,3.12h0Z"/><path class="cls-6" d="M198.89,282.88c10.29-.75,19.8,4.49,28.8,8.85s17.89,9.25,26.86,13.84c8.74,4.46,17.61,8.6,26.55,12.64,9.21,4.17,17.83,9.39,26.56,14.46a554.83,554.83,0,0,0,53.26,27.11c9.11,4,18.45,7.41,27.66,11.19,4.32,1.77,8.58,3.66,13,5.15,4.89,1.64,10.16,2.43,14.78,4.83,6,3.09,4.83-3,.69-5.16-6.82-3.54-14.28-4.81-21.4-7.56-7.47-2.88-14.9-5.91-22.33-8.87a488.86,488.86,0,0,1-45.24-21.07c-14.11-7.37-27.55-16-41.74-23.16-14.75-7.47-29.9-14.07-44.56-21.77-7.95-4.17-16-8.25-24.15-11.91-7.64-3.41-15.57-6.38-24.07-5.76-4.23.31,2.33,7.41,5.32,7.19h0Z"/><path class="cls-6" d="M279.68,271.39c4.92-.35,9,1.74,13.26,4,4.46,2.31,8.9,4.65,13.35,7,9.06,4.74,18.19,9.36,27.23,14.14,8.68,4.59,16.9,10,25.32,15,4,2.42,8.19,4.58,11.94,7.46,3.37,2.59,6.53,5.42,10,7.91s7.25,4.15,10.7,6.54c3.81,2.65,7.21,5.86,11,8.57,6.31,4.52,13.47,9.28,20.63,12.31,2.21,0.94,6.28,1.76,7.88,3.64,1,1.18.69-.31,0.33,1-0.27,1-2,1.86-2.81,2.31-4.42,2.57-9.88,3.34-14.88,4s-2,10.08,2.48,9.51c7.7-1,21.51-2.81,23.06-12.37,0.9-5.58-2.65-10.43-7.19-13.22-4.81-3-10.29-4.76-15.19-7.66-7.68-4.54-14.44-9.67-21.58-15-3-2.22-6.24-3.81-9.4-5.74-3.75-2.29-7-5.27-10.43-8-6.39-5.11-13.61-8.88-20.56-13.14-7.89-4.84-15.77-9.59-24-13.83-9.41-4.83-18.77-9.75-28.14-14.65-7.87-4.12-16.18-9.87-25.43-9.22-5.07.36-2,9.82,2.48,9.51h0Z"/><path class="cls-6" d="M436,211.68c0.36-2.93,8.42-5.41,10.77-6.48,6.37-2.89,12.66-5.88,19.13-8.55,11.46-4.74,25-10,32.66-20.31,4.18-5.59,6.08-12.56,7.19-19.36a100.63,100.63,0,0,0,1.13-12.21c0.13-3.25-.13-6.54,3.15-8.06,5.55-2.57,13.36-3.08,19-.7,6.33,2.69,10.62,9.8,11.81,16.38,0.7,3.83.52,7.71,0.64,11.58,0.15,4.74,1.08,10.28-.44,14.89-1.14,3.43-3.39,6.38-4.56,9.83a59.77,59.77,0,0,0-2.54,12.76c-0.26,2.41,8.27-1.46,8.59-4.51a47.86,47.86,0,0,1,3.08-13.66c1.5-3.55,3.74-6.53,4.41-10.41,0.76-4.4.2-9,.06-13.41s0-8.64-.91-12.9C547.59,139.84,543.36,133,537,130c-6.18-3-13.42-2.15-19.84-.5C511.08,131,504.78,133.74,501,139c-4.46,6.15-2.69,15.33-3.87,22.51-1.46,9-4.38,16.94-12.51,21.6-8,4.57-16.56,7.73-25,11.36-6.5,2.81-13.14,5.84-19.4,9.18-4.79,2.56-12.14,6.52-12.89,12.57-0.29,2.36,8.21-1.46,8.59-4.51h0Z"/><path class="cls-6" d="M51.25,257.38c-0.2,5.65-.52,10.32,5.59,12.64s13,1.18,19.35,1c8.92-.25,17.87,0,26.79,0,8.54,0,18.08-1.25,26.48.28,6.58,1.2,11.8,4.62,18.77,3.7a31.18,31.18,0,0,0,14.51-5.59c12.21-9.26-6.59-16.92-14.69-17.73a69.92,69.92,0,0,0-22.89,1.72c-4.48,1-9.23.46-13.82,0.46H95.47c-1.61,0-5.7.71-6.43,2.43s0.65,2.08,2.41,2.08c8.6,0,17.25.34,25.84,0.11,3.66-.1,6.83-1,10.35-1.79a46,46,0,0,1,11.92-.74c4.8,0.21,18.78,2.5,17.57,9.84-1,6.31-10,4.7-13.72,3.35-7.16-2.59-13.51-2.73-21.08-2.7q-13.54.05-27.08,0c-7.95,0-15.92.5-23.86,0.44-3.48,0-8.49-.3-10.15-3.95-1.09-2.4-.42-5.63-0.33-8.15,0.07-2-9.55-.63-9.66,2.57h0Z"/></svg>