<svg id="Layer_1" data-name="Layer 1" xmlns="http://www.w3.org/2000/svg" viewBox="0 0 500 500"><defs><style>.cls-1,.cls-11{fill:#0b050c;}.cls-2{fill:#dfa874;}.cls-3{fill:#d97b51;}.cls-4{fill:#b5482f;}.cls-5{fill:#f16352;}.cls-5,.cls-6,.cls-7,.cls-9{opacity:0.89;}.cls-6{fill:#a63d36;}.cls-7{fill:#d08e88;}.cls-8{fill:#d8bab6;}.cls-9{fill:#a79999;}.cls-10{fill:#bcabaa;}.cls-11{stroke:#0b050c;stroke-miterlimit:10;}.cls-12{fill:#5f1e19;}.cls-13{fill:#0c050d;}</style></defs><title>globo</title><path class="cls-1" d="M293.47,169.25c2.23-9.61,4.51-19.35,4.58-29.26,0.07-9.74-2.76-18.32-6.09-27.35-7.65-20.72-4.16-41,.65-61.93,0.71-3.08-3.95-3.55-4.57-.85-4.31,18.77-8.74,38.66-3.08,57.64,2.69,9,7,17.39,8,26.86,1.19,11.44-1.51,23-4.08,34-0.71,3.08,3.94,3.54,4.57.85h0Z"/><path class="cls-1" d="M372.05,185.19c4.59-1.84,6-6.68,5.09-11.25-1.12-5.83-5.29-9.4-10.27-12.14-7.9-4.34-15.16-7.26-18.19-16.6-2.5-7.72-1.72-16,.34-23.72,2.18-8.18,5.63-15.95,7.89-24.1a79.84,79.84,0,0,0,2.94-23.25,82.39,82.39,0,0,0-14-44c-1.35-2-6.06-1.5-4.33,1.06a78.61,78.61,0,0,1,13.56,43.61c0.06,16.61-7.13,30.65-11,46.4-2.85,11.43-2.7,25,5.62,34.25,4.53,5,10.82,6.92,16.44,10.34,4.81,2.93,10.73,12.76,2.8,15.94-2.64,1.06,1,4.39,3.18,3.5h0Z"/><path class="cls-1" d="M150.25,233.73c-16.08-2.48-18.78-21.19-14.12-33.93,5-13.75,16.13-24.17,22.16-37.43,10.22-22.45,6.66-49.93-8.57-69.22-1.14-1.45-5.34,1.23-4.3,2.54,17.82,22.57,18.46,53.77,2.91,77.62-7.74,11.87-17.78,23.41-19,38.16-0.93,11.51,5.78,23.69,17.85,25.55,1.57,0.24,5.25-3,3.06-3.31h0Z"/><path class="cls-1" d="M169.48,8a47.06,47.06,0,0,0-8,40.14c3.87,15.33,14.57,24.56,27.67,32.36,7.4,4.41,15.13,8.65,21,15.15a46.52,46.52,0,0,1,10.32,19.85c3.55,14.38.81,30.09-8.38,41.82-0.5.64,4,1.92,4.73,1A49,49,0,0,0,226,118.8c-2.83-14.76-11.77-25.58-24.25-33.47-7.49-4.73-15.62-8.68-22.25-14.64a43.39,43.39,0,0,1-12.27-19.26C162.72,37.14,165,21,174.21,9c0.5-.65-4-1.92-4.73-1h0Z"/><path class="cls-2" d="M121.55,232.14l0.19-.4c0.69-1.4,1.44-2.77,2.24-4.11a64.45,64.45,0,0,1,5.07-7.24q0.58-.72,1.18-1.43l1-1.11c0.95-1,1.93-2.07,2.92-3.06,2.13-2.14,4.36-4.19,6.62-6.2,3.91-3.46,7.94-6.79,11.9-10.19,16.13-5.14,32.34-10,48.7-14.39q9.84-2.62,19.75-5a14.26,14.26,0,0,1-.88,8.71,9.37,9.37,0,0,1-5.86,4.9,52.89,52.89,0,0,0-7.42,7.79c-1.25,2.14-2.19,4.44-3.25,6.68-1.17,2.47-2.53,4.83-3.62,7.34-1.94,4.44-3.5,9.07-5,13.69a44.09,44.09,0,0,0-1.88,8.32c-0.31,2.88-.49,5.73-1,8.59-0.91,4.89-2.45,9.83-3.06,14.8,0,2.45.19,4.89,0.22,7.34a20.2,20.2,0,0,1-.52,4.81c-2.36-.14-4.73-0.22-7.1-0.23-1.45,0-2.4,2.12-2.77,3.14a14.29,14.29,0,0,0-.7,3.3q-3.73-.72-7.45-1.47c-7.77-1.57-15.55-3.17-23.26-5-9.37-2.36-18.41-5.69-27.65-8.46l-2.47-.71a34.8,34.8,0,0,0-.42-7,24,24,0,0,0-.53-2.53c0-.46,0-0.93.08-1.39,0.06-.82.13-1.65,0.2-2.47,0-.12,0-0.21,0-0.28s0.07-.35.07-0.36c0.23-1.74.51-3.47,0.86-5.19,0.08-.4.17-0.81,0.26-1.21,0-.13.12-0.46,0.18-0.69l0.08-.27q0.17-.61.36-1.21c0.53-1.75,1.18-3.45,1.87-5.15q0.43-1.07.88-2.13l0,0,0.22-.45Zm46.7,8.12,0.35-1.63a65.52,65.52,0,0,0-4.79,9.83c-0.13.49-.24,1-0.34,1.47a23.59,23.59,0,0,1,2.75.87A88.27,88.27,0,0,1,168.25,240.26Zm-33.31,6.57a24.81,24.81,0,0,1-2-2.41c-0.45.78-.9,1.57-1.35,2.34Z"/><path class="cls-2" d="M121.55,232.14l0,0Z"/><path class="cls-3" d="M277.6,217.09c1.56,5.39,2.74,10.71,2.6,16.37-0.28,10.75.07,21.53-.88,32.25-0.38,4.32-.88,8.55-2.56,12.39-19.38,0-38.77-.15-58-2.61-10.28-1.32-20.54-3-30.89-3.54a19,19,0,0,1-.46-2.1,12.81,12.81,0,0,1,3.43-11.4l0.95-1q0-1,.05-2a73.32,73.32,0,0,1,1.31-11.8c1.42-6.45,3.3-12.69,5.3-19,1.18-3.67,2.47-7.28,3.73-10.92,0.55-2,.87-4.13,1.4-6.19,0.76-2.91,1.8-5.71,2.78-8.55a38.49,38.49,0,0,1,2.17-5.79c1.13-2.27,3-5.31,5.47-6.42,0.32-2,.62-4,0.86-6,0-.11,0-0.22.05-0.33q8.09-2,16.22-3.8a4,4,0,0,0,2.71-2.61l0.66,0v0.21a1.07,1.07,0,0,0,.65.82,5.08,5.08,0,0,0,1.79.59,5,5,0,0,0,1.89,0,1,1,0,0,0,.88-0.58v-0.37a3.6,3.6,0,0,0,.54-0.38q6,0.35,12,.91a23.64,23.64,0,0,1,3.22,2,27.92,27.92,0,0,1,6.28,7.15,159.71,159.71,0,0,1,9.9,16.34A92.7,92.7,0,0,1,277.6,217.09Zm-42,42.13c-0.13-.46-0.25-0.93-0.36-1.39-0.91-3.67-1.86-7.31-2.89-10.95-0.61-2.17-1.25-4.33-1.9-6.49a96.87,96.87,0,0,1-.41,14.46c-0.15,1.1-.34,2.22-0.58,3.35a26.27,26.27,0,0,1,3.36.4C233.72,258.78,234.65,259,235.57,259.22Z"/><path class="cls-3" d="M241.22,172.38a1.7,1.7,0,0,1-.17,1l-0.31.51a3,3,0,0,1-.52.57l-0.54,0v-0.27a1.07,1.07,0,0,0-.65-0.82,5.08,5.08,0,0,0-1.79-.58l-0.61-.07,0.3-.5a3.85,3.85,0,0,1,1.61-1.25,2.84,2.84,0,0,1,1.75-.2,1.22,1.22,0,0,1,.93.95v0.7Z"/><path class="cls-3" d="M239.69,174.42l0.54,0a3.6,3.6,0,0,1-.54.38v-0.42Z"/><path class="cls-3" d="M239.69,174.83v0.37a1,1,0,0,1-.88.58,5,5,0,0,1-1.89,0,5.08,5.08,0,0,1-1.79-.59,1.07,1.07,0,0,1-.65-0.82v-0.21l2,0.09v0.14a1.22,1.22,0,0,0,.93.95,2.81,2.81,0,0,0,1.75-.2A4.62,4.62,0,0,0,239.69,174.83Z"/><path class="cls-3" d="M239.69,174.42v0.42a4.62,4.62,0,0,1-.55.29,2.81,2.81,0,0,1-1.75.2,1.22,1.22,0,0,1-.93-0.95v-0.14Z"/><path class="cls-3" d="M239.69,174.15v0.27l-3.23-.18v-0.56a1.71,1.71,0,0,1,.17-1h0l0.61,0.07a5.08,5.08,0,0,1,1.79.58A1.07,1.07,0,0,1,239.69,174.15Z"/><path class="cls-3" d="M236.64,172.67h0a1.71,1.71,0,0,0-.17,1v0.56l-2-.09v-0.84a1,1,0,0,1,.88-0.58A3.92,3.92,0,0,1,236.64,172.67Z"/><path class="cls-4" d="M373.3,257.82l0.22,0.65c-0.19,4.65-1.14,9.75-4.65,13.07-2.77,2.62-6,3.72-9.63,4.61-9.08,2.21-18.52,2.37-27.84,3.09-15.88-1-31.81-1.13-47.73-1.14h-7.1a17.54,17.54,0,0,1-2.13-6.06,11.49,11.49,0,0,1-.06-5.05,10.67,10.67,0,0,1,2.62-5.39c1-1.41,2.35-2.51,3.48-3.81,0.31-.56.59-1.14,0.84-1.73s0.25-1.31.33-2c0.12-3.78,0-7.59,0-11.36s0.3-7.53,0-11.26c-0.34-1.22-.77-2.42-1-3.67a54.78,54.78,0,0,1-.61-7.09c-0.32-1.52-.69-3-0.95-4.58-0.41-2.4-.59-4.79-0.86-7.19-0.15-.57-0.32-1.13-0.51-1.69a33,33,0,0,0-1.8-3.49l-2.3-3.49c-4.22-2.66-8.49-5.69-10.69-10.17-1.36-.93-2.71-1.86-4.08-2.78-1.6-.87-3.29-1.56-4.88-2.46a18.54,18.54,0,0,1-7.39-7.63,19.16,19.16,0,0,1-2.49-2.54c6.85,0.47,13.68,1.14,20.5,2.09,7.22,1,14.39,2.33,21.48,4l-1.14-.28c5.52,1.35,11,2.56,16.62,3.53,4.33,0.75,8.67,1.47,13,2.37,4.14,8,13.29,11.17,20.83,15.15,2.63,1.39,5.17,3,7.68,4.62,1,1.07,1.91,2.17,2.8,3.3a11.48,11.48,0,0,1-2.19,3.87,6.47,6.47,0,0,1-1,.9,164.77,164.77,0,0,1,13.42,11.13l0.07,0.11c2.54,4.15,5.27,8.15,8,12.14q1.37,2,2.7,4Q368,244,369,246.5l0.49,1.17,0.07,0.17,0.08,0.21c0.38,1,.77,2,1.14,2.95C371.67,253.26,372.49,255.54,373.3,257.82ZM348.87,250c-0.85-1-1.75-2-2.68-3a176.9,176.9,0,0,0-13.83-11.48l-2-1.51,0.09,0.64a90.39,90.39,0,0,1,.7,11.83c0,1.8-.08,3.6-0.13,5.41,2.46-.17,4.92-0.34,7.37-0.56C341.84,251,345.41,250.69,348.87,250Zm-44.11,5,0.41-.07-0.41-.15V255Z"/><path class="cls-5" d="M280.46,440.54c-1.45-1.79-3.54-2.23-5.7-2.49a52.77,52.77,0,0,1-13.12-3.11,23.35,23.35,0,0,0-6.51-2c-2.68-.25-5.39-0.17-8.08-0.16s-5.6-.07-8.39-0.18a3.55,3.55,0,0,0-.43-0.18,11.12,11.12,0,0,0-6.1-.11l-0.65,0c-2.69-.11-5.58-0.37-8.14.62a15.3,15.3,0,0,0-3.19,2.07c-1,.7-2,1.28-3,2a4.19,4.19,0,0,0-2.52-1.33l-0.55-.05a3.53,3.53,0,0,0-2.63.73,23.31,23.31,0,0,1-2.4.14,2.45,2.45,0,0,0-.82.13c-2,.09-3.21,2.23-3.13,4.15a6,6,0,0,0,4.42,5.58c4.48,1,8.84,2.84,13.29,4.08,4.63,1.29,9.37,2,14,3.32s10,0.75,14.83.71c2.28,0,4.57,0,6.84-.16a30.34,30.34,0,0,0,7.15-1.62c4.29-1.29,8.58-2.53,12.87-3.81C282.25,447.71,282.88,443.51,280.46,440.54Z"/><path class="cls-6" d="M287,463.71a6.91,6.91,0,0,0-2.43-2.56,16.19,16.19,0,0,0-.67-3.06c-0.9-3-1.67-6.07-2.58-9.08-0.58-1.9-1.27-3.84-2.88-5.12a4.54,4.54,0,0,0-5.36-.26c-2.63,1.48-5.1,3.18-7.75,4.64s-5.17,3.25-8,3.9c-3.23.75-6.8-.36-10,0.46a3.81,3.81,0,0,0-2.88,3.92c-0.81,2,0,4.14.92,6,1.54,3,3.37,5.84,4.81,8.91,1.18,2.51,1.44,5.77,1.41,8.89a19.18,19.18,0,0,0,.16,5c0.72,2.71,3.33,5.22,6.26,4.4a18.75,18.75,0,0,0,4.11-2.1c1.6-.93,3.21-1.84,4.78-2.8a36.2,36.2,0,0,0,5.22-3.7c1.45-1.29,2.7-2.77,4.11-4.11a65.59,65.59,0,0,1,9.56-7C288,468.63,288.11,465.87,287,463.71Zm-25.83,12.73-1.43.84a27.25,27.25,0,0,0-1.31-6.32,43,43,0,0,0-3.35-7h0.72q0.69,0.49,1.42.92t1.62,0.9a10.92,10.92,0,0,0,.29,7.19,5.49,5.49,0,0,0,3.08,2.89Z"/><path class="cls-7" d="M255.19,488.3c-0.46-4.58-2.63-8.95-4.4-13.12-1.94-4.58-3.93-9.16-5.81-13.76a2.38,2.38,0,0,0-.15-0.29,4,4,0,0,0,.52-0.68c1-1.62-.57-4-2.21-4.33a2,2,0,0,0-.69,0l0-.15a4.35,4.35,0,0,0-1.36-2.63c-1.33-1.13-3.19-.77-4.82-1-3.36-.54-6.35-2.29-9.57-3.34-3.59-1.17-7.35-2.11-11-3-2.53-.61-5.9-1.74-8.75-1.51-1.3-1.22-3.58-1.17-3.73,1.37-0.44,7.29,0,14.64.09,21.94a57.38,57.38,0,0,0,.71,10.84,26.42,26.42,0,0,0,2.84,7c1.55,2.9,3.46,4.43,6.75,4.83a38.38,38.38,0,0,0,4.67.18c1.73,0,3.53.18,5.25,0.1,3.18-.15,2.35-5.95,2-8a73.48,73.48,0,0,0-2.71-10.22c-0.33-1.1-.68-2.2-1-3.31,0-.14,0-0.27,0-0.39a88.73,88.73,0,0,0-1-9.56,4.42,4.42,0,0,0-1-2.27A2.74,2.74,0,0,0,220,456a41.47,41.47,0,0,0,7.84,2.66,10.22,10.22,0,0,0-4.3,2c-1.29,1.22-.27,3.32.72,4.27s3,0.86,4.47.84c0,0.26,0,.51,0,0.77-0.28.22-.56,0.43-0.84,0.63-1.21.87-3.22,1.89-3.35,3.57a3.77,3.77,0,0,0,1.45,3.37,3.91,3.91,0,0,0-.21,2.58,4,4,0,0,0,1.28,2.1l0,0.08a5.23,5.23,0,0,0-.55,2.83,4.23,4.23,0,0,0,1.55,2.8,3.66,3.66,0,0,0,.77.45c0.25,1.52,1.75,3,3.06,2.81a3.32,3.32,0,0,0,1.8,3.48c1.86,0.7,4.28.4,6.25,0.4a32.44,32.44,0,0,1,7.06.53c1,0.22,1.88.71,2.87,0.92a5.52,5.52,0,0,0,2.85-.23C255,492.26,255.41,490.52,255.19,488.3ZM207.64,455a2.38,2.38,0,0,0,.34.12l0,0-0.3.34C207.64,455.36,207.64,455.18,207.64,455Zm3.54,29.44a14.62,14.62,0,0,1-2.09-4.2,18.55,18.55,0,0,1-1.06-4.89c-0.32-4-.26-8.07-0.27-12.1a5.11,5.11,0,0,0,1,.13,22.37,22.37,0,0,0-.41,5.72,7.46,7.46,0,0,0,.55,2.47c0.28,0.66.81,1.17,1.13,1.77-0.27-.44,0,1.22,0,1.5a23.66,23.66,0,0,0,.27,2.53,14.1,14.1,0,0,0,1.69,4.54c0.36,0.65.74,1.29,1.12,1.93,0.13,0.22.59,1.11,0.79,1.39A4.1,4.1,0,0,1,211.18,484.45Zm3.34-11.33a5.45,5.45,0,0,0-.13-0.63,3.82,3.82,0,0,0-.46-1l0.6,0.06C214.52,472.07,214.52,472.6,214.52,473.13Zm0-7.16h-0.19l0.1-.21,0.07-.13,0,0.07V466Zm33.36,21.2-0.75-.2a3.08,3.08,0,0,0-2.37-2.85l-0.68-.08a3,3,0,0,0-2.9-2.32l-2.34,0c0-.38,0-0.76,0-1.14,0-2.57-.06-5.15-0.08-7.72,0-2-.06-4-0.16-5.92a2.18,2.18,0,0,0,.93-2,5.55,5.55,0,0,0-.14-1.06,2.06,2.06,0,0,0,1.93.66l0.25-.07c1.71,4.13,3.51,8.23,5.22,12.36a65.16,65.16,0,0,1,2.52,6.21,20,20,0,0,1,1.27,4.71A6.42,6.42,0,0,1,247.88,487.16Z"/><path class="cls-8" d="M231.76,482.08a24.68,24.68,0,0,1-1.42-3.39c-0.45-1.76-.79-3.52-1.08-5.3,0-1,.09-2.08.09-3.17a36.62,36.62,0,0,0-.38-5.73,2.17,2.17,0,0,0,.73-1.85c0-2.81.11-5.65,0-8.46a5.35,5.35,0,0,0-3-5c-1.86-.84-5.2-1.21-5.66,1.41-0.43,2.4.08,4.92,0.28,7.31a71.16,71.16,0,0,0,2.4,14.4c0.62,2.09,1,4.24,1.67,6.32a64.12,64.12,0,0,1,2.4,7.73c0.49,2.64,4.59,3.43,4.51.13A11.25,11.25,0,0,0,231.76,482.08Z"/><path class="cls-8" d="M272.54,469.39c-0.6-1.91-1.4-3.77-1.92-5.7-0.47-1.71-.89-3.44-1.34-5.15-0.28-1.06-.57-2.1-0.92-3.14a15.8,15.8,0,0,1-1-3.13,3.33,3.33,0,0,0-2.44-3.08,1.84,1.84,0,0,0-2,1.14,2.42,2.42,0,0,0-.77,2.69c1.38,3.9,2.14,8.08,3.44,12,0.59,1.8,1.26,3.54,1.93,5.32,0.32,0.85.7,1.62,1,2.48,0.18,0.51.42,1.24,0.22,0.28a7.44,7.44,0,0,0,.51,1.68c0.83,1.79,3.71,2.51,4.2.09C273.8,473,273.09,471.13,272.54,469.39Z"/><path class="cls-9" d="M274.1,470c0-2.5-1.09-4.86-2.14-7.09-0.56-1.18-.92-2.42-1.44-3.63s-1.28-2.55-1.82-3.87l-0.18-.41a15.88,15.88,0,0,0-2.11-6.46c-0.79-2.16-3.44-3.79-5.55-4.1l-0.35,0a11.1,11.1,0,0,0-1.51-.7,16.81,16.81,0,0,0-5.87-.68,16.9,16.9,0,0,0-1.86-.59,23.57,23.57,0,0,0-2.72-.14,6.94,6.94,0,0,1-.73-0.13c1.7-.36,3.35-0.49,4.88-1.72,2.13-1.71-1.08-6.24-3.49-4.31a4.47,4.47,0,0,1-2.37.56,15,15,0,0,0-3.33,1,15,15,0,0,1-2.93.72,26.19,26.19,0,0,0-2.66.92c-1.13-.4-2.28-0.68-3.5-1.08a46.4,46.4,0,0,1-5.18-1.94c-1.68-.8-3.57-1.21-5.28-2-3.18-1.51-3.45,3.74-.92,4.94,1.66,0.79,3.44,1.27,5.14,1.92-0.46-.16.37,0.25,0.64,0.38a8.43,8.43,0,0,0,1.35.54l1.3,0.44a11.13,11.13,0,0,1-2.19.74c-0.68.12-1.37,0.07-2.06,0.23a15.89,15.89,0,0,1-4.25.81c-1.35,0-2.64.22-3.32,1.53a3.19,3.19,0,0,0,.56,3.28l0.18,0.19c0.86,0.89,2.22,1.58,3.27.54a1.7,1.7,0,0,0,.21-0.26,19.2,19.2,0,0,0,2.76-.09,29.31,29.31,0,0,1,3.71-.88,15.47,15.47,0,0,0,4.24-1.29,38.12,38.12,0,0,0,3.53-2.39,1.9,1.9,0,0,0,.39,0,9.27,9.27,0,0,0,1.16.64,4,4,0,0,0,1.66.24,3.24,3.24,0,0,1,.86-0.06,2.71,2.71,0,0,0,1.4.47,17.68,17.68,0,0,0,7.37,1.51c1,0.1,2,.64,3,0.7,1.78,0.1,3.31-.08,5,0.67a15.93,15.93,0,0,1,2.15,1.22,4.15,4.15,0,0,0,0,1.51,6.91,6.91,0,0,0,1.34,2.63,8,8,0,0,1,.93,2.77c0.48,2.32,1.51,4.36,2.13,6.61,0.31,1.13.82,2.19,1,3.34a16.1,16.1,0,0,0,.79,3.47,13.65,13.65,0,0,0,.76,1.46l0.23,0.38s-0.05,0,0,.26c0.23,1.18.15,2.08,1,3.07s2.14,1.45,3.27.54C274.38,474.87,274.07,472.08,274.1,470Z"/><path class="cls-10" d="M260.69,444.8c-1.4-.39-2.76-1.07-4.16-1.49s-2.9-.88-4.32-1.4a8.72,8.72,0,0,0,1.69-.77c2.15-1.45,1.58-4.68-.57-5.85-1.44-.79-4-0.47-5.58-0.15a28.07,28.07,0,0,0-6.32,2.42c-1,.48-2,0.95-3,1.42a15.46,15.46,0,0,0-2.2-.82c-1.79-.54-3.58-1.17-5.41-1.57-3.4-.75-6.57-2.75-10-3.21-3.27-.44-2.46,5,0.26,5.32,3.28,0.44,6.31,2.26,9.52,3.09-0.58.2-1.18,0.37-1.79,0.53a22.08,22.08,0,0,1-4.88,1.07,1.46,1.46,0,0,0-1.43.88c-3,.14-1.29,5.46,1.46,5.36a17.55,17.55,0,0,0,4-1l4.33-1.24a39.52,39.52,0,0,0,6.7-2.44l0.34-.17a5.71,5.71,0,0,0,1.46.42h0a3.43,3.43,0,0,0,.72.27,19.45,19.45,0,0,0,4.67.08c1.95,0,3.38.67,5.18,1.31s3.47,1.17,5.22,1.7c1.49,0.46,2.91,1.13,4.4,1.55s2.22-1.1,2.18-2.25A3.35,3.35,0,0,0,260.69,444.8Z"/><path class="cls-1" d="M120.22,264.31c1.5-21,12.67-39.73,28.29-53.46,17.81-15.66,41-23.77,64.06-27.89,45-8.06,96.91-6.6,128.64,31a99,99,0,0,1,23.63,62.4c0,2.45,5,2.82,5,.41-0.46-44-30.86-83.81-73-96.12-24.7-7.22-51.39-6.23-76.63-2.69-24.5,3.44-49.46,10.52-69.51,25.57C131.4,218,117,239.46,115.24,263.9c-0.17,2.43,4.81,2.85,5,.41h0Z"/><path class="cls-1" d="M118.25,263.9a663.36,663.36,0,0,0,196.25,19.63q27.33-1.38,54.48-5c0.79-.11-2.25-3.31-3.71-3.12a660.88,660.88,0,0,1-193.63-2.88q-28-4.59-55.61-11.64c-2.39-.61,1.09,2.74,2.21,3h0Z"/><path class="cls-1" d="M222.55,179.26c-14.1,7.89-18.76,25.16-23.79,39.4-6.58,18.65-11.7,38.09-9.41,58,0.14,1.2,5,.21,4.83-1.3-2.12-18.46,2.2-36.51,8.12-53.89,4.71-13.83,9.36-33.57,23.11-41.27,2.81-1.57-1.56-1.69-2.87-1h0Z"/><path class="cls-1" d="M249.25,179.1c19.41,7.11,27.56,28.16,29.66,47.16a193.62,193.62,0,0,1,.91,28.82c-0.38,9.53-2,19.06-7.76,26.91-0.72,1,3.92,2.34,4.66,1.32,5.85-8,7.63-17.57,8-27.32a172.79,172.79,0,0,0-1.64-34.25c-3-18.58-12.55-36.8-31.1-43.59-1.25-.46-5.72-0.14-2.74,1h0Z"/><path class="cls-1" d="M200.21,438.28a149.7,149.7,0,0,0,2.73,27.39c0.93,4.86,2.08,9.68,2.75,14.58,0.42,3.1.73,5.63,2.56,8.25s4.3,0.68,2.54-1.83-1.7-7.94-2.29-11c-0.72-3.8-1.56-7.57-2.25-11.37a141.06,141.06,0,0,1-2.18-24.4c0-2-3.88-4.58-3.86-1.58h0Z"/><path class="cls-1" d="M200.5,441.63c6.92,5.77,16.35,7.75,24.94,9.94A102.85,102.85,0,0,0,238,453.74c4.23,0.55,5.18,2.21,5.74,6.09a78.63,78.63,0,0,0,1.53,8.11c1.1,4.32,2.56,8.54,4,12.74,1,2.87,2.81,7.45-1.19,8.5-2.06.55-4.81-.1-6.9-0.32a91.42,91.42,0,0,1-13.53-2.74c-4.55-1.18-9.35-.6-14-0.35-1.86.1-4.9,3.76-2,3.6a83.34,83.34,0,0,1,9.45-.32c3.19,0.19,6.18,1.35,9.29,2,5.1,1.11,10.75,2.14,16,1.75,3-.22,6.59-1.11,8.42-3.67,2.74-3.83-.49-9-1.81-12.75a102.24,102.24,0,0,1-4.78-19.24c-0.65-4.55-2.07-6.13-6.65-6.83a143.92,143.92,0,0,1-18.47-3.71c-6.71-1.95-13.41-3.59-18.85-8.12-1.47-1.23-5.51,1.66-3.77,3.1h0Z"/><path class="cls-1" d="M246,454.9a44.86,44.86,0,0,0,21.65-5.46c2.49-1.29,4.68-3.29,7.1-4.53q1.72-2.22,1.85.66,0.54,1.49,1,3,0.89,2.8,1.58,5.66a33,33,0,0,1,.64,5.09c0.2,2.22,1,3.24,1.49,5.35,1,4.48-3.29,5.91-6.32,7.87-3.69,2.38-6.88,4.8-10.9,6.68-3.22,1.5-5.46,5.6-8.89,6.39s-0.54,2.33,1.59,1.83c4-.91,5.45-3.46,8.53-5.78,2.21-1.67,5.12-2.25,7.46-3.75,2.07-1.32,3.85-3,5.91-4.38,2.49-1.62,6.14-2.94,7.38-5.91,0.73-1.75.24-3.26-.34-5-0.87-2.58-.72-4.23-1.08-6.81-0.77-5.49-2.31-16.15-10-14-3.13.89-5.28,3.63-8,5.18-6.28,3.5-12.36,5.65-19.63,5.63-2.2,0-4.44,2.19-1,2.2h0Z"/><path class="cls-1" d="M205.59,440.83c4.09-3.46,11.48-4.16,16.58-5.85,4.25-1.41,8.73-3,13.26-2.21,3.45,0.57,6.48,2.16,9.76,3.25,9.39,3.15,19.24,3.65,28.77,5.73,1,0.22,5-1.05,4.17-1.23-7.27-1.59-14.65-2.29-22-3.94C249,435,242.46,431.16,235,431.21c-6.16,0-11.57,2.22-17.35,4-5.61,1.76-12.2,2.28-16.83,6.19,0.19-.16,3.72.3,4.79-0.61h0Z"/><path class="cls-1" d="M115,262.5c-0.41,6.09,4,11.6,7.3,16.34,5,7.1,9.79,14.13,14.3,21.54,8.84,14.53,17.65,29,24.72,44.53q10.73,23.49,20.61,47.41c3.2,7.76,6.86,15.21,10.25,22.87,3.62,8.17,5.84,17.05,7.94,25.71,0.55,2.26,5.53,2.38,4.92-.14a175.44,175.44,0,0,0-7.37-24.51c-2.76-6.81-6.53-13.13-9.18-20-6.14-15.91-13.22-31.62-20.23-47.17a408,408,0,0,0-23.68-44.15c-4.39-7.23-8.62-14.54-13.57-21.4-2.44-3.38-5-6.72-7.19-10.25-1.75-2.79-4.13-6.6-3.9-9.93,0.16-2.45-4.77-3.24-4.93-.84h0Z"/><path class="cls-1" d="M364.16,276.75c-2.41.71-3.25,2.8-4.5,4.83a108.28,108.28,0,0,0-6.76,12.07c-3.53,7.82-6.8,15.75-10.54,23.48-7.53,15.54-18.6,28.45-27.27,43.28-8.2,14-13.29,29.39-19.13,44.46a112.14,112.14,0,0,0-3.52,11.23c-1.12,4.1-1.94,9.26-4.34,12.84-3.61,5.4-7.77,8.94-12.6,13.16-1,.83,3.54,2.11,4.74,1.07,2.23-1.94,4.63-3.32,6.69-5.5a69.4,69.4,0,0,0,5.17-6.76c4.39-6,4.86-14.34,7.13-21.28,2.43-7.43,5.51-14.69,8.46-21.93,3.29-8.09,6.35-16.18,10.71-23.78,8.4-14.62,19.46-27.36,27.07-42.44,3.87-7.66,7.22-15.56,10.68-23.41a92.87,92.87,0,0,1,5.3-10.74c1.19-2,3.62-8,6.07-8.71s-2-2.27-3.36-1.88h0Z"/><path class="cls-1" d="M267.21,284.31c-0.34,13.44-7,25.9-9.35,39-2.65,14.93-5.06,30.25-6.55,45.33s-0.92,30.13-1,45.22c0,7.48-2.51,13.32-4.57,20.34a65,65,0,0,0-2.46,19.68c0,1.16,4.46,2.06,4.46,2.25a63.94,63.94,0,0,1,2.46-19.68c2-6.65,4.44-12.27,4.57-19.36,0.29-15.42-.53-30.81,1-46.2,1.46-14.82,4-29.71,6.4-44.4,2.2-13.46,9.15-26.19,9.5-39.94,0-1.13-4.47-2.11-4.46-2.25h0Z"/><path class="cls-1" d="M181.83,276.8c6.4,8.18,10.36,19.26,14.26,28.74,5.83,14.19,11.11,28.64,17.48,42.6,3.16,6.92,6.73,14.12,9.12,21.35,2.21,6.71,3.25,13.81,4.42,20.75s0.86,13.73,2,20.52c1.18,7.24,3.29,14.35,4.27,21.59,0.28,2.07,5,3,4.63.31-1-7.26-3.14-14.33-4.27-21.59s-0.93-14.94-2.31-22.35-2.33-15-5.2-22.11c-2.62-6.44-5.53-12.79-8.41-19.12-7-15.31-12.61-31.2-19.16-46.69-3.65-8.64-7.45-18.11-13.27-25.55-1.47-1.88-5.53-1-3.52,1.55h0Z"/><path class="cls-11" d="M232.69,485a14.5,14.5,0,0,1-.84-4.78c0-1.49-.45-2.94-0.62-4.42a48.66,48.66,0,0,1-.09-5.28,60.86,60.86,0,0,0-.56-11.29,33.18,33.18,0,0,0-1-4.32,15.1,15.1,0,0,1-.33-1.7c-0.17-.8-0.58-1.5-0.72-2.34-0.06-.4-1.77-0.36-1.75-0.22,0.34,2.13,1.4,4.12,1.65,6.27a72.51,72.51,0,0,1,.93,7.91c0,3.05-.07,6.1,0,9.15a21.18,21.18,0,0,0,.56,4.26c0.3,1.38.09,2.79,0.33,4.19,0.19,1.1,2.54,6.48.6,6.83-1.33.24-2-1.06-2.34-2-0.45-1.22-1.24-2.32-1.67-3.54-0.95-2.65-1.68-5.51-2.5-8.21-0.35-1.16-.42-2.35-0.8-3.5a24.42,24.42,0,0,1-.87-4.44,27.46,27.46,0,0,1-.48-4.88,15,15,0,0,0-.32-4.63c-0.82-2.94.43-6.23-.82-9-0.2-.44-1.74-0.22-1.75-0.22,1.23,2.76-.08,5.9.73,8.76a14.14,14.14,0,0,1,.41,4.58,29.12,29.12,0,0,0,.47,5.21,49.7,49.7,0,0,0,2.1,9.2c1,2.8,1.47,5.79,2.76,8.44,0.25,0.52.49,1.06,0.73,1.59s0.33,1.26.6,1.74c0.41,0.75,1.23.8,2,1,1.25,0.32,3.67,1.37,4.11-.5A7.1,7.1,0,0,0,232.69,485Z"/><path class="cls-11" d="M273.6,470c-0.78-2.13-1.93-4.17-2.53-6.35-0.4-1.43-1-2.81-1.35-4.26s-0.45-3.07-.73-4.58c-0.22-1.19-.7-2.25-0.88-3.45a3.62,3.62,0,0,0-.88-2c-0.46-.54-1.52-0.82-0.74.1,0.49,0.58.53,2.43,0.83,3.26a25.89,25.89,0,0,1,.9,4.83,24.16,24.16,0,0,0,1.08,3.78,32.18,32.18,0,0,0,1.11,3.42c0.53,1.18.93,2.39,1.46,3.57a10.12,10.12,0,0,1,1.12,3.89c0,1.47-.77,2.26-1.78,3.2-0.3.28-.77,0.89-1.26,1.28-0.11-.28-0.28-0.59-0.34-0.84a8.11,8.11,0,0,0-.49-1.5,34,34,0,0,1-3-7.88c-0.49-2.4-1.4-4.64-2.07-7a30.31,30.31,0,0,1-1.21-8.13,2,2,0,0,0-1.25-1.11c-0.29-2.06-1.92-2.65-4.13-3.15a45.87,45.87,0,0,0-4.87-.44c-1.88-.21-3.79-0.48-5.65-0.8s-3.69-.54-5.5-0.88c-1.29-.24-2.46-0.74-3.78-0.38a17.85,17.85,0,0,0-3.78,1.79c-0.73.41-1.5,0.69-2.24,1.08s-1.85,1.38-2.74,1.38c-1.07,0-1.15,1.17-.06,1.17a4.84,4.84,0,0,0,2.76-.94c1.2-.73,2.49-1.26,3.71-1.93,1.42-.78,2.9-1.6,4.57-1.33,1.36,0.22,2.75.39,4.1,0.62,2.83,0.49,5.63,1.11,8.5,1.42,1.29,0.14,2.61.13,3.89,0.28a9.18,9.18,0,0,1,2.29.61,2.05,2.05,0,0,1,1.23,2.29c0,0.68,1.26.84,1.65,0.37a25.72,25.72,0,0,0,.94,6.32c0.71,2.44,1.76,4.86,2.24,7.35a38.62,38.62,0,0,0,2.31,7.08c0.32,0.79.85,1.5,1.13,2.28s0.34,1.72.62,2.53a1.78,1.78,0,0,0,1.72,1.33,3.69,3.69,0,0,0,1.5-1.18,8.83,8.83,0,0,0,2-2.11C274.77,473.42,274.16,471.54,273.6,470Z"/><path class="cls-11" d="M232,441.32a29.24,29.24,0,0,1-4.64-1.42c-1.51-.5-3.06-0.71-4.56-1.28a36.17,36.17,0,0,0-4.47-1.34c-1.35-.33-2.38-1.12-3.8-1.14-0.83,0-.26,1.64.5,1.65,1.28,0,2.7.92,4,1.21a37.21,37.21,0,0,1,4.5,1.45c1.51,0.54,3.1.72,4.59,1.3l0.51,0.19c-0.47.13-.94,0.27-1.42,0.36a31.62,31.62,0,0,0-4.23.94c-2,.71-4.2,1.95-4.16,4.35,0,0.84,1.34,1.47,1.31.32,0-2.32,4-3.28,5.65-3.62,1-.21,2.1-0.33,3.13-0.6a13.73,13.73,0,0,1,3.43-.73C233.17,442.94,232.6,441.41,232,441.32Z"/><path class="cls-11" d="M267.46,448.42a1.43,1.43,0,0,0-.72-0.91c-0.57-.19-1.08-0.9-1.66-1.18-1-.47-2-0.92-3-1.37a22.89,22.89,0,0,0-5.87-1.47c-2-.33-3.87-0.8-5.81-1.25-0.45-.11-0.89-0.22-1.33-0.35a10.65,10.65,0,0,0,2.42-.44,20.94,20.94,0,0,0,2.53-.81,10,10,0,0,0,2.57-1.36c0.52-.49-0.62-1.82-1.13-1.35-1.19,1.1-3.35,1.58-4.85,2a10.05,10.05,0,0,1-2.55.45c-1.25.08-2.44,0.47-3.71,0.47-0.91,0-.05,1.47.58,1.5a28.82,28.82,0,0,1,5.63,1.29c1.87,0.47,3.7.84,5.59,1.19a24.85,24.85,0,0,1,6.46,1.64c0.73,0.35,1.5.67,2.21,1a15.51,15.51,0,0,0,2.12,1.37c0.43,0.14.56-.07,0.51-0.38h0.05C267.63,448.56,267.58,448.5,267.46,448.42Z"/><path class="cls-11" d="M244,437.15a12.8,12.8,0,0,1-9.95.79,13.3,13.3,0,0,1-3.86-1.46c-1.1-.64-2.19-1.31-3.27-2a4.59,4.59,0,0,0-2.2-.94,8.88,8.88,0,0,0-1.56.68c1.06,0,2.07.89,2.95,1.4,1.08,0.63,2.12,1.36,3.25,1.91a14.8,14.8,0,0,0,3.14,1.06,15.45,15.45,0,0,0,2.89.63,18.18,18.18,0,0,0,5.53-.58c2.07-.58,3.71-1.87,5.94-1.83a9.29,9.29,0,0,0,1.56-.68A9.42,9.42,0,0,0,244,437.15Z"/><path class="cls-2" d="M210.34,182.59c-1.64.23-2.46,1.52-3.31,2.8-1.26,1.92-2.42,4-3.58,5.94-0.58,1-1.83,3.34-1.35,4.7-1,1.73-3,3-4.27,4.49-0.66.78-1,1.74-1.58,2.55-0.41.56-.89,1-1.32,1.58a1.81,1.81,0,0,0-.24-0.94,21.66,21.66,0,0,0,2.61-4.88,1.37,1.37,0,0,0,0-.81c1-1.36,2.4-2.81,2.92-4.41,0.43-1.34-1.73-2.75-2.27-1.08a11,11,0,0,1-1.68,2.32c-0.68,1-1.36,1.92-2.09,2.85a30.9,30.9,0,0,0-3.43,4.85,1.58,1.58,0,0,0,.45,1.8c-0.16.28-.31,0.57-0.45,0.86a1.23,1.23,0,0,0-.1.67c-0.24.23-.49,0.46-0.73,0.71a12.48,12.48,0,0,0-1,1.23,6.18,6.18,0,0,0-1.32,1.91c-0.48,1.18,1,2.94,2,1.81-0.13.4-.34,1.15-0.62,1.9a4.41,4.41,0,0,0-2.3,2.59c-1.58,1.14-3.07,2.46-3.44,4.45-0.15.81,0.61,2.05,1.51,1.88a1.94,1.94,0,0,0,.95,1.6c-0.39.91-.86,1.8-1.2,2.57a1.79,1.79,0,0,0,.67,1.93l-0.53.77c-0.21.32-.43,0.64-0.65,0.95-1.29,1.51-2.55,3-3.71,4.67a1.85,1.85,0,0,0,.44,2.19,3.77,3.77,0,0,0-.25.7c-0.2.84,0.8,2.36,1.77,1.79,0.18-.11.35-0.22,0.52-0.34a5.58,5.58,0,0,0-1.14,2.23,1.72,1.72,0,0,0,.67,1.64c0,0.1,0,.19,0,0.29a1.55,1.55,0,0,0,1.52,1.55c1.32-.2,1.85-1.61,2.61-2.56s1.43-1.76,2.09-2.68a14.11,14.11,0,0,0,1.49-2.39,3.08,3.08,0,0,0,.95-2.31,1.65,1.65,0,0,0-.05-0.32l0.05-.07a14.93,14.93,0,0,0,2.93-5.56,3,3,0,0,0-1.6-3.9,3.41,3.41,0,0,1-.87-0.25,4.36,4.36,0,0,1-.12-2,20.76,20.76,0,0,1,.63-3.21c0.56-2.16,1.8-4,2.45-6.09,0.8-2.6,1.27-5.46,3.08-7.57,1.34-1.57,2.24-3.32,3.71-4.8s3-2.82,3.7-4.9a1.54,1.54,0,0,0-.29-1.25c0.05-.12.11-0.25,0.17-0.37s0.28-.52.42-0.78c0.52-.94,1.09-1.84,1.66-2.75,0.7-1.11,1.29-2.28,2-3.39,0.55-.89,1.24-2.28,2.37-2.44C212.57,185.06,211.71,182.4,210.34,182.59ZM191.46,228a12.66,12.66,0,0,1-2.3,4.32,4.56,4.56,0,0,0-.44-0.87,8.55,8.55,0,0,0,1.16-3.09,1.62,1.62,0,0,0-1.21-1.84,3.63,3.63,0,0,0-.1-1.5,2.07,2.07,0,0,0-.38-0.68,7.6,7.6,0,0,0,.44-2.63l0.34-.42a10,10,0,0,0,.09,3.84,3.22,3.22,0,0,0,1.17,2,3,3,0,0,0,.89.4C191.92,227.72,191.63,227.38,191.46,228Zm-0.32-13.51c0.24-.69.45-1.33,0.64-1.81a7.18,7.18,0,0,1,.39-0.79c-0.08.26-.17,0.52-0.27,0.78C191.67,213.29,191.41,213.89,191.15,214.48Z"/><path class="cls-2" d="M170.62,263.56c0-.1-0.07-0.12-0.08-0.11l0,0.08Z"/><path class="cls-2" d="M184.64,267.07a8.93,8.93,0,0,1-1.55-.15,2.81,2.81,0,0,1-1-.6,7.88,7.88,0,0,0,1.71-2,1.59,1.59,0,0,0-1.4-2.17,9.5,9.5,0,0,0-5.11,1.77,2.39,2.39,0,0,0-1-.45,11.55,11.55,0,0,0-2.84.11c-0.58,0-1.17.1-1.75,0.09a4.41,4.41,0,0,0-.82,0,0.47,0.47,0,0,1-.29,0,1.78,1.78,0,0,1,.07.45,1.45,1.45,0,0,0-.11-0.47,0.07,0.07,0,0,1,0-.08c-0.53-1.08-2.26-1.45-2.16.14a2.85,2.85,0,0,0,2.66,2.64,14.5,14.5,0,0,0,2.5.14,4.87,4.87,0,0,0-2,2.43c-0.18.76,0.57,2.1,1.49,1.88a24.4,24.4,0,0,0,3.6-1.2c0.84-.35,2.81-1.66,3.73-1.52s1.54,1.19,2.4,1.48a5.37,5.37,0,0,0,1.16.26l0.54,0h0.06c0.64,0.83,2,1,2-.45A2.17,2.17,0,0,0,184.64,267.07Z"/><path class="cls-2" d="M148.81,259.2c0.22-1.1.58-2.19,0.75-3.3,0.2-1.37-2-2.81-2.27-1.08-0.28,1.93-3,9.38.85,9.61,1.43,0.09,1.31-1.91.36-2.5,0-.24,0-0.54,0-0.62A16.72,16.72,0,0,1,148.81,259.2Z"/><path class="cls-3" d="M209.76,242l0.52-.62c1.53-1.74,2.93-3.43,3-5.86,0-1.5-2.28-2.25-2.31-.42,0,2.4-3.07,4.93-4.54,6.66a24.74,24.74,0,0,0-3.3,4.15c-1.16.6-2.34,1.16-3.53,1.67a16.25,16.25,0,0,1-1.92.75c-0.31-.23-0.27-1.85-0.29-2.17-0.14-2.14,0-4.28.06-6.42,0-1.5-2.3-2.25-2.31-.42a53,53,0,0,0,.13,8.18c0.21,1.41.76,3,2.34,3.34s3.69-.87,5.25-1.73a1.14,1.14,0,0,0,1.16.58,23,23,0,0,0,3.47-1.53,1.19,1.19,0,0,0,.34-1.71c1-.56,1.91-1.16,2.83-1.81S210.78,241.9,209.76,242Z"/><path class="cls-4" d="M261.48,189.26c-0.15-1.3-2.17-2.68-3.08-3.47a1.17,1.17,0,0,0-1.31-.08,18.81,18.81,0,0,0-3.56-2.32c-0.39-.19-1.65-0.24-1.07.5s1.81,1.14,2.43,1.82c-0.88-.28-1.67-0.9-2.51-1.2a11.4,11.4,0,0,1-2.76-.9,0.35,0.35,0,0,0,0-.57,7.08,7.08,0,0,0-1.21-.95,8.27,8.27,0,0,0,1.24-.75c0.59-.43-0.93-1-1.24-0.92l-0.45.11,0.25-.07c0.29-.09.22-0.35,0.09-0.55a1.21,1.21,0,0,0,.16-0.49,0.7,0.7,0,0,0-.46-0.65,3.54,3.54,0,0,0-1.69-.35l-0.06,0a4.1,4.1,0,0,0-1-.52,1.07,1.07,0,0,0-1.12-.75c-1.49,0-2.84.66-4.35,0.74a29.86,29.86,0,0,0-4.21.44A31.43,31.43,0,0,0,231,179.5l-0.18,0c-1.25.19-3.4,0.1-4.22,1.23-0.2.28,0,.51,0.25,0.68a0.87,0.87,0,0,0,.68.75,1.91,1.91,0,0,0,1.27.07c0.31-.08.58-0.27,0.89-0.38a6.82,6.82,0,0,1,1.91-.21,22.3,22.3,0,0,0,4.91-.87c0.35-.1.71-0.17,1.06-0.24l0.57-.1c0.6-.09,1.19-0.15,1.79-0.18a4.84,4.84,0,0,0,2.87.39,12.87,12.87,0,0,1,1.4,0l-0.53.19a25.08,25.08,0,0,0-4.29.08c-1.15,0-.13,1.09.57,1.08l0.63,0a7.87,7.87,0,0,0-1.65.91c-0.38.28,0.08,0.57,0.55,0.75a8,8,0,0,0-.78.44c-0.78.5,0.79,1.14,1.28,0.95,1.17-.44,2.31-0.94,3.46-1.42s2.55-.61,3.77-1a4.46,4.46,0,0,1,.54.35l-0.07.06a0.37,0.37,0,0,0,.06.52c1,1.12,2.25,1.36,3.63,1.75,1.73,0.49,3,1.71,4.91,1.68a1,1,0,0,0,.42-0.11,39,39,0,0,0,3.33,2.55C260.34,189.54,261.56,189.95,261.48,189.26Z"/><path class="cls-4" d="M280.08,226.35a10.72,10.72,0,0,0-1.28-4.79,2.69,2.69,0,0,0-1-.62,3.49,3.49,0,0,0-1.39-1.91c-0.09-.41-0.19-0.83-0.3-1.24-0.28-1.65-.5-3.32-0.79-5a10.49,10.49,0,0,0-.54-1.89,1,1,0,0,0,1.24-.31,2.91,2.91,0,0,0-.34-2.15,20.56,20.56,0,0,1-.89-2.72c-0.29-1-.7-2-0.89-3.05a8.48,8.48,0,0,0-.75-2.79,4.31,4.31,0,0,0-2.69-1.94c-1-1.62-2.44-3-3.49-4.6a9.38,9.38,0,0,0-4.24-3.21c-1.35-.65-3.44-0.09-1.28,1,1.94,0.94,2.67,2.61,4,4.18a15,15,0,0,1,2.56,4,7.08,7.08,0,0,0,.09,1.71c0.25,1.86,1.29,3.37,1.93,5.09,0.07,0.19.13,0.39,0.2,0.59v0a37.13,37.13,0,0,0,.88,5.61c0.31,2,.34,4.1.72,6.14a73.15,73.15,0,0,1,1.24,13.58,1.31,1.31,0,0,0,1,1,52.7,52.7,0,0,0,.1,5.87c0,3.06,0,6.12,0,9.17a0.85,0.85,0,0,0,.36.6c0,0.51,0,1,0,1.52s0,1-.07,1.45c-0.38,2.08-.8,4.17-1.32,6.22-0.48,1.9-1,3.77-1.5,5.67-0.28,1.17-.6,2.5.2,3.53a3.61,3.61,0,0,0,1.36.81,2.48,2.48,0,0,0-.57,2.63,5.57,5.57,0,0,1-1.13,1c-0.85.51-2,.68-2.77,1.33,1.06-1.79,1.92-4.09,1.43-6.1-0.2-.84-1.36-0.68-2.23-0.37a18.81,18.81,0,0,0,2.28-9.23c0-1.11-3.43-.58-3.44.75a15.91,15.91,0,0,1-5.42,12.43,29.05,29.05,0,0,1-7.51,4.34c-2.4,0-4.92.55-7.08,0.61-1.31,0-5.51-.19-6.84,1.12h-0.16a2.5,2.5,0,0,0-.31-0.59c0,0.05.2-1.75,0.2-1.93,0-.79,0-1.59-0.11-2.38-0.19-1.82-.52-3.63-0.79-5.44-0.05-.37-0.1-0.74-0.15-1.1l0.17,0.2a3.19,3.19,0,0,0,.92.84c0-1.1,0-2.19,0-3.29,0.41,1.19.71,2.4,1,3.64a13.41,13.41,0,0,0,4,6.86c0.52,0.46-.14-0.57-0.19-0.65a9.4,9.4,0,0,0-1.51-1.87c0.59,0.53.4,0.31,0.2-.29-0.1-.31-0.19-0.62-0.27-0.94-0.18-.7-0.33-1.4-0.5-2.1a28.72,28.72,0,0,0-1.78-4.8c-0.33-.74-0.66-1.48-1-2.19,0-.94,0-1.88,0-2.82,0-.06,0-0.12,0-0.18a20.56,20.56,0,0,0,.55,2.08,6.33,6.33,0,0,0,1.22,1.79,4.35,4.35,0,0,0,.92.84c-0.21-1.13-.49-2.23-0.8-3.34-0.29-1.65-.48-3.31-0.8-5-0.21-1.08-.46-2.14-0.74-3.2v-7.36a1.44,1.44,0,0,0-.32-0.74c-0.08-.69-0.23-1.39-0.36-2.07,0,0,0-.06,0-0.09s0-.28,0-0.42c0.32-1.44.63-2.89,1-4.32,0.51-2,1.15-4,.24-5.91a13.33,13.33,0,0,0-1.07-1.35c0.11-.8.23-1.6,0.38-2.38,0.54-2.84,1.2-5.6.78-8.5a19.89,19.89,0,0,0-2.14-2.71c-0.82,1.56-1.56,3.2-2.22,4.83,0.1-1.15.24-2.29,0.44-3.42a51.41,51.41,0,0,1,3.27-10c0.17-.43-0.62-1.2-1.3-1.83,0.19-.52.38-1,0.59-1.53,0.64-1.54,1.07-3.14,1.68-4.69a20.71,20.71,0,0,0,1.47-4.15c0.23-1.37-2.5-3.46-2.81-1.62a20.64,20.64,0,0,1-1.41,3.85c-0.48,1.27-.84,2.59-1.34,3.86a57.59,57.59,0,0,0-2.36,7.45c-1.38,5.51-1.64,11.54-2,17.2a91,91,0,0,0,.18,16.92c0.69,5.94,1.74,11.84,2.46,17.78,0.4,3.3.93,6.58,1.4,9.87a27.74,27.74,0,0,1,.26,4.81,4.78,4.78,0,0,0,.41,2.32,3.31,3.31,0,0,0-1.21.3l-1.16-.12c-1.56-.2-3.06-0.75-4.63-0.86s-3.23,0-4.84,0c-3.34,0-6.8.25-10.14,0-0.37-.09-0.75-0.18-1.12-0.3a31.38,31.38,0,0,0-5.66-1.25,39.13,39.13,0,0,0-4.35-.24c-1.6-.52-4-1.46-5.25-0.28a0.32,0.32,0,0,0-.1.35c-1.1,0-2.19,0-3.29,0h0l-0.38,0c-0.67,0-.68.36-0.39,0.8a3.24,3.24,0,0,0,2.11.84l0.64,0a15.8,15.8,0,0,1,1.62.28c0.39,0.07,1.26.21,1.4-.26l1.37,0a18.81,18.81,0,0,0,3.91.7c2.62,0.22,5.14,1.13,7.76,1.43s5.2,1.24,7.84,1.37c2.43,0.11,4.7.89,7.11,1.24a15.59,15.59,0,0,0,3.1.21,4,4,0,0,1,1.55.1,17.07,17.07,0,0,0,1.68.49c1.26,0.24,2.68-.08,3.9.27,1,0.29,1.86.84,2.89,1.05a12.56,12.56,0,0,0,3.07.14c1.46-.06,2.83.28,4.28,0.36a47.35,47.35,0,0,0,7.23.07,16.2,16.2,0,0,0,2.71-.6c0.84,0.14,1.68.28,2.53,0.39s2.84,0.64,3.48,0c0.36-.38-0.17-0.77-0.68-1l0.3,0c0.83-.12,1.66-0.29,2.48-0.46a4.27,4.27,0,0,0,4.24.82,3.68,3.68,0,0,0,.47-0.22,1.48,1.48,0,0,0,.87-0.15,1.89,1.89,0,0,0,.68-0.76l0,0a1.47,1.47,0,0,0,1.36-.27,0.38,0.38,0,0,0,.12-0.24,0.33,0.33,0,0,0,0-.12,3.39,3.39,0,0,0,.61-2,1.33,1.33,0,0,0-1-.87,2.17,2.17,0,0,0,.75-1.23,2.74,2.74,0,0,0-1.6-2.79l0,0a3.1,3.1,0,0,0,.37-0.15,5.71,5.71,0,0,0,1.83-1.29,0.67,0.67,0,0,0,.42-0.32,6.05,6.05,0,0,0,.43-1.06l0.06-.2v-0.06c0.38-1.38.48-3,.82-4.26a42.91,42.91,0,0,0,1.39-6.5,86.62,86.62,0,0,0,0-13.69,0.67,0.67,0,0,0-.27-0.42v-4a0.79,0.79,0,0,0,1-.35,15.46,15.46,0,0,0,.05-3.54c0-1.48,0-3,0-4.44q0-.22,0-0.44c0.58,0.09,1,0,1-.28A61,61,0,0,0,280.08,226.35ZM236.76,247.8c0.21,0.8.41,1.59,0.59,2.4q0,0.46,0,.92a4.28,4.28,0,0,0-.76-1.08c-0.17-1.17-.35-2.33-0.52-3.5A7.35,7.35,0,0,0,236.76,247.8Zm4.79,33.12c-1.16-.09-2.23-0.84-3.37-1.1a21.41,21.41,0,0,0-3.33-.23,10.3,10.3,0,0,1-2.17-.51q1.6,0,3.2.06l2.32,0.42,2,0.32,0.27,0.13a13.45,13.45,0,0,0,2.44.92A11.5,11.5,0,0,1,241.54,280.92Zm22.56-10.07a6.68,6.68,0,0,1-3.24,2.89,11.23,11.23,0,0,1-2,.57A26.91,26.91,0,0,0,264.1,270.85Zm-3,9.3c-0.85.08-1.69,0.08-2.52,0.15l-1.44-.24c1.35-.05,2.7-0.15,4.05-0.26a1.4,1.4,0,0,0,.75.25Zm2.62-5.17c-0.3.36-.71,0.75-1.13,1.18h-0.11l-0.08,0a9.29,9.29,0,0,0-3.29,0l0,0a18,18,0,0,0,3.55-1.06,12.15,12.15,0,0,0,1.77-.92C264.16,274.42,263.93,274.71,263.71,275Zm1.7,4.41-0.91.19,0.48-.21a3.16,3.16,0,0,1,.51,0Zm6.19-3.86,0,0a3.54,3.54,0,0,0-.84.3c-0.46,0-.92.07-1.38,0.1a3,3,0,0,0-2.47.33l-0.27.07a7.16,7.16,0,0,0-1.55.84l0,0c0.36-.4.79-0.77,1.05-1.05a20.58,20.58,0,0,0,2.17-2.72l0,0a1.79,1.79,0,0,0,.67.6,5.16,5.16,0,0,0,2.57.71h0.18A1.6,1.6,0,0,1,271.6,275.53Z"/><path class="cls-3" d="M277.14,216.59c-0.86-3.59-2.54-6.8-4-10.16-0.25-.57-2.06-0.63-2.57-0.7a13.5,13.5,0,0,0-2.66,0c1.56,3.56,3.55,7.07,4.18,11a6.6,6.6,0,0,1-1.43,5c-0.38.56-1.35,1.45-1.44,2.16-0.11.86,0.54,0.89,1,1.19l0.52,0.12-0.27.17a2.55,2.55,0,0,1,.08,1.23,7.16,7.16,0,0,1-1.1,2.3,8.79,8.79,0,0,0-1.59,4.38,12.51,12.51,0,0,0,.7,2.63,12.78,12.78,0,0,1,.35,3,10.51,10.51,0,0,1,0,3.07,1.4,1.4,0,0,0-.33.66,0.38,0.38,0,0,0,.3.21c-0.49,1.84-1,3.74-.38,5.44a1.63,1.63,0,0,0,1.08.56c0,1.19,0,2.38,0,3.57a55.78,55.78,0,0,1-1.12,9.76c-0.2,1.17-.66,2.27-0.94,3.42a16.68,16.68,0,0,1-.38,1.68,1.72,1.72,0,0,0-.72.09l0.08,0.83c0,0.39,1.56.7,3,.82a8.2,8.2,0,0,1-1.59,2.2c-0.88.77-.27,1.93,0.47,2.59a4.2,4.2,0,0,0,1.77,1,1.87,1.87,0,0,0,1.52-.08,13.63,13.63,0,0,0,2.77-3.8c0.57-1-.52-2.23-1.33-2.75a5.31,5.31,0,0,0-.7-0.37c0.09-.29.16-0.59,0.23-0.86,0.28-1.11.65-2.19,0.93-3.29a40.57,40.57,0,0,0,1.3-9.89q0-3.11,0-6.22c0.17-.35.32-0.72,0.49-1.06,0.6-1.19,1.3-2.78.18-3.94a2.26,2.26,0,0,0-.67-0.46c0-.7,0-1.4,0-2.09,0.33-2.25.74-4.84,0.26-7a2.79,2.79,0,0,0-1.74-.67c0.54-1.57,1.57-2.84,2.18-4.38s0.11-2.26-.9-2.71c-0.64-1.25,1.17-2.76,1.8-3.84A6,6,0,0,0,277.14,216.59Z"/><path class="cls-3" d="M210.51,270.32a3,3,0,0,0-3.64-.63,14.17,14.17,0,0,1-4.26,1.75,16.31,16.31,0,0,1-2.38,0,8.19,8.19,0,0,0-.91,0H199.2a2.18,2.18,0,0,0-3.4,2.49,1.55,1.55,0,0,0-.94,1.9c0.36,1.26,2,1.9,3.14,1.9a21.93,21.93,0,0,1,2.51.61,13.81,13.81,0,0,0,3,.05,9,9,0,0,0,2.58-.62,14.11,14.11,0,0,1,2.68-1.18,1.57,1.57,0,0,0,.94-2.49,2.48,2.48,0,0,0-.25-0.32l0.8-.41C211.5,272.78,211.25,271.17,210.51,270.32Z"/><path class="cls-3" d="M254.82,247.24c-4.08,2.68-7.84,5.81-11.84,8.6l-0.07-.43c-0.1-.58-0.2-1.17-0.31-1.75a2.48,2.48,0,0,0,2-2.81c-0.08-.42-0.16-0.84-0.22-1.27,1-1.17,1.92-2.46,3-3.63,0.38-.43-1.82,0-1.92,0-0.38.09-.89,0.2-1.4,0.35-0.27-3.86-.07-7.76-0.05-11.65q0-4.88.11-9.76a1.74,1.74,0,0,0,0-.84c0-.8,0-1.6.06-2.4a11.26,11.26,0,0,0,1.63.29c0.19,0,2.44.05,2-.4a16.32,16.32,0,0,0-3.5-2.4c0-.6,0-1.21.07-1.81,0.07-1.63-1.31-2.35-2.68-2.25a18.18,18.18,0,0,1,3-3.84c1.06-1.12,2.71-2.67,2.82-4.33s-2.25-1.19-3.27-1.1l-0.72.08a1.28,1.28,0,0,0-1.22.24,10.45,10.45,0,0,0-1.13.35q0-.59,0-1.17c0.66-.84,1.32-1.68,2-2.53a25.1,25.1,0,0,0,2-3c0.39-.69,1.34-2,0.41-2.45a5,5,0,0,0-2.62-.16,9,9,0,0,0,.57-1.32c0.06-.18-0.12-0.26-0.27-0.28a3.71,3.71,0,0,0-2.66.66,13.76,13.76,0,0,0,2.34-4.51s-1-.13-2.13-0.18c0-.23-1.31-0.23-1.63,0l0,0a1.65,1.65,0,0,0-1.48.62c-0.07.23-.14,0.45-0.22,0.67a3.14,3.14,0,0,0-2.61.35c-1.75,1.12-3.58,2.1-5.29,3.28a1.75,1.75,0,0,0,0,2.7,3.31,3.31,0,0,0,2.71.91s0,0.1,0,.15a1.85,1.85,0,0,0-.22,1.89c0.46,0.81,3.79.08,4.51-.1a11.71,11.71,0,0,0,1.19-.38,45.36,45.36,0,0,0-3.51,3.72c-0.28.36,1,.26,1.13,0.23a5,5,0,0,0,.91-0.36c-1.15,1.45-2.84,3.14-3.36,4.92-0.08.29,1.94,0.24,2,.24,0.58,0,1.16-.08,1.74-0.15,0,0.37-.06.74-0.11,1.11,0,0.21-.06.42-0.1,0.62a2.88,2.88,0,0,0-.39,1.45c-0.66.13-1.32,0.29-2,.49a39.88,39.88,0,0,1-5.16-3.56,6.5,6.5,0,0,0-3.5-.9c-0.46,0-1.92,0-1.09.65a44.63,44.63,0,0,0,7.19,4.7c-2.34.94-4.62,2.12-6.79,3.16-3.39,1.63-7.07,2.72-9.93,5.25-0.92.81,0.44,1.46,1.12,1.59a4.42,4.42,0,0,0,3.55-.81c2.27-2,5.37-2.83,8.05-4.12,1.62-.78,3.24-1.55,4.9-2.26,0.76-.33,1.6-0.73,2.45-1.09l0.49,0.22c0,0.05,0,.11,0,0.16l-0.06.3c-0.2,1-.37,2-0.51,3a7.45,7.45,0,0,0-2.78,1.36,8.4,8.4,0,0,0-2,3.64,6.67,6.67,0,0,0-.47,4.16,0.88,0.88,0,0,0,.63.42h0.22q-0.7.79-1.39,1.59c-1.25,1.47-2.22,3.36-3.67,4.62s0.64,4.13,2.35,4.35a3,3,0,0,0-2,.95c-0.71.75-1.27,2.51-.09,3.19s2.31,1.28,3.49,1.87c0.06,4.09.23,8.17,0.3,12.26-0.46.26-.92,0.52-1.39,0.75-0.82.4-.69,0.66,0.17,0.59a8.26,8.26,0,0,0,1.24-.21c0,0.62,0,1.24,0,1.85a3.37,3.37,0,0,0,.83,2l-1.29.77c-0.85.52,1,1.54,1.35,1.7,0.8,0.39,2.4,1,3.28.47,1.86-1.14,3.76-2.23,5.65-3.33a15.49,15.49,0,0,0,.8,2.19c1.25,2.72,6.34,1.66,5-1.31a16.51,16.51,0,0,1-1.13-3.64c1.07-.66,2.13-1.34,3.17-2,4.28-2.92,8.24-6.27,12.57-9.11C260.4,248.78,256.08,246.41,254.82,247.24ZM241.7,208.72a6.32,6.32,0,0,1-.74,1.19l-0.2.24c0.06-.34.12-0.68,0.17-1Zm-0.19-12c-0.12.28-.26,0.56-0.41,0.83l-0.63.15C240.79,197.35,241.19,197,241.51,196.68Zm-3.23,33.1h0.44q0,2.81,0,5.61c0,1.2,0,2.4,0,3.6A47.86,47.86,0,0,1,238.29,229.78Zm-6.51-3-0.13.14C231.28,227.36,231.23,227,231.77,226.77Zm0.05,9.24q0.94-1.13,1.91-2.24a41.85,41.85,0,0,0,.55,8.42c0.08,0.45.17,0.93,0.26,1.43-1.86-.88-3.72-1.79-5.51-2.81a2.78,2.78,0,0,0-1.15-.36,1.26,1.26,0,0,0,.7-0.31C229.91,239,230.71,237.36,231.83,236Zm0.79,12.23c1.06,0.48,2.17.83,3.22,1.33l0.48,0.24c0.15,0.32.31,0.63,0.48,0.92,0.14,0.71.27,1.42,0.4,2.13l-1.23,1c-1.05.83-2.11,1.67-3.18,2.47C232.71,253.62,232.64,250.94,232.62,248.24ZM232.93,262q0-1.85-.08-3.7a42.38,42.38,0,0,0,4.76-3.13c0.09,0.55.19,1.09,0.27,1.64,0.11,0.7.21,1.4,0.31,2.1C236.46,260,234.69,261,232.93,262Z"/><path class="cls-3" d="M237.87,270.24a7,7,0,0,0-3.68-.71c-1.7-.05-3.38-0.36-5.08-0.38a6.27,6.27,0,0,0-3.35,1.38c-0.36.27-1.54,1.29-.41,1.3,1.57,0,3.1.3,4.66,0.37a6.49,6.49,0,0,1,3.47.65C234.52,273.52,238.62,270.72,237.87,270.24Z"/><path class="cls-3" d="M346.94,276.39a3.05,3.05,0,0,0-2.59-1.12c-1.74-.16-3.5-0.08-5.23-0.32-2.52-.35-5-0.67-7.51-0.84a18.86,18.86,0,0,1-3.63-.33,10.52,10.52,0,0,1-3.12-1.73c-1-.67-1,0.57-0.31,1.08s1.25,0.86,1.91,1.23c-2.12,0-4.23.15-6.33,0.35H306.62a6.85,6.85,0,0,0-2.8-.22c-0.54.06-1.07,0.14-1.61,0.23l-2.67,0c0.54-.23,1.07-0.5,1.63-0.78s-0.24-1.16-.59-1.3a2.79,2.79,0,0,0-.46-0.13c0.71-.39,1.42-0.73,1.93-1,2.2-1.34,5.28-2.73,6.77-4.9,0.37-.54-0.53-1.36-1.07-1.27-3,.48-6.06,2-8.82,3.3-1.51.72-3,1.52-4.44,2.33-0.27.15-.56,0.33-0.87,0.52h-0.11l-0.06,0c1-.73,2.15-1.36,3.13-2,1.19-.77,3.53-2,3.47-3.64a1.18,1.18,0,0,0-1.15-1c-2.17.34-3.92,1.68-5.87,2.55,0.69-.58,1.54-1.1,2-1.5a59,59,0,0,0,4.28-4.7,0.57,0.57,0,0,0,0-.63c-1-1.75-3.36-.77-5,0.06a9.39,9.39,0,0,0,.31-1.59,4.37,4.37,0,0,0-.06-1.34c1.05-1.2,2.1-2.4,3.14-3.6,0.83-1,1.21-1.72.62-2.88a1.19,1.19,0,0,0-1-.64,19.23,19.23,0,0,0-4.17,1.36c0.06-.46.09-0.92,0.1-1.38q1-1,2.07-2.09c1.66-1.71,5-4.49,4.66-7.13a1.21,1.21,0,0,0-.79-0.93,5.69,5.69,0,0,0-3.44.2,3.81,3.81,0,0,0,0-1,2.83,2.83,0,0,0-1.26-2l0.31-.44a9.84,9.84,0,0,0,2.2-5.19,1.23,1.23,0,0,0-1-1,2.28,2.28,0,0,0-1.31.07c0.62-.94,1.25-1.88,1.9-2.81,1.61-2.31,3.36-4.53,4.16-7.27a0.94,0.94,0,0,0-.39-0.85c-1.47-1.28-3.45.13-4.84,0.87l-2,1.06-0.76.42c2.81-3.69,6.53-7.35,6.24-12.18a1.23,1.23,0,0,0-1-1c-1.64-.24-3.09.85-4.41,1.68-1.13.71-2.2,1.5-3.26,2.32-0.1-.42-0.19-0.84-0.3-1.26,0.14-.37.28-0.75,0.41-1.13,0.32-.93.65-1.86,0.93-2.8,0.4-1.34,1.5-4.29-.51-4.94a0.57,0.57,0,0,0-.63.06c-0.76.84-1.46,1.72-2.16,2.6q-0.43-1.15-1-2.26c0-.08,0-0.15,0-0.23a10.28,10.28,0,0,0-.46-4.58c-0.4-.87-1.09-1.59-2.08-1.16a3.26,3.26,0,0,0-3.34-2.83h-0.37a2.14,2.14,0,0,0-.27-0.22,2.85,2.85,0,0,0-.87-0.68,1.86,1.86,0,0,0,.08-0.78c-0.17-1.44-1.7-1.86-2.91-1.82a3.33,3.33,0,0,0-.46.05c0-.13-0.07-0.25-0.11-0.38a16.87,16.87,0,0,0,.14-2.28,2,2,0,0,0-1.36-1,17.4,17.4,0,0,1-.11,2c-0.26,0-.41.13-0.28,0.51,0,0.14.09,0.27,0.13,0.41a5.26,5.26,0,0,1-.3,1,1,1,0,0,0-.85-0.36,12.83,12.83,0,0,0-.32,1.41,1.28,1.28,0,0,0,.6.76,2.61,2.61,0,0,0-.1,1.16,3.69,3.69,0,0,0,.84,1.85,3.59,3.59,0,0,0,.65.6,2,2,0,0,0,.85,1.68,1.94,1.94,0,0,0,1.83,0,2.78,2.78,0,0,0,.39.19l0.42,0.13c-0.17.47-.32,1-0.34,1.1a3.89,3.89,0,0,0,.17,2.51,4.12,4.12,0,0,0,1.58,1.64c0.87,0.56.73,0.8,1.06,1.78s0.94,1.95,1.33,3,0.41,2.1.72,3.13c0.18,0.61.62,1.31,0.72,1.85,0.15,0.8-.2,1.47.23,2.27a2.83,2.83,0,0,0,1.26,1.2,7.66,7.66,0,0,0-.32.8,4.53,4.53,0,0,0-.26,2.23,3.18,3.18,0,0,0,.72,1.33c0.61,0.79.46,0,.31,1.06-0.12.84-.57,1.66-0.78,2.5-0.38,1.54-.75,3.55.33,4.89a3.25,3.25,0,0,0,1,.82q0,8.52,0,17c0,2.84,0,5.68,0,8.52a47.54,47.54,0,0,1-.26,6.82,4.38,4.38,0,0,0-1,2.17,0.93,0.93,0,0,0,.49.78c-0.13.78-.25,1.57-0.38,2.36a9.21,9.21,0,0,1-1,3.65,16.78,16.78,0,0,0-1,1.54c-0.25.52-.25,1.08-0.47,1.6-0.43,1.06-1.76,1.88-2.48,2.78s0.63,1.71,1.4,1.84l0.57,0.09a1.16,1.16,0,0,0,1,1.05c3.16,0.75,6.24.32,9.42,0,1.75-.17,3.49-0.36,5.23-0.59a10.24,10.24,0,0,0,4.15-1.07,3.93,3.93,0,0,0,1.35.19,5.65,5.65,0,0,1,.87,0c0.82,1,2.29,1.12,3.46,1.25,2.55,0.27,6.13.81,8.16-1.12a1.53,1.53,0,0,0,.45-0.79c2.73,0.19,5.46.42,8.21,0.44a82.62,82.62,0,0,0,11.3-.94c3.55-.47,7.42-0.44,10.82-1.59C347.15,277,347,276.58,346.94,276.39ZM285,199.3a2.69,2.69,0,0,1,.43-0.28,5,5,0,0,1,.28,1.7C285.51,200.24,285.28,199.76,285,199.3Zm8.21,56.52a3.1,3.1,0,0,0-.47-0.25c0.1-.23.2-0.46,0.28-0.69a4.18,4.18,0,0,0,.27-1.37,29,29,0,0,1,3.54-1.32,19.47,19.47,0,0,1-2.85,3.33l-0.46.53A2.9,2.9,0,0,0,293.24,255.82Zm12.09,11.77a58.6,58.6,0,0,1-5.37,3.2,12.21,12.21,0,0,0-3.4,2.36l-0.49.08-0.1-.09a1.77,1.77,0,0,0-.41-0.81c1.11-.62,2.22-1.24,3.35-1.81A57.37,57.37,0,0,1,305.32,267.59Zm-11,1.29c-0.67.45-1.36,0.89-2,1.36,0-.12.06-0.22,0.08-0.29,0.08-.24.16-0.48,0.22-0.72a39.16,39.16,0,0,0,4.77-2.28C296.38,267.75,295,268.44,294.35,268.88Zm2.52-7.58a30.45,30.45,0,0,1-4,4.16l-0.47.35-0.1-.19c0.29-.91.8-1.85,1.16-2.73,0.75-.4,1.51-0.78,2.29-1.12C296.1,261.6,296.48,261.44,296.87,261.3Zm1.46-19.76c-0.33,1.36-1.66,2.72-2.49,3.67s-1.79,1.93-2.71,2.86a5.48,5.48,0,0,1,.66-2.69c0.4-.78.94-1.81,1.35-2.87A9.38,9.38,0,0,1,298.33,241.54ZM292.71,237l-0.41,0-0.16-.05a4.11,4.11,0,0,0,.34-2,16.26,16.26,0,0,1,2.73-2.33A14.68,14.68,0,0,1,292.71,237Zm2.18-13.74a37.4,37.4,0,0,1,4-2.19c-1,2.58-2.8,4.73-4.34,7l-0.78,1.17a2.21,2.21,0,0,0-2.07-2.32q0-1.11,0-2.21A9.83,9.83,0,0,0,294.89,223.21ZM293.64,213a14.29,14.29,0,0,1,3.83-2.21c-0.29,4-3.47,7.24-6,10.43-0.09-1.34-.23-2.67-0.42-4a3,3,0,0,0,.29-1.08,2.75,2.75,0,0,0-.26-1.28C291.94,214.2,292.77,213.57,293.64,213Zm-3.36-7.08c-0.05.21-.11,0.43-0.17,0.64-0.25.92-.56,1.82-0.87,2.72-0.15-.49-0.31-1-0.47-1.48ZM279.5,194.36c0.06,0.57-.38,1.19-2,1.24A2.59,2.59,0,0,0,279.5,194.36Zm8.75,80.41,0.14-.39,0.36,0.14Zm5.62,1.45,0.81-.51a18,18,0,0,0,2,.32l-1.34.35A4.3,4.3,0,0,0,293.86,276.21Zm32.48,2a87.7,87.7,0,0,1-10.11-.35l-1.59-.11-0.45,0c-0.75-.05-1.51-0.09-2.26-0.12l-1.74,0h0l-0.67-.15c0.71-.06,1.42-0.09,2-0.16l5.89-.73c1.16-.14,2.31-0.27,3.47-0.39h1.71c2.5,0,5.55.66,7.93-.3a0.32,0.32,0,0,0,.23-0.29c1.69,0.14,3.44.13,5.1,0.25,2.15,0.15,4.23.65,6.4,0.75h0.24c-2.06.29-4.2,0.37-6.21,0.64C333,277.6,329.67,278.06,326.35,278.2Z"/><path class="cls-3" d="M304.58,222.36a54.2,54.2,0,0,0-2.61-8.09c-0.19-.52-1.89-0.68-1.7-0.17a54.14,54.14,0,0,1,2.61,8.09c0.56,2.84,1.44,5.61,2,8.45,0.09,0.52,1.81.77,1.7,0.17C306,228,305.14,225.2,304.58,222.36Z"/><path class="cls-3" d="M217,194.27c-0.42,2.59-2.1,4.75-3.24,7.05-1.25,2.52-2.4,5.09-3.57,7.64a68.19,68.19,0,0,0-3,7.11c-0.85,2.59-.92,5.33-1.77,7.9-0.29.87,1.14,1.83,1.47,0.82,0.85-2.57.92-5.31,1.77-7.9a74.11,74.11,0,0,1,3.27-7.73c1.25-2.73,2.43-5.52,3.87-8.16,1.12-2.05,2.36-4,2.74-6.32C218.66,193.77,217.13,193.18,217,194.27Z"/><path class="cls-3" d="M127.55,239.89a39.23,39.23,0,0,0-2.72,9.33,72.52,72.52,0,0,0-.46,9.77c0,0.48,1.64,1,1.64.48a69.42,69.42,0,0,1,.52-10.18,38.9,38.9,0,0,1,2.64-8.72C129.36,240.1,127.73,239.43,127.55,239.89Z"/><path class="cls-3" d="M133.68,227c-1.39,2.19-3.17,4.11-4.49,6.35-0.61,1-1.93,2.9-1,4.11a0.93,0.93,0,0,0,1.1.51c1.65-1.13,2.1-3.51,3.55-4.84,0.34-.31-0.08-1-0.54-1.28,0.93-1.24,1.9-2.45,2.73-3.76C135.35,227.57,134.1,226.36,133.68,227Z"/><path class="cls-3" d="M159.73,209.15q-2.24,1.12-4.54,2.1a22.61,22.61,0,0,0-4.21,1.8c-1.14.79-1.94,2-3,2.84-0.58.47-1.4,1.16-2.23,1.76l0-.06c0.19-.62-0.95-0.84-1.34-0.77-1.31.21-2.59,1.68-3.5,2.55-1.56,1.49-3,3.14-4.53,4.67-0.52.52,1.07,1.22,1.55,0.74,1.26-1.25,2.5-2.52,3.7-3.82,0.39-.42,1-1.08,1.58-1.68a1.23,1.23,0,0,0,1.34.6c1.37-.37,2.38-1.44,3.54-2.21a28,28,0,0,0,3.51-3.08c1.24-1.16,2.78-1.52,4.32-2.15,1.74-.71,3.44-1.51,5.12-2.34C161.8,209.7,160.3,208.87,159.73,209.15Z"/><path class="cls-3" d="M216.26,180.68a13.41,13.41,0,0,0-4.65.89c-1.25.4-2.49,0.85-3.68,1.15-2.78.7-5.65,1.33-8.35,2.3-5.84,2.11-12.06,3-17.8,5.47-2.92,1.27-5.94,2-8.93,3a79.28,79.28,0,0,0-8,3.75,46.58,46.58,0,0,0-7,4c-2.66,1.91-5.47,3.47-8.25,5.2-0.84.52,0.77,0.91,1.24,0.61,2.34-1.46,4.81-2.7,7.06-4.3a50.77,50.77,0,0,1,7.32-4.53,90.22,90.22,0,0,1,8.56-4c2.49-.89,5.09-1.39,7.54-2.4a88.18,88.18,0,0,1,8.61-3.06l1.65-.47a1,1,0,0,0,1.08.43c1.72-.34,3.47-0.48,5.15-1s3.53-1.26,5.31-1.82a50.32,50.32,0,0,1,9.89-2.52,3.86,3.86,0,0,1-.75,2.4,3.43,3.43,0,0,0-.63-0.94,1.1,1.1,0,0,0-.48-0.44,3.69,3.69,0,0,0-1.89,1.64,1.91,1.91,0,0,0-.57-0.11,2.25,2.25,0,0,0-2,1.45c-0.51,1.25-.87,2.51-1.47,3.74-0.3.62-.59,1.24-0.87,1.86a0.89,0.89,0,0,0-1.45-.11,26.86,26.86,0,0,0-1.64,2.53c-0.76,1.18-1.77,2.23-2.63,3.33-1.69,2.17-3.46,4.29-5.05,6.54A20.46,20.46,0,0,0,192,208c-0.53,1.06-1.36,1.91-1.91,3a25.46,25.46,0,0,0-2.38,6.74c-0.23,1.15-.33,2.29-0.51,3.44s-0.72,2.46-.94,3.72c-0.42,2.42.34,5.08-.91,7.32-1.7,3-7.21,5.76-5.95,9.9a3.59,3.59,0,0,0,3.2,2.44c0.66,0.09,1.48,0,2.28,0a2.21,2.21,0,0,1-.09,1.14c-0.42.3-.84,0.58-1.16,0.87a4.27,4.27,0,0,0-1.67,3.55,1.62,1.62,0,0,0,1.28,1.53c-0.46.56-1,1.08-1.42,1.64a6.48,6.48,0,0,0-1.35,2.77,4.27,4.27,0,0,1-1.78,1.8c-0.7.21-1.54-.27-2.19,0.41s-0.6,2.33-.52,3.48a14.7,14.7,0,0,0-3.62,2.75,10.26,10.26,0,0,0-1.35,1.58l-0.39,0a96.83,96.83,0,0,0-9.85,0c-3.56,0-7.13,0-10.69-.21l-1.62-.1c0.25-2.06.81-4.11,1.26-6.16a34.42,34.42,0,0,1-.17-13c-0.73,3.05-1.14,6.17-1.61,9.27s-1.52,6.28-1.81,9.44a1.27,1.27,0,0,0,0,.3c-2.57-.23-5.12-0.57-7.66-1l-1.56-.31a1.41,1.41,0,0,0-1.15-.95c-0.24,0-2.17.28-2.28,0.06a0.28,0.28,0,0,1,0-.19,3,3,0,0,0,2.33-1.29c0.36-.56-1-1-1.31-1a3.82,3.82,0,0,0-2.3,1.18,10.26,10.26,0,0,1-3.18-.44,2.68,2.68,0,0,0,.42-0.31c0.24-.22-1.07-1-1.24-1.08a6.85,6.85,0,0,0-2.49.1,9.17,9.17,0,0,0-4-1.26,0.32,0.32,0,0,0-.38.16c-0.28-.11-0.42-0.09-0.06.3a6.44,6.44,0,0,0,2.7,1.85,1.66,1.66,0,0,0,.87.59c0.78,0,1.64.14,2.46,0.1a11.59,11.59,0,0,0,1.81.58,1.81,1.81,0,0,0,.33,2.22c1.34,1.09,3.19,1.29,4.84,1.53,0.83,0.2,1.66.41,2.49,0.64,2.44,0.7,4.88,1.19,7.37,1.65s4.83,1.34,7.31,1.6,5,1,7.5,1.47c2.3,0.42,4.61.49,6.9,0.87,0.59,0.1,1.17.22,1.75,0.34a47.13,47.13,0,0,0,8.63,3c2.1,0.49,4.76,1.24,6.85.29a3,3,0,0,0,1.33-1.13,12.91,12.91,0,0,1,4.19,1c1.44,0.57,1.6-1.13.91-2.06a3.4,3.4,0,0,0,.64-1.39,1.62,1.62,0,0,0,.83,0c1.94-.46,1.06-2.95.52-4.16a1.1,1.1,0,0,0-1.4-.75c0-.37,0-0.74,0-1.11,0.29-.71.51-1.46,0.75-2.22,0.62-2,1.72-3.77,1.94-5.87,0.47-4.59-.53-9.13.87-13.65,0.61-2,.64-3.88,1.06-5.87,0.46-2.2,1.43-4.18,1.72-6.44l0-.31a27.33,27.33,0,0,0,1.6-3,0.67,0.67,0,0,0,.45-0.68,18.56,18.56,0,0,1,.14-2.3c1.82-2.7,2.6-6.48,2.92-9.56,0.06-.57.16-1.26,0.22-2,0.17-.52.33-1,0.49-1.55,0.45-1.49.69-3,1-4.53a28.44,28.44,0,0,0,.74-3.88,36.52,36.52,0,0,1,3.95-7.92,13.32,13.32,0,0,0,2.68-6.37l1-1.22c1.15-1.37,2.61-2.69,2.42-4.63a3.31,3.31,0,0,0-1-1.17c0.62-.06,1.24-0.1,1.87-0.1,1,0,1.06-.87,0-0.86a22.3,22.3,0,0,0-3.13.25l0.07,0a22.67,22.67,0,0,1,3.39-1c0.33,0,.66-0.06,1-0.07C217.3,181.49,217.33,180.71,216.26,180.68ZM123.81,260.4a2.83,2.83,0,0,1-.94-0.2A5.3,5.3,0,0,1,123.81,260.4Zm35.56,8.71c-0.75-.12-1.49-0.28-2.22-0.46h3.17a1.92,1.92,0,0,0,.18.6Zm8.4,1.18-1.17-.55q1.54,0,3.08-.14a5.23,5.23,0,0,0,.07,1.09Zm6.53,1-0.61,0a18.4,18.4,0,0,0,1.09-1.64l0.95,0.22a2.33,2.33,0,0,0,.83.75,3.78,3.78,0,0,0,.17,1A18.53,18.53,0,0,0,174.31,271.29Zm7.82,1.07a14.56,14.56,0,0,1-2-.17,14.54,14.54,0,0,0,1.14-1.54,1.7,1.7,0,0,0,.9,1.7h0Zm1.39-3.9q-0.11-.31-0.24-0.62l0.17-.2c0.07,0.31.15,0.61,0.25,0.91ZM183,262.08a3.62,3.62,0,0,0-1.3-.3,0.89,0.89,0,0,0-1.3,0l-0.08.09a8.23,8.23,0,0,0-1,.26,2.15,2.15,0,0,0-1.12-.77c0-.31.06-0.62,0.11-0.91a3.42,3.42,0,0,0,3.51-1.89,3.5,3.5,0,0,0,1.89-.79c0,0.4.08,0.8,0.08,1.2,0,0.86,0,1.72,0,2.59A6.61,6.61,0,0,0,183,262.08Zm4.83,9c-0.19,1.34-.28.58-1.22,0.09a2.36,2.36,0,0,0,0-1.19,4.58,4.58,0,0,0,.9-1.19,1.29,1.29,0,0,0,.31.12A11.23,11.23,0,0,1,187.83,271.1Zm-0.35-31,0.4-.3-0.22.67A3.84,3.84,0,0,0,187.48,240.1Zm2.52,18.8c0-1.47,0-2.94,0-4.4a1.54,1.54,0,0,0-1.28-1.47,3.33,3.33,0,0,0,.24-0.78c0.07-.34,0-0.72.13-1.06a5.21,5.21,0,0,1,1.15-1.67l0.17-.22c-0.08,2.16,0,4.33,0,6.5A11,11,0,0,1,190,258.91Zm0.5-29.21c-0.49,1.89-.91,3.79-1.36,5.69-0.56.48-1.12,0.91-1.63,1.29-1.35,1-2.86,1.86-3.18,3.65A1.89,1.89,0,0,0,185,242l-1,0a5.52,5.52,0,0,1-2.24-.21c-0.67-.41.42-1.69,0.89-2.24,1.55-1.83,3.62-3.54,4.79-5.64,1.29-2.33.75-4.81,1-7.32a16.67,16.67,0,0,1,.67-2.82,2.48,2.48,0,0,0,1.23,1.19,3.58,3.58,0,0,0-.11.38,1.65,1.65,0,0,0,.86,1.69Q190.77,228.32,190.5,229.69Zm1.66-7.11,0,0.06a2.06,2.06,0,0,0-.42-0.19c0.21-.24.44-0.47,0.67-0.7Zm0.83-2.92c-0.39-.7-1.19-1.17-1.82-0.56a17,17,0,0,0-1.5,1.55c0.1-.72.19-1.44,0.33-2.16a21.18,21.18,0,0,1,3.35-7.61c0.9-1.35,1.47-2.84,2.44-4.16s2-2.55,3-3.82l-0.11.27A136.09,136.09,0,0,0,193,219.66Zm5.54,2.69a2.32,2.32,0,0,0-.55-0.72,6.71,6.71,0,0,0-.14-1.51l0.06-.18,0.14-.39a1,1,0,0,0,.78.29,7.4,7.4,0,0,0,.61-0.64A25.87,25.87,0,0,1,198.53,222.34Zm1.66-9.25q0,0.47,0,.94a17.22,17.22,0,0,1-1.06,2.51c0-.13.06-0.26,0.08-0.39,0.15-.57.31-1.15,0.45-1.75,0.14-.35.28-0.71,0.45-1.05l0.14-.29v0Zm-1.06-3.76a23.14,23.14,0,0,1,1.06-2.67c0.38-.77.79-1.53,1.2-2.29C200.73,206.08,199.94,207.7,199.13,209.33Z"/><path class="cls-4" d="M220,273.82a66.26,66.26,0,0,0-7.81,0c-3.09.34-6.15,0.86-8.25-2.07-1-1.41-2.28-4.76-4.26-5.59,0-1.24-.14-2.51-0.15-3.71,0-.51-1.56-1.2-1.56-0.7a42.49,42.49,0,0,1,.14,4.63,2.5,2.5,0,0,0-.2,1.13,5,5,0,0,1-.24.7,2.7,2.7,0,0,0-1.1-1.25,10,10,0,0,1,.24-1.27,15.74,15.74,0,0,0,.35-3.9,35.33,35.33,0,0,1,.4-3.85,73.16,73.16,0,0,0,.32-8c0-2.84.62-5.6,0.74-8.43a34.67,34.67,0,0,1,1.26-8.05c0.72-2.56,1.13-5.23,1.93-7.76a52.6,52.6,0,0,1,3-7,22.44,22.44,0,0,1,2.14-3.5c0.48-.65,1.21-2.06,2.11-2.1,1.1-.05-0.48-0.44-0.86-0.42l-0.23,0c0.3-.84.46-1.75,0.79-2.57,0.66-1.65,1.42-3.25,2.08-4.9,1.18-2.92,3-5.82,2.73-9.08,0-.48-1.41-0.81-1.43-1,0.27,3.25-1.55,6.16-2.73,9.08-0.62,1.55-1.33,3.06-2,4.61-0.56,1.37-.7,3.09-1.64,4.26a1.37,1.37,0,0,0,.5.51,14.89,14.89,0,0,0-1.76,2.37,41.61,41.61,0,0,0-3.42,7,55.19,55.19,0,0,0-2.38,8.25,46.67,46.67,0,0,0-1.78,8.62c-0.21,2.92-.68,5.83-0.8,8.75s0,6-.3,9-0.29,5.81-.95,8.64a9.12,9.12,0,0,0-.21,1.69,4,4,0,0,0-.26,1.08,7.22,7.22,0,0,0-.73,4.17,1.58,1.58,0,0,0,1.31.77,2,2,0,0,0,1.39-.68l0.19,0a2.34,2.34,0,0,0,.37.75l-0.48,0c-0.41,0-.1.46,0,0.58a5.33,5.33,0,0,0,3.33,1.43c0.75,0.08,1.49.12,2.24,0.17a1.44,1.44,0,0,0,.63.28c2.52,0,5.11.28,7.45-.83a0.17,0.17,0,0,0,.07-0.29c1.44-.05,2.87-0.36,4.32-0.42,2.19-.09,4.39.11,6.58,0.13C221.71,274.9,220.46,273.82,220,273.82Zm-22-.66a1.7,1.7,0,0,0,.07-0.54l0.29,0.13q0.06,0.17.13,0.34l-0.21.09-0.26.1A0.61,0.61,0,0,0,198,273.15Zm5.37,0.72c0.24,0,.35,0,0.36-0.15a3.16,3.16,0,0,1,1.42.3l-0.38.13-1.8,0c-0.24,0-.51,0-0.77.06l-0.65,0-1-.07-0.17-.09a3.33,3.33,0,0,1,1.08-.22c0.23,0,.52,0,0.83,0S203,273.85,203.35,273.87ZM199.66,267a1.13,1.13,0,0,0,.29.37c1,0.79,1.53,2.37,2.18,3.4a10.58,10.58,0,0,0,1.71,2.07,9.41,9.41,0,0,0-1.13-.11l-0.16,0a13.67,13.67,0,0,1-2.95-.47c0-.33-0.08-0.65-0.11-0.92a18.92,18.92,0,0,1,0-2.94s0-.22,0-0.44a7.69,7.69,0,0,0,.14-0.88A0.1,0.1,0,0,1,199.66,267Z"/><path class="cls-12" d="M317.9,277.51a12.05,12.05,0,0,0,1.63-.18l0-.18-1.95.36h0.27Z"/><path class="cls-12" d="M366.22,251.32a22.75,22.75,0,0,0-2.68-4.7c-1-1.63-2.08-3.26-3.17-4.86a54.53,54.53,0,0,0-3.25-4.54l0,0c0.24,0.25.46,0.44,0.4,0.23a4.55,4.55,0,0,0-1.15-1.85c-0.82-1.31-1.6-2.64-2.4-4-0.33-1.34-.69-2.67-1.15-4a36.56,36.56,0,0,0-1.57-4.05c-0.51-1.57-.92-3.19-1.58-4.7a15.59,15.59,0,0,0-4.41-5.85c-2-1.67-4.27-2.94-6.33-4.51l-0.25-.18a1.78,1.78,0,0,0,.09-0.74,0.69,0.69,0,0,0-.48-0.58,3.35,3.35,0,0,0-1.43-.11l-0.27-.29a8.74,8.74,0,0,0,.82-0.6c0.69-.27,1.59-0.76,1-1.2l-0.16-.12a1.42,1.42,0,0,0,0-.34,0.82,0.82,0,0,0-.93-0.64l-0.32.05c-0.67-.49-1.36-1-2-1.53a2.5,2.5,0,0,0,.11-0.33,0.72,0.72,0,0,0-.68-0.82H334l-0.16-.22a13.37,13.37,0,0,0-3.89-3.67,18.66,18.66,0,0,0-4.38-2.64c-1.76-.62-3.51-1-5.31-1.47a4,4,0,0,0-3.16-.74l-0.75-.19c-0.45-.3-0.9-0.6-1.34-0.92-1.38-1-2.95-1.7-4.33-2.74a5.93,5.93,0,0,0-2.81-1.24c-1-.17-1.07.22-0.06,0.39a5.4,5.4,0,0,1,1.89,1.27,13,13,0,0,0,1.12.69c-0.69-.23-1.4-0.31-2.1-0.52-1.05-.3-2.08-0.68-3.12-1.05l-0.18-.1v0a42.68,42.68,0,0,1,3.93,1.74,14.45,14.45,0,0,1,3.35,2.06,9,9,0,0,0,4,2.19c0.34,0.09.66,0.19,1,.29a0.54,0.54,0,0,0-.12.88,3.35,3.35,0,0,0,1.82,1.09c0.34,0.08.76,0,1.09,0.14,0.73,0.24.25,0,.76,0.71a2.29,2.29,0,0,0,.81.84l0.26,0.43a13.81,13.81,0,0,0,1.28,2.09l0.62,0.53a3.76,3.76,0,0,0,.59.31,5.58,5.58,0,0,0-.69-1l-0.23-.19,0.23,0.06,1.19,0.76,0.72,0.48a4.45,4.45,0,0,0-.37.33,3,3,0,0,0-1,2,0.64,0.64,0,0,0,.3.48c1.23,0.67,2.32.14,3.61-.17,1-.24,2-0.68,3.05-1l0.4,0.21c-0.28.16-.54,0.32-0.76,0.48a5.47,5.47,0,0,0-2,2,0.73,0.73,0,0,0,.84,1,18.79,18.79,0,0,0,4.29-.81c0,0.09.07,0.19,0.1,0.28a6.92,6.92,0,0,0-1.42,1.39,0.62,0.62,0,0,0,.2.84,2.5,2.5,0,0,0,1.56.43c0,0.08,0,.16,0,0.24h0c0.44,0.25.85,0.46,1.25,0.7a2,2,0,0,0-.13.31,2.21,2.21,0,0,0-.1,1.66c0.5,0.93,2,.93,3.06.95,0.3,0.42.59,0.84,0.88,1.26,0.21,0.18.42,0.35,0.64,0.52,0.63,0.48,1.26.95,1.89,1.41a11.6,11.6,0,0,1,.78.93q0.06,0.53.12,1.05c0.46,0.5.92,1,1.35,1.54,0.42,1.15.81,2.32,1.22,3.48a0.92,0.92,0,0,0,1.35.3c0.36,0.6.7,1.21,1,1.84a1.6,1.6,0,0,1-.43-0.47c0,1.25-.31,2.75.13,4h0l0,0a2.73,2.73,0,0,0,.32.62,3,3,0,0,0,.63.74,1.45,1.45,0,0,0,.27.15,1.39,1.39,0,0,0-.13.58,2.86,2.86,0,0,0-.88,1.9h0l0,0a1.65,1.65,0,0,0,.89,1.3,1.27,1.27,0,0,0,.81.17,2.43,2.43,0,0,0,.77.83,1.91,1.91,0,0,0,.48.24l0.29,0.31a4.3,4.3,0,0,0-.17.54,3.78,3.78,0,0,0,.86,1.29,17,17,0,0,0-1.18,2.46,3.71,3.71,0,0,0,1.05,1.41,2.45,2.45,0,0,0,.67-0.78,4.78,4.78,0,0,0,.91,1.12l0.05,0.07a1.35,1.35,0,0,0,.05.29,3.8,3.8,0,0,0,.3.54,2.84,2.84,0,0,0-.26.87,3.78,3.78,0,0,0,1,1.41,4.63,4.63,0,0,0-1,2.16,2.79,2.79,0,0,0,.48.8,13.21,13.21,0,0,0-.72,1.32,3.22,3.22,0,0,0,.93,1.28l-0.52.91a13.46,13.46,0,0,1-1.81-3.43,11.12,11.12,0,0,1-.69-3.87c0-.22,0-0.43,0-0.63-0.14-.64-0.27-1.28-0.38-1.93l-0.07-.15c-1-1.91-2.57-3.39-3.83-5.07-2.7-3.6-4.52-7.54-7.56-10.81,1-.48,3.81,1.2,5.82,2.55-0.24-.39-0.49-0.77-0.74-1.15-0.86-.53-1.72-1.05-2.61-1.53-0.64-.35-3.08-2-3.79-1.08-0.19.23,0.69,1.11,0.84,1.25,3.73,3.47,5.62,8.47,8.91,12.36,1.29,1.52,2.29,2.87,2.28,4.91a10.89,10.89,0,0,0,.35,2.77,16.36,16.36,0,0,0,2.09,4.74c0.31,0.49.65,1,1,1.4-0.3.51-.6,1-0.92,1.5-0.14.22,0.73,1,1,1.32l0.07,0.09c1-1.44,2.27-2.58,3.35-3.93,0.4-.51.79-1,1.19-1.52-0.67,1.2-1.56,2.34-2.16,3.32s-1.14,2-1.67,3a4.88,4.88,0,0,0-1.39,2.62,4.86,4.86,0,0,0,1,1.29l0.09,0.12c0.48-.89.95-1.78,1.42-2.66,0.54-.63,1.13-1.21,1.53-1.63a25.83,25.83,0,0,1,2.33-2.15l0.39,0.53c-0.39.49-.76,0.91-1,1.21l-0.68.9c-1.29,1.23-3.19,2.87-3.73,4.54a3,3,0,0,0,1.05,1.41c0.93-.16,1.48-1.44,2-2.14s1.18-1.62,1.78-2.43l0.14-.13c0.46-.44,1-1,1.62-1.59l0.05,0.09c-0.44.74-.93,1.46-1.41,2.18s-1.05,1.57-1.6,2.34a17.22,17.22,0,0,0-2.18,2.91c-0.14.25,1.06,1.4,1.05,1.41,0.77-.94,1.49-1.92,2.19-2.91,0.45-.5.9-1,1.32-1.46a18.28,18.28,0,0,1,3-2.76,18.89,18.89,0,0,1-3,4.33l-0.05.06c-0.7.62-1.37,1.24-2,1.85-0.95.9-3.65,3-3.38,4.51A5.67,5.67,0,0,0,356,269c0.57-.61,1.14-1.24,1.71-1.88a2,2,0,0,0,.2.25l-0.33.41a7.77,7.77,0,0,0-2.47,3,1.37,1.37,0,0,0,.36.67c-2.22.9-5,1.8-6.53,2.31a4,4,0,0,1-.22.8,34.63,34.63,0,0,1-4.52.13c-3.71,0-7.45.9-11.12,1.4-1.69.23-3.34,0.67-5,.85s-3.59.35-5.38,0.67c-1.06.19-2.14,0.38-3.23,0.56,0,0,0-.08,0-0.12a20.49,20.49,0,0,1-2.92-.36l-1.42.23,0,0a2.82,2.82,0,0,0,.84.71c-1.24.15-2.48,0.26-3.71,0.31-0.82,0-1.15.93-.57,1.2-1.83.29-3.67,0.54-5.49,0.85a26.61,26.61,0,0,1-4,.33,48.58,48.58,0,0,1,5.2-1.61c0.94-.15.35-1.8-0.5-1.66-3.06.5-5.67,2-8.84,2.13-1.33,0-2.73.16-4.1,0.08l0.33-.18c0.24-.15.71-0.59,0.38-0.9-0.75-.7-1.81-0.47-2.73-0.29-0.58.11-1.19,0.27-1.82,0.41a6.3,6.3,0,0,1-.61-0.38,0.58,0.58,0,0,0-1,.49l-1.21,0c0.51-.81,1.64-1.44,2.09-2.27,0.26-.49-0.39-0.77-0.76-0.73a7.85,7.85,0,0,0-2.6.9c-0.34-5.85-.72-12,0.51-17.73,0.1-.48-0.41-0.61-0.9-0.5a20.4,20.4,0,0,0,.19-4.13c0-1.73.05-3.48-.09-5.21a15.42,15.42,0,0,0-1-4.65,6,6,0,0,0-1.43-2.61,1,1,0,0,0-1.5.59,19,19,0,0,0,.26,4.16c0.24,1.76.76,3.47,1,5.25a44.73,44.73,0,0,1,.42,5.15c0,1,.07,2.15.06,3.23-0.09.4-.17,0.8-0.23,1.22-0.11.75-.19,1.51-0.28,2.28-0.29,1-.66,2.07-1,3.05a15.22,15.22,0,0,1-.86,2.5,0.83,0.83,0,0,0-.32.35,4.48,4.48,0,0,0-.19.53c-0.18.3-.35,0.61-0.5,0.93a32.25,32.25,0,0,0-1.61,3.93,17.78,17.78,0,0,1-1,2.75,6,6,0,0,0-1,1.47c-0.28.56,0.21,0.7,0.72,0.64a0.64,0.64,0,0,0,.06.39c-0.42.12-.84,0.24-1.25,0.39-0.66.23-1,1.08-.1,1.23a27.34,27.34,0,0,0,4.31.05h0a16.94,16.94,0,0,0,2.47,0h12.54a27,27,0,0,0,3.74,0,38.37,38.37,0,0,0,6.42-.22c2.73-.41,5.47-0.87,8.2-1.28a52.86,52.86,0,0,1,8.15-.65,11.75,11.75,0,0,0,2.91-.15,21.61,21.61,0,0,1,4-.29c0.61,0,1.23-.12,1.84-0.21a0.75,0.75,0,0,0,.41.14,32.82,32.82,0,0,0,8.1-.52c1.24-.2,2.48-0.42,3.71-0.67l0.43-.08c-0.46.2-.92,0.38-1.39,0.55a15.5,15.5,0,0,0,2.46-.33c0.51-.12,1-0.26,1.53-0.41,1.29,1.42,3,1.11,4.83.72,1.15-.25,2.28-0.52,3.44-0.73,1.6-.28,3.72-0.4,5.07-1.4a0.79,0.79,0,0,0-.33-0.68l0.58-.28,0.13,0.11-0.31.12c-0.21.09,0.86,1.31,1,1.38a5.27,5.27,0,0,0,3.39-.14,4.07,4.07,0,0,0,1.37-.11c1.25-.35,2.09-1.34,1.38-2.51l-0.17-.25c0.92-.14,1.66-0.57,1.67-1.32,0-3.92.37-7.84,0.42-11.77A29.26,29.26,0,0,0,366.22,251.32Zm-38.6-48.57c-1.33.32-1.44,0.55-.4-0.45,0.13-.12.28-0.25,0.45-0.39,0.6,0.1,1.2.21,1.8,0.36C328.86,202.45,328.24,202.61,327.62,202.76Zm4.21,2.29c0.43-.33.92-0.62,1.39-0.92a5.5,5.5,0,0,1,.42.45l0,0C333.06,204.78,332.45,204.93,331.83,205Zm16.87,23.68c0-.82.05-1.71,0.08-2.48,0.35,0.72.68,1.45,1,2.19C349.38,228.5,349,228.67,348.7,228.72Zm2.09,3.26-0.12-.16a3.16,3.16,0,0,0-.45-0.51c0.15-.28.32-0.54,0.46-0.82,0.35,0.45.68,0.91,1,1.38A2.14,2.14,0,0,0,350.78,232Zm2.23,7.36-0.08.1c0.1-.26.2-0.52,0.31-0.77l0.07,0.09Q353.18,239,353,239.34ZM357.6,247a5,5,0,0,1-.32-2.4,6,6,0,0,0-.5-0.84,5.71,5.71,0,0,0,.18-0.89c0.5,1.09,1,2.15,1.59,3.18A8.82,8.82,0,0,0,357.6,247Zm1.35,3.84a10.72,10.72,0,0,0,.91-1.73,7.21,7.21,0,0,1,0,1Zm-78.4,29.24-0.74.21a3.4,3.4,0,0,1-.58-0.08l0.28-.22,0.15-.09a1.48,1.48,0,0,0,.53-0.09,3.07,3.07,0,0,0,.78.16Zm1.33-1.39a2.47,2.47,0,0,1-.73-0.27,1.76,1.76,0,0,0,.11-0.29l0.11,0a2.66,2.66,0,0,0,.25.31,1.43,1.43,0,0,0,.28.23Zm0.63-7.37a16.2,16.2,0,0,1,.72-1.92,15.37,15.37,0,0,0,.86-2.27c0,0.13,0,.25,0,0.38,0,1.32,0,2.64,0,4a6.36,6.36,0,0,0-1.54,1.2C282.51,272.23,282.51,271.78,282.51,271.33Zm0.08,4.78a12,12,0,0,1-.11-1.41c0.25-.31.53-0.66,0.83-1l0.74-.49c0,0.69,0,1.37.07,2.05,0,0.1,0,.2,0,0.3A4.49,4.49,0,0,0,282.59,276.11ZM284,278l0.22-.28,0,0.35Zm1.68,2.92,0.09-.15h0a5.91,5.91,0,0,0,1.09.16h-1.22Zm2.83-.06,1.26,0.06h-2.06Q288.14,280.87,288.54,280.82Zm52.83-4-1.41.35c-0.62.1-1.24,0.2-1.86,0.28-2.6.33-5.18,0.64-7.76,1.12-1.56.29-3.06,0-4.6,0.24a21.58,21.58,0,0,1-3.24.48h-1.67l0.67-.12c3.11-.56,6.28-0.71,9.37-1.36,1.76-.36,3.56-0.58,5.34-0.81s3.5-.63,5.25-0.83A18.66,18.66,0,0,1,344,276C343.09,276.27,342.23,276.56,341.38,276.77Zm21.37-21.59a7.78,7.78,0,0,0,.49-1.59,3.54,3.54,0,0,0-.94-1.37l0-.15c0.75-.18,1.24.92,1.44,1.52l0,0.12,0,0c-0.06-.06-0.43-0.48-0.29-0.18a6.73,6.73,0,0,1,.57,1.84,1.28,1.28,0,0,0-.57-0.59C363.24,254.87,363,255,362.75,255.18Zm-11.81,22.34c-0.67.15-1.34,0.33-2,.47,1-.27,1.92-0.52,2.87-0.81,0.35-.11.69-0.23,1-0.36h1c0.59,0,1.25,0,1.91-.08C354.12,277.12,352.36,277.19,350.94,277.52Zm6.34-3.78-1,.36L356.1,274c-0.93-.49-2.61.53-3.88,1.2a0.49,0.49,0,0,0-.12-0.7h0c0.93-.32,1.86-0.65,2.77-1a33.11,33.11,0,0,0,3.44-1.4c-0.36.49-.71,1-1,1.5A0.19,0.19,0,0,0,357.28,273.73Zm1.18-7.52c1-1.18,2-2.38,3-3.59,0.73-.64,1.49-1.28,2.26-1.87a32.11,32.11,0,0,1-3.39,3.77c-0.52.55-1,1.11-1.49,1.68h-0.35Zm5-1a10.14,10.14,0,0,1-1.06,1.65l-0.24-.7A9.88,9.88,0,0,1,363.46,265.17ZM359,269.23q0.11-.25.2-0.5l0.69-.55c0.47-.38,1-0.84,1.47-1.31,0,0.42,0,.84,0,1.25l-0.3.39c-0.4.54-.82,1.07-1.24,1.6A2.09,2.09,0,0,0,359,269.23Zm0.74,3.83h0a20.39,20.39,0,0,1,2.14-2.45l0.26-.25c0.16,0.19.34,0.4,0.48,0.55s0,0.22,0,.34a6.13,6.13,0,0,0-1,1.75A3.29,3.29,0,0,0,359.7,273.06Zm3,3.13-0.6-.06H362l0.24-.06c0.28-.07.94-0.28,1.61-0.42A6.72,6.72,0,0,1,362.67,276.18Zm1.22-7.07c-0.16.3-.33,0.6-0.52,0.88l-0.2-.68a6.66,6.66,0,0,1,.74-0.56Zm0.26-5.57a1.68,1.68,0,0,0-.26-0.28l0.26-.31Q364.16,263.25,364.15,263.55Zm1.35,11.64-0.06-.07-0.1-.11C366,275.07,365.86,275.07,365.51,275.18Zm-0.11-2.56a0.73,0.73,0,0,1-.71,0,17.87,17.87,0,0,0,.31-2.33,3.48,3.48,0,0,0,.44-2.2,2.34,2.34,0,0,0-.29-0.56c0.06-1.44.08-2.89,0.07-4.34a53.1,53.1,0,0,1,1,6.1C366.27,270.17,366.29,272.1,365.4,272.62Z"/><path class="cls-1" d="M250.49,176.12c-1.21-.07-2.41-0.09-3.62-0.09a29.63,29.63,0,0,0-4.67-1.54c-0.24-.3-0.48-0.63-0.73-1a4.46,4.46,0,0,0-1.15-1.11,4.16,4.16,0,0,0-1.22-.59,3.35,3.35,0,0,0-2.65-.47,3.8,3.8,0,0,0-3,4.38c0.14,0.68,1.67-.14,1.55-0.73-0.28-1.38.58-2.89,2.11-2.41a4.19,4.19,0,0,0,1,.66l0.12,0a5,5,0,0,1,.48.61,1,1,0,0,0-.91.79,2,2,0,0,0,.79,2l-1.36.21a1.53,1.53,0,0,0,.66.86,0.24,0.24,0,0,0,0,.1l-0.09,3.87c0,0.3,1.7.09,1.71-.42l0-1c0.16,0.13.36,0.26,0.38,0.11l0.24-2.58q2.6-.36,5.22-0.49a6.15,6.15,0,0,0,1.91.14s0-.09-0.08-0.21h0.81l0.23,0.1a3,3,0,0,0,1.21,1l1.46,0.3c0.36,0.07-.07-0.39-0.42-0.72l1.33-.61C252.11,177.1,250.78,176.14,250.49,176.12Zm-10.61-.3-0.27-.29a2.93,2.93,0,0,0-.28-0.24,0.59,0.59,0,0,1,.23-0.15,4.63,4.63,0,0,0,.45.48A1.16,1.16,0,0,0,239.89,175.83Zm0.62-2.36-0.31-.48,0.16,0.11a1.3,1.3,0,0,1,.26.44Zm3.85,2.63a3.55,3.55,0,0,1-.91-0.43c0.5,0.12,1,.26,1.48.41Z"/><path class="cls-1" d="M370.67,268.23a34.8,34.8,0,0,0-1.54-8.17c-0.74-2.48-1.55-5-2.42-7.41-0.66-1.87-.95-4-2.08-5.69a0.67,0.67,0,0,0-.41-0.19,82.32,82.32,0,0,0-5.14-10.06,0.38,0.38,0,0,0-.22-0.13,22.15,22.15,0,0,0-1-4.26,1,1,0,0,0-.08-0.21v0a7.11,7.11,0,0,0-1.09-1.89L353,223.8a49.13,49.13,0,0,0-13.83-19,58.84,58.84,0,0,0-8.06-6.79l-1.46-1.35a1.73,1.73,0,0,0-1.08-.33A58.11,58.11,0,0,0,314.69,190c-0.76-.23-0.08,1.34.49,1.52a56,56,0,0,1,16.36,8.11l5.35,4.93c-0.79-.52-0.68.67-0.25,1.1l8.28,8.17c-0.24.09-.32,0.46,0,1l8.44,12.87a0.75,0.75,0,0,0,1,.35l0.86,1.48c-0.44.05-.84,0.19-0.74,0.28a6,6,0,0,1,1.28,1.66h-1.11c-0.64,0,.14,1.53.78,1.53h1c0.77,2.41.8,5.27,1.48,7.5a63.62,63.62,0,0,0,3.53,8.24,25.5,25.5,0,0,1,2.11,6.54,23.65,23.65,0,0,0,.47,2.39c0.26,2.15.4,4.33,0.75,6.46,0.08,0.48.17,1,.28,1.43a14.63,14.63,0,0,0,.71,3c0,0.17,0,.35,0,0.52a0.27,0.27,0,0,0,.22.2c0.11,0.38.21,0.75,0.28,1.14a11.44,11.44,0,0,1,.17,1.61c-0.07.89-.25,1.77-0.33,2.67,0,0.16,0,.32,0,0.48a15.85,15.85,0,0,0-5,1.2l-0.35.06a8.85,8.85,0,0,0-3.5-.08c-1.85.24-3.7,0.47-5.53,0.85-1.34.28-2.66,0.61-4,.81a59.83,59.83,0,0,0-8.87.9c-3.23.53-6.48,0.85-9.71,1.37s-6.86.08-10.26,0.46a84.61,84.61,0,0,1-9.86.07c-1.55,0-3.11-.13-4.66,0a36.57,36.57,0,0,0-3.85.83l-0.5.08a1.11,1.11,0,0,0-.78-0.57l-10.7-.12a0.89,0.89,0,0,0-.53-0.28l-0.46,0a0.59,0.59,0,0,0-.33-0.13l-1.56,0-2.07-.09a1.42,1.42,0,0,0-.75-0.52l-0.21,0a2.83,2.83,0,0,0-1.59-1.54,104.26,104.26,0,0,0,1.61-37.89c-0.1-.68-1.53-1.48-1.39-0.44a103.17,103.17,0,0,1-.71,33.14,0.39,0.39,0,0,0-.34.35l-0.14.58c0-.06,0-0.11,0-0.17-0.1-.42-1.41-1.55-1.4-0.62l0,1.31c-0.36,2.06-2.48,4.25-.85,6.12q-19.44.39-38.88-.36l-0.06,0a4.38,4.38,0,0,1-1-2c-0.3-1-1.15-1.59-.82-2.86,0.1-.37-1.46.09-1.59,0.61-0.33,1.26.37,1.78,0.74,2.8-0.53.14-1.23,0.59-1,.85a6.68,6.68,0,0,0,.44.53q-3.54-.15-7.08-0.34c1,0,1-.88-0.06-1l-24.74-1.63L196.63,275a1.4,1.4,0,0,0-.87,0,0.94,0.94,0,0,0-.81-0.87,2.8,2.8,0,0,1-2-3.55,0.72,0.72,0,0,0-.47-0.74l0.07-3.44a0.61,0.61,0,0,0,0-.17l0.13-1.59a0.5,0.5,0,0,0-.16-0.38l0-2.27a0.56,0.56,0,0,0,.25-0.48,141.39,141.39,0,0,1,8.09-40.71c0.28-.79-1.28-1.56-1.6-0.67A142.06,142.06,0,0,0,192.66,246v-0.55c0-.83-1.62-1.33-1.63-0.31l-0.22,20.63-0.7,8.79a1.1,1.1,0,0,0-.49-0.17l-14.79-.1a1.13,1.13,0,0,0-1-.53l-4.42.38q-7.65-1.1-15.27-2.37-5.6-.94-11.17-2a0.83,0.83,0,0,0-.41-1.41l-18.24-4.87-2.54-.69a45,45,0,0,1-1.09-7.09c1.74-6.2,6.22-11.94,6.5-18.51,0-.35-1.72-0.54-1.73-0.31-0.21,4.89-2.75,9.33-4.75,13.83l0.06-2.4c0-.34-1.71-0.56-1.73-0.31a45.14,45.14,0,0,0-.14,6.14l0,1.64a17.36,17.36,0,0,0-.55,3.31,0.3,0.3,0,0,0-.3.11,21,21,0,0,0,0,4.54h-0.2a0.76,0.76,0,0,0-.23,0h0a0.73,0.73,0,0,0-.23.1c-0.65-.09-0.77.13-0.27,0.32a0.76,0.76,0,0,0-.07.26c-0.18,0-.29,0-0.25.11l2.3,5.14a0.78,0.78,0,0,0,.56.25l0.11,0.22a2,2,0,0,0,1.69.19,21,21,0,0,1-.84-2.25l0.86,0.8c0.15,0.14,1.75.52,1.71,0.25a7.12,7.12,0,0,0-.17-0.8l1,0.22a0.76,0.76,0,0,0,.51-1.43l-0.69-.36,0.18,0q21.71,4.71,43.7,8a1.25,1.25,0,0,0,1,.69l3.92,0q32,4.5,64.24,5.91a6.13,6.13,0,0,0,1,.49c-0.22.2-.32,0.38-0.08,0.38h1.54a6.75,6.75,0,0,0,1.78,0h1.84a2.44,2.44,0,0,0,1.1-.59q3.4,0.11,6.81.19,13.11,0.29,26.22.06a1,1,0,0,0,.67.42l13.26,0.15-0.69.09c-3.54.52-7,1.4-10.56,1.45-7.72.12-15.47-.08-23.2-0.08-1,0-1,.57,0,0.57,6.51,0,13-.09,19.55.05a48.09,48.09,0,0,0,8.7-.36c3.38-.55,6.7-1.27,10.12-1.58l0.92-.08,3.93,0a0.34,0.34,0,0,0,.4-0.41,25,25,0,0,0,2.79-.47c3.33-.77,7-0.38,10.41-0.37,1.49,0,3,.11,4.46,0s3.19-.36,4.81-0.38a44.45,44.45,0,0,0,8.53-.51c3.47-.7,7.12-1,10.63-1.46l1.46-.19c0,0.19.48,0.28,0.63,0.29,1.21,0.1,2.53.21,3.86,0.25l-0.08,0c-0.21.15-.06,0.29,0.14,0.34l0.26,0.06a17.27,17.27,0,0,0-4.79,1c-0.71.28,0.38,0.48,0.63,0.48a19.76,19.76,0,0,0,5.9-1c0.89-.05,1.78-0.11,2.67-0.23l1.16-.19c0.64,0,1.29,0,1.93,0,1.41-.09,2.82-0.29,4.21-0.5a8.63,8.63,0,0,0,3.32-.78,0.15,0.15,0,0,0,.08-0.23c0.75-.25,1.49-0.5,2.24-0.73l0.05,0.08a1.6,1.6,0,0,0,1.7,0,2.61,2.61,0,0,0,.4-0.72l0.46-.21a1.14,1.14,0,0,0,.55.08c0.5,0.14,1.33.07,1.39-.25,0-.08,0-0.17,0-0.26a0.69,0.69,0,0,0,.74-0.31C370.48,273.44,370.8,270.84,370.67,268.23Zm-32.11-62.46,0.21,0,0.39,0.39,0,0Zm8,9.58a0.28,0.28,0,0,0,.35-0.1l1.14,2Zm16,32.08a28.16,28.16,0,0,1-1.39-3.52c0.57,1.16,1.1,2.34,1.6,3.53a2.33,2.33,0,0,0,0,.53ZM121.8,265.52l-0.68-.15c-0.14-.13-0.28-0.25-0.44-0.37l1.13,0.23,0.44,0.2Zm3.74,0.8a0.67,0.67,0,0,0,.14-0.29l1.46,0.3a3.84,3.84,0,0,0,.68,0l8.34,2a1,1,0,0,0,.27,0l2.82,0.75Q132.38,267.78,125.54,266.32Zm56.64,9.28a0.51,0.51,0,0,0-.36.19l-2.15-.27,2.82,0Zm3.75,0.69,1.11-.18,0.17,0q2.5,0,5,.25a1.88,1.88,0,0,0,.32.64Q189.21,276.68,185.93,276.29Zm6.33-1-0.44,0,0.05-.23a0.52,0.52,0,0,0,.47-0.56v-0.5a4.69,4.69,0,0,0,.6.52A1.69,1.69,0,0,0,192.26,275.24Zm2.6,1.53h-0.08l-0.05-.09,0.83,0.12,0,0Zm33,3.13q-7.71-.42-15.41-1Zm50.55-.46a1.64,1.64,0,0,1,.13-0.77l0,0.84a1.37,1.37,0,0,0,.38.75A0.77,0.77,0,0,1,278.44,279.44Zm67.16-.76c0.59-.09,1.26,0,1.78-0.07,0.31,0,.63-0.08.94-0.13s1.05-.1,1.64-0.13a7.7,7.7,0,0,0,1,.23A21.84,21.84,0,0,1,345.59,278.68Zm12.46-1.92c-0.68.08-1.37,0.13-2.06,0.18A6.76,6.76,0,0,1,358.05,276.77Zm-2.76,2.14-0.89.18c-0.39.09-.78,0.16-1.18,0.22h0c0.6-.16,1.2-0.34,1.79-0.53l0.34,0A0.14,0.14,0,0,0,355.29,278.91Zm0-1-0.67,0c-0.5,0-1,.08-1.59.11a3.24,3.24,0,0,0-.63-0.2c0.76-.05,1.51-0.06,2.3-0.11,0.56,0,1.12-.1,1.69-0.17Zm7.8-.44-1.51.53a7.27,7.27,0,0,0-1.47.1l-2.41.37q0.34-.18.72-0.33c1.15-.21,2.28-0.49,3.4-0.8l0.23-.06c0.47-.06.91-0.1,1.31-0.12s0.62,0,1,0A11.48,11.48,0,0,0,363.11,277.49ZM367.58,262c0-.29-0.06-0.58-0.08-0.88s0-.43,0-0.65l0.09,0.29c0.12,0.41.23,0.83,0.33,1.25h-0.31Z"/><path class="cls-3" d="M245,451.09c-0.13-.11-0.27-0.22-0.42-0.33,0.39-.85-0.15-1.83.08-2.8a0.69,0.69,0,0,0-.77-0.85,2.27,2.27,0,0,0-.76-0.71c-1.38-.81-3.51-0.54-5-0.41a0.82,0.82,0,0,0-.78.72,19.59,19.59,0,0,0-3.92,1.36,1,1,0,0,0-.37.06l-2.24.78c-0.72.25-.83,1.45,0.08,1.48l5.7,0.24c1.1,0,2.19,0,3.25.18l1,0.18a6.87,6.87,0,0,1,1.15.4,2.17,2.17,0,0,0,1.8.17l0.49,0.09C244.56,451.73,245.56,451.62,245,451.09Zm-6.71-3.48c0.32,0.15.4,0.32,0.22,0.52a2.69,2.69,0,0,0-.86-0.37A1.19,1.19,0,0,1,238.25,447.62Z"/><path class="cls-3" d="M259.4,450.18a1.5,1.5,0,0,0-1.33-1.27,34.79,34.79,0,0,0-4.3-.69l-4.55-.72a3.87,3.87,0,0,0-2.62,0,1.94,1.94,0,0,0-.77,2.16,0.24,0.24,0,0,0,0,.16l0,0.91h0l0,0.09V451a2.88,2.88,0,0,0,.08.88,0.86,0.86,0,0,0,.1.18l0,0.25a0.36,0.36,0,0,0,.1.2c-0.31.07-.68,0.19-0.41,0.22l1,0.1,0,0a0.65,0.65,0,0,0,.86,0h0.18a0.41,0.41,0,0,0,.37.08l0.72-.09a19.51,19.51,0,0,0,4-.51,3,3,0,0,0,2.52-.41l0.28,0c-0.18.3-.17,0.58,0.33,0.59a3.71,3.71,0,0,0,1.33-.2C258.41,452,259.48,451.39,259.4,450.18Zm-10.19,1.47h0l-0.34,0c0.13-.45.38-0.17,0.66,0Zm4.86-.64-1.9.27-1.36-.22a1.36,1.36,0,0,0-.38-0.18,3.6,3.6,0,0,0-1.25,0,3.56,3.56,0,0,0-1.2.3l-0.21-.68,0-1.17a0.45,0.45,0,0,0-.37-0.16,4.62,4.62,0,0,1-.07-0.6c0.62,0.06,1.43.31,1.84,0.38l2,0.32-0.42,0a2.52,2.52,0,0,0-.57-0.05l-1.09-.1c-0.63-.06-1.31.1-0.26,0.24l2.21,0.3a1.7,1.7,0,0,0-.3.39,4.5,4.5,0,0,0,1.31.23h1.4l0.37,0h0.18a1.54,1.54,0,0,1,.06.32A2,2,0,0,1,254.07,451Zm2.29-.65-0.49.29a1.85,1.85,0,0,0-.07-0.48h0.07a0.55,0.55,0,0,0,.37-0.06l0.6,0a0.33,0.33,0,0,1,.3.16A1.58,1.58,0,0,0,256.36,450.37Z"/><path class="cls-3" d="M274.25,441.59l-12.22-2c-1.61-.26-3.5-0.89-5.14-0.64s-2.79,2.26-4.55,2.2a0.44,0.44,0,0,0-.49.16l-0.66,0c-1.08-.06-0.16.82,0.37,0.95l7.52,1.82a15,15,0,0,1,4.06,1.23c0.81,0.48,1.38,1.29,2.22,1.73a3.23,3.23,0,0,0,3.8-.57,21.4,21.4,0,0,1,6-3.93C275.93,442.24,274.48,441.63,274.25,441.59Zm-14.19-1.4,2.87,0.46,9.63,1.55-0.15.08a1.9,1.9,0,0,0-.6-0.18l-2.83.13a0.47,0.47,0,0,0-.27.07,1.75,1.75,0,0,0-.9-0.55l-8-1.49c-0.62-.11-0.75.08-0.64,0.32l-0.6,0a1.29,1.29,0,0,0-.72-0.11l-0.83.25-0.37.09-0.51.12,0.13-.09A4.52,4.52,0,0,1,260.06,440.19Zm8.88,4.31c-0.37.31-.71,0.67-1.09,1-0.69.57-1,.91-1.84,0.69s-1.43-1-2.16-1.43a19.49,19.49,0,0,0-4.93-1.56l-2.41-.58,2.18-1a11.8,11.8,0,0,1,3.33.29c0.91,0.16,1.8.37,2.7,0.6l1.7,0.46-0.12.19c-0.32.53,1.19,0.84,1.46,0.78l0.82-.2a1.28,1.28,0,0,0,.77.45Z"/><path class="cls-3" d="M244.07,435.31l-1.56.62c-3.63,1.17-7.36.47-10.95-.75l-0.57-.29,2.72-.67a9.56,9.56,0,0,1,4.3.53c1.06,0.38,0-.75-0.46-0.92a12.17,12.17,0,0,0-2.85-.67,1.53,1.53,0,0,0-.74-0.37l-6.56.66c-0.13,0-.18.06-0.18,0.13-0.27,0-.12.4,0.2,0.64a23.52,23.52,0,0,0,3.08,1.94,12.37,12.37,0,0,0,5.17,2.24,16,16,0,0,0,8.09-1.36,12.49,12.49,0,0,0,1.66-.66C245.78,436.18,244.49,435.13,244.07,435.31Zm-9.14,2,0,0-0.7-.5a24.87,24.87,0,0,0,2.73.6l-0.38,0A8.41,8.41,0,0,1,234.93,437.32Z"/><path class="cls-3" d="M226.77,441.92l-0.23-.06h0l-0.24-.06-0.29-.08-2.93-.78a42.78,42.78,0,0,0-8.28-2.41,10,10,0,0,0-2.55,0,1,1,0,0,0-.75-0.1L205.69,440a0.67,0.67,0,0,0-.42.28,0.61,0.61,0,0,0-.3.89c0.89,1.66,3,2,4.63,2.57q3.89,1.29,7.8,2.51a0.87,0.87,0,0,0,.45,0,1.39,1.39,0,0,0,1.19.06,7.56,7.56,0,0,1,7.44-3.74c0.46,0.06.47-.07,0.32-0.21C227.29,442.38,227.59,442.18,226.77,441.92Zm-19.44-.52,0.34-.19a2.16,2.16,0,0,0,.3.56A4.87,4.87,0,0,1,207.34,441.4Zm2-.9,3-.83a0.56,0.56,0,0,0,.48-0.43,9.1,9.1,0,0,1,3.55.08,36,36,0,0,1-6.31,1.91,0.06,0.06,0,0,0,0,.05A1.16,1.16,0,0,1,209.29,440.5Zm8.57,4.27a16.89,16.89,0,0,0-3.37-2c-0.36-.15-1.16-0.35-2-0.6q1.63-.4,3.21-0.94a1.41,1.41,0,0,0,.21,1.1,2.71,2.71,0,0,0,1,.88c0.62,0.26,1.05-.21,1.64-0.18,0.33,0.19.56,0.23,0.2-.25a2.82,2.82,0,0,0-1-.94,1.07,1.07,0,0,0-.52-0.1c0.25-.51.62-1,0.84-1.42a0.71,0.71,0,0,0-.27-0.64l1.14,0.35a0.77,0.77,0,0,0,.69.41l2.54,0.67,1,0.35A6.6,6.6,0,0,0,217.86,444.77Z"/><path class="cls-4" d="M269.26,476.28c0.24-.29,0-0.46-0.35-0.5,0-1.76-1.48-3.61-2.24-5a59.32,59.32,0,0,1-2.8-6c0.52,0.13,1.45-.48,1.27-1q-0.71-2-1.53-4L261,453.17a0.61,0.61,0,0,0-.65-0.23l-0.8.19a0.79,0.79,0,0,0-.52.06l-0.42.16-6.09,1.45a31.05,31.05,0,0,1-4.68.17c-0.43,0-1.26.41-1.12,1a0.85,0.85,0,0,0-.42.76,164.68,164.68,0,0,0,5.57,20.89q0.82,2.4,1.71,4.78c0.37,1,.65,2.41,1.78,2.81a2.12,2.12,0,0,0,2.41-.66,1.09,1.09,0,0,0,.85-0.27l1-1a1.19,1.19,0,0,0,.31-0.11c0.58-.3,1.15-0.62,1.7-1a1.27,1.27,0,0,0,1.2-.75,28.7,28.7,0,0,0,3.53-2.77,3.93,3.93,0,0,0,1.54-.78l1-.29C269.55,477.41,270,476.5,269.26,476.28Zm-8.84,3.39,0.21-.3,1.14-.66a3.74,3.74,0,0,1-1,.8Zm5.14-4.14a3.05,3.05,0,0,0,.88-1.63c0.12,0.21.23,0.43,0.34,0.65a3.54,3.54,0,0,1,.49,1.66,6.93,6.93,0,0,0-2.84,1l0-.07,0.91-.76A0.57,0.57,0,0,0,265.56,475.53ZM259,454.61a64,64,0,0,0,2,7.51l-2.44-4.38c-0.27-.48-0.81-0.27-1.19.06l-0.06-2.4Q258.19,455,259,454.61Zm-7.6,15.71q-0.35-1.2-.68-2.41l0.16-.2c0.5,1.53,1,3,1.59,4.55l-0.27.68C251.93,472.07,251.66,471.2,251.41,470.32Zm4.2,12.45a5.63,5.63,0,0,1-.76-2q-0.63-1.72-1.22-3.45t-1.16-3.53a1.35,1.35,0,0,0,.57-0.08l0.34,0.84-0.25.9c-0.14.5,0.25,0.59,0.67,0.49l0.13,1.94c0,0.55.62,0.44,1,.23l0,0.07,0.19,0.71-0.33,1c-0.2.61,0.26,0.79,0.72,0.69q0.1,0.5.19,1c-0.25.4-.15,0.64,0.11,0.74,0,0.33.08,0.66,0.11,1C255.78,483.31,255.65,483.15,255.6,482.77Zm-3.08-17.08,0.24-.3-0.16.55Zm5.26,10.06,0.48-1.45c0.34-1-1-.77-1.42-0.28l-1,1.14c-0.2-.61-0.42-1.22-0.63-1.82l0.9-3.23c0.2-.71-0.62-0.58-1.13-0.33l0.86-2.14c0.39-1-1-.8-1.42-0.28l-0.36.48,0.19-1.38a0.45,0.45,0,0,0-.15-0.48l1.08-3.8c0.26-.91-1.19-0.44-1.47-0.1L252,464.25l-0.78-2.18,0.22-2.24a0.52,0.52,0,0,0-.68-0.55,4,4,0,0,0-.93-2.44l0.59-.05a17.74,17.74,0,0,0,5.27-.79l0.15,6.44c0,0.94,1.48.07,1.62-.43l0.5-1.71,3.5,6.27c1.06,1.9,5.25,7.16,2.2,8.8a4.6,4.6,0,0,1-.63.28c-0.2-.69-1.16-0.35-1.47.08l-0.39.55,0,0a9.13,9.13,0,0,0-2.31,1.56,10,10,0,0,0,.15-1.74C259,475.4,258.24,475.45,257.78,475.76Z"/><path class="cls-4" d="M282.27,462.25a59.26,59.26,0,0,0-2.49-9.88,0.89,0.89,0,0,0,.8-0.83,9.57,9.57,0,0,0-3.69-6,1.1,1.1,0,0,0-.9,0,2.86,2.86,0,0,0-1.48-.53h-0.26a0.9,0.9,0,0,0-1.55,0l-0.13.33a7.4,7.4,0,0,0-3.18,3.72,1,1,0,0,0-1,.7,55.7,55.7,0,0,0,6.56,23.77,1,1,0,0,0,1.69-.38c0-1.47,1.41-2.21,2.78-3a0.78,0.78,0,0,0,1-.59,4.33,4.33,0,0,0,1.4-1.32C282.85,466.49,282.59,464.22,282.27,462.25Zm-4.27.69,0.26,0.73a0.72,0.72,0,0,0,.73.49l-0.54,1.18-0.83-2.48A1.15,1.15,0,0,0,278,462.93Zm-1.8,2.45h0l0.85,3-0.08.18q-0.24-.5-0.47-1C276.43,466.83,276.33,466.1,276.21,465.39Zm4.57,0.68a0.73,0.73,0,0,0-.13-0.19v-0.13l0.15-.05Q280.8,465.88,280.78,466.06Zm-6-19.46h0a0.75,0.75,0,0,0,.06.32,31.18,31.18,0,0,1,1.07,3,1.13,1.13,0,0,0-.62,0,1,1,0,0,0-.66-0.29l0.16-.71c0.18-.81-1.07-1.2-1.53-0.61l-0.26.33,0.89-2.16A1.39,1.39,0,0,1,274.81,446.6ZM270.2,450l0.51-.11-0.55,1.32c0-.4-0.06-0.79-0.08-1.19Zm0.32,4.54,0.08-.09,1.69-2.16L272,453.78a0.84,0.84,0,0,0-1,1l0.61,2.23-0.21.64a0.66,0.66,0,0,0,.61.84l1,3.62a31.23,31.23,0,0,0,.85,3.13l1.2,4.41a0.73,0.73,0,0,0,.88.48l0.35,0.65a0.79,0.79,0,0,0,.08.11,4.71,4.71,0,0,0-.54.5A55.2,55.2,0,0,1,270.52,454.51Z"/><path class="cls-4" d="M284.74,459.13c-0.29-.94-1.65-0.9-1.3.2,1,3.36,2.08,7.28-.54,10.2-2.24,2.5-5.8,4.07-8.63,5.79l-19.79,12c-0.73.45,0.14,2,.87,1.53L278.13,475c2.63-1.6,5.78-3.14,7.14-6.07C286.73,465.84,285.69,462.23,284.74,459.13Z"/><path class="cls-12" d="M274.88,443.61a13.69,13.69,0,0,1,2.25,6.81c0,0.52,1.64,1.26,2,1.49,0.18,0.11,2.29,1.06,2.28,1a14.2,14.2,0,0,0-2.33-7,7.44,7.44,0,0,0-2.56-1.71,4.44,4.44,0,0,0-1.35-.66c-0.08,0-.47-0.2-0.32,0h0Z"/><path class="cls-12" d="M278.42,442.91a7.14,7.14,0,0,0-5.72,1.49c-0.58.51-.71,1.1,0.18,1.27A5,5,0,0,0,276,445l0.68-.39-3.34-.57-1.92,1.49a0.69,0.69,0,1,0,.4,1.31,5.33,5.33,0,0,0,3.38-1l1.92-1.49c0.63-.49.68-1.1-0.18-1.27a5,5,0,0,0-3.16.7l-0.68.39,3.34,0.57q0.44-.36-0.36.15a2.51,2.51,0,0,1-1.55.27,5,5,0,0,0,3.37-.67,1.87,1.87,0,0,0,.93-0.89,0.52,0.52,0,0,0-.46-0.64h0Z"/><path class="cls-12" d="M278.8,451.05l0.79,3.19c0.11,0.44,1.5,2.51,1.28,1.33l-0.67-3.72L279,450.77c0.21,0.81.6,4.53,2.09,4.49-0.22,0-1.38-5-1.45-5.26s-1.43-2.26-1.22-1.08l2.6,14.86c0.06,0.36,1.28,2.32,1.3,1.54a41,41,0,0,0-1.12-10.83c-0.11-.44-1.48-2.52-1.28-1.33l1.18,7.15,1.28,1.33L281,455.82l-1.22-1.08c0.51,1.83.91,3.87,1.59,5.64,0.29,0.75,2.42,5.06,1,1.65-0.11-.28-1.39-1.94-1.12-0.79a6.61,6.61,0,0,1-.47,5.36l1.28,2.05,0.52-3.18-1.12-1.16-0.68,3.06,1.21,2.14,1.6-3.38c0.24-.51-1-2.51-1.28-2.05a23.77,23.77,0,0,1-6.88,6.78l1.14,2.22,6.28-4.43-1.14-2.22a39.44,39.44,0,0,1-7.05,5c-0.47.26,0.63,2.45,1.14,2.22A14.12,14.12,0,0,0,282,468.5c0.27-.39-0.82-2.42-1.21-2.14l-3.34,2.43,1.21,2.14a17.9,17.9,0,0,0,.86-10.76c-0.88-4.24-4.66-11.2-3.5-15.37,0.1-.36-0.81-2.5-1.21-2.14l-4.19,3.78,1.14,2.22,4.09-3.84c0.43-.41-0.72-2.49-1.14-2.22l-7.05,4.53c-0.5.32,0.72,2.49,1.14,2.22l8.68-5.39-1.21-2.14-3.79,5c-0.36.47,1,2.37,1.21,2.14l2.54-2.95-1.21-2.14-1.38,3.53c-0.16.41,0.88,2.47,1.21,2.14l2.75-2.77-1.21-2.14-1.93,4.55c-0.21.5,1,2.52,1.28,2.05l2.52-3.7L277,445.49l-1.21,3.71c-0.17.51,1,2.53,1.28,2.05l1.35-2.31-1.28-2.05-0.77,2.53c-0.14.48,1,2.55,1.28,2.05l1.34-2.09-1.28-2.05-0.68,4c-0.1.58,1.17,2.43,1.28,2.05a9.12,9.12,0,0,0-.09-5.49,10.76,10.76,0,0,0-1-2.88c-1.21-1.84.39,2.24,0.6,2.67,0.43,0.9,1.44,1.3.81,0-0.88-1.89-1.25-1.27-.29.3,0.35,0.57,1.09,1,.75,0a2.23,2.23,0,0,0-1.52-2.26l1.27,3c0.22,0.52,1.47,2,1.05.54-0.45-1.63-.75-5.25-2.32-6.39-0.9-.65-2.08-1-1.94.56,0,0.33,1.15,2.4,1.3,1.9l0.44-1.5-1.3-1.9-0.25,3.18c0,0.36.92,2.42,1.3,1.9l0.92-1.25-1.28-2.05-0.45.62,1.28,2.05,0.44-1.56c0.1-.37-0.84-2.5-1.21-2.14l-1.76,1.7c-0.43.42,0.74,2.5,1.14,2.22l2-1.37L277,443l-1,2.06,1.28,2.05,0.34-.73-1-.85a38.79,38.79,0,0,1,4.2,14.91c0,0.57,1.38,2.37,1.33,1.75a44.31,44.31,0,0,0-4.86-17c0-.09-0.76-1.31-1-0.85l-0.34.73c-0.28.59,1.1,2.44,1.28,2.05l1-2.06c0.18-.39-0.77-2.44-1.21-2.14l-2,1.37,1.14,2.22,1.76-1.7-1.21-2.14-0.44,1.56c-0.13.46,0.91,2.57,1.28,2.05l0.45-.62c0.35-.48-1-2.49-1.28-2.05l-0.92,1.25,1.3,1.9,0.25-3.18c0-.47-1.18-2.31-1.3-1.9l-0.44,1.5,1.3,1.9s2.09,2.11,1.8,2.11c0.7,0-.57-2.13-0.88-2.87-0.22-.52-1.54-2-1.05-0.54,0.4,1.18,1.83,3.16.31,0.66-0.56-.91-1.1-0.65-0.65.33,1.54,3.33.59-.41,0-1.68-0.44-.9-1.35-1.34-0.81,0,1,2.56,2.25,5.22,1.4,8.15l1.28,2.05,0.68-4c0.07-.42-0.92-2.61-1.28-2.05l-1.34,2.09,1.28,2.05,0.77-2.53c0.15-.5-1-2.54-1.28-2.05l-1.35,2.31,1.28,2.05,1.21-3.71c0.16-.48-0.94-2.55-1.28-2.05l-2.52,3.7,1.28,2.05,1.93-4.55c0.18-.42-0.89-2.46-1.21-2.14l-2.75,2.77,1.21,2.14,1.38-3.53c0.17-.44-0.94-2.45-1.21-2.14l-2.54,2.95,1.21,2.14,3.79-5c0.28-.38-0.79-2.4-1.21-2.14l-8.68,5.39,1.14,2.22,7.05-4.53-1.14-2.22-4.09,3.84c-0.49.46,0.86,2.48,1.14,2.22l4.19-3.78-1.21-2.14c-0.78,2.8.56,5.63,1.34,8.32,1.74,6,3.72,11.7,1.3,17.82-0.15.38,0.77,2.46,1.21,2.14l3.34-2.43-1.21-2.14a13.78,13.78,0,0,1-6.08,5l1.14,2.22a39.44,39.44,0,0,0,7.05-5c0.46-.41-0.76-2.49-1.14-2.22l-6.28,4.43c-0.49.35,0.74,2.49,1.14,2.22a24.14,24.14,0,0,0,7-6.95l-1.28-2.05-1.6,3.38c-0.22.46,1,2.42,1.21,2.14,1.43-1.66,1.34-3.13.49-5,0-.09-1-1.66-1.12-1.16l-0.52,3.18c-0.08.49,1.08,2.54,1.28,2.05a6.88,6.88,0,0,0,.85-3.7c-0.17-.92-1.59-3.43-0.43-0.53,0.21,0.53,1.47,2,1.05.54l-2.64-9.4c-0.12-.41-1.49-2.21-1.22-1.08l1.38,5.82c0.11,0.44,1.48,2.52,1.28,1.33l-1.18-7.15-1.28-1.33A39.92,39.92,0,0,1,281,463.58l1.3,1.54-2.6-14.86-1.22-1.08,1.93,7c0.17,0.61,1.56,2.36,1.16.82l-1.41-5.42c-0.1-.4-1.43-2.25-1.22-1.08l0.67,3.72,1.28,1.33-0.79-3.19c-0.12-.49-1.56-2.44-1.28-1.33h0Z"/><path class="cls-12" d="M257.56,484.6l9.51-7-2-1.15-1.69,2.79,2.33,0.78,2.27-3.82-2.39-.3,0.62,1.55c0.33,0.83,1.92,1.27,2.39.3l0.68-1.4c0.61-1.26-1.69-1.65-2.33-.78l-0.81,1.08,2.33,0.78a7.26,7.26,0,0,0,.78-2.57,11.33,11.33,0,0,0-.65-1.74l-2.39-.3c1.75,7.26-5.25,3.68-8.09,6.43a0.74,0.74,0,0,0-.11.92c0.69,1.49,3.4,1.59,4.75,1.44a7.23,7.23,0,0,0,3.39-1.21c1.36-1,1.93-2.94,3.27-3.77a0.81,0.81,0,0,0,.43-0.85l-0.08-1.06c-0.08-1-2.44-1.17-2.47-.06l0,1.56,2.47,0.06-0.84-2.75c-0.33-1.1-2.59-1.16-2.45.19l0.18,1.69L269,475l-1.26-3c-0.39-.92-2.73-0.73-2.35.42l1.77,5.49c0.27,0.83,2,1.28,2.39.3l0.52-1.33c0.42-1.07-1.21-1.6-2-1.15l-4.8,2.88,1.59,1.51,1.75-1.22c1.35-.94-0.59-1.94-1.59-1.51l-7.86,3.36,1.81,1.35c3.48-2.85,9.58-2.55,9.5-8.27,0-2.84-1.68-6.46-2.43-9.19L263,453.43l-2.35.42A66.66,66.66,0,0,1,267.2,477l2.45-.19-6.78-24.38c-0.26-.95-2.36-1.24-2.47-0.06l-0.21,2.31c-0.11,1.23,2.23,1.51,2.48.31,0.49-2.3-.89-3.47-3-3.86-0.62-.12-1.8.47-1.24,1.24l1.91,2.63c0.52,0.71,2.64.89,2.35-.42-0.77-3.55-4.38-4.34-6.94-2-0.93.86,0.79,1.74,1.54,1.46l1.69-.62-1.32-1.62-2.26,1.39c-1.27.78,0.38,1.89,1.32,1.62l4.11-1.16c1.57-.45.17-2.08-1.06-1.73l-4.11,1.16,1.32,1.62,2.26-1.39c1.23-.76-0.35-2-1.32-1.62l-1.69.62,1.54,1.46,2.46,1,2.35-.42-1.91-2.63L259.46,453l0.74,1.73,2.48,0.31,0.21-2.31-2.47-.06L267.2,477c0.31,1.12,2.58,1.15,2.45-.19a68,68,0,0,0-6.79-23.63c-0.43-.87-2.69-0.78-2.35.42,1.54,5.56,3.54,11.2,4.67,16.87,0.35,1.74,1,4.41,0,6.05-0.67,1.1-2.85,1.6-3.94,2a14.85,14.85,0,0,0-4.27,2.37c-1.14.94,1.08,1.66,1.81,1.35l7.86-3.36-1.59-1.51-1.75,1.22c-1.28.9,0.58,2.11,1.59,1.51l4.8-2.88-2-1.15-0.52,1.33,2.39,0.3-1.77-5.49-2.35.42,1.26,3c0.41,1,2.48.76,2.35-.42l-0.18-1.69-2.45.19,0.84,2.75c0.28,0.91,2.44,1.26,2.47.06l0-1.56-2.47-.06c0.22,2.79-10.65,5.71-6.22,5.34a18.05,18.05,0,0,0,4.88-1c2.9-1.16,3.42-3.65,2.7-6.63-0.25-1-1.85-1-2.39-.3-0.27.37,0.11,0.59,0,1-0.22,1.15.32,2-.18,3.36s1.67,1.67,2.33.78l0.81-1.08-2.33-.78L266.3,477l2.39,0.3-0.62-1.55a1.41,1.41,0,0,0-2.39-.3l-2.27,3.82c-0.66,1.12,1.73,1.79,2.33.78l1.69-2.79c0.6-1-1.31-1.62-2-1.15l-9.51,7c-1.25.92,0.63,2.22,1.59,1.51h0Z"/><path class="cls-12" d="M267.53,448.5l0.67-.56,0.07,2.05,2-1-1.44-1.89L267.36,450a1.47,1.47,0,0,0,.22,1.46l1,1.62c0.7,1.1,1.81.24,1.66-.8l-0.35-2.39-1.94.2,1.19,4.66,1.83-.51-1.74-3.69c-0.56-1.19-2.1-.88-1.83.51l1.08,5.58c0.22,1.13,2.15,1.59,2,.11l-0.62-5.51-2-.11a83.35,83.35,0,0,0,3.28,13.44L273,464a16.22,16.22,0,0,1-1.74-6.17c-0.1-1.29-2.16-2.05-2-.42a19.79,19.79,0,0,0,2,7.42c0.55,1.11,2.3.88,1.83-.51a83.35,83.35,0,0,1-3.28-13.44c-0.18-1.15-2.15-1.57-2-.11l0.62,5.51,2,0.11-1.08-5.58-1.83.51,1.74,3.69c0.55,1.15,2.19.89,1.83-.51l-1.19-4.66c-0.36-1.4-2.18-1.42-1.94.2l0.35,2.39,1.66-.8-1-1.62,0.22,1.46,1.51-2.82c0.43-.8-0.45-2.36-1.44-1.89l-2,1c-0.86.4-.4,1.57,0.07,2.05,1.25,1.28,2.71.09,2.21-1.48-0.43-1.35-2.44-1.37-1.94.2h0Z"/><path class="cls-12" d="M268.34,456.56l3.85,11.62c0.22,0.66,2.15,2.11,1.74.85l-3.85-11.62c-0.22-.66-2.15-2.11-1.74-0.85h0Z"/><path class="cls-12" d="M256.35,452.18a18,18,0,0,1-7.61,1.31c-1.18-.05-2.34,2-0.79,2a20.91,20.91,0,0,0,8.8-1.5c1.3-.52,1.13-2.47-0.39-1.86h0Z"/><path class="cls-12" d="M253.24,475.78l0.07,2.29c0,0.66,1.28,1.66,1.93,1.24a6.21,6.21,0,0,0,2.33-2.65l-2.08-1.11-0.1,5.11c0,0.64,1.65,1.91,2.08,1.11l1.15-2.14c0.47-.88-1.47-2.35-2-1.51l-2.77,4.46c-0.48.78,1.13,2.13,1.84,1.64l4.34-3-1.84-1.64L254.94,484c-0.61.84,1.26,2.14,2,1.51l3.2-2.79-2-1.51-0.75,1.63c-0.42.9,1.25,2.24,2,1.51l1.1-1.07c0.68-.66-1.26-2.23-2-1.51l-1.1,1.07,2,1.51,0.75-1.63c0.43-.93-1.22-2.19-2-1.51l-3.2,2.79,2,1.51,3.24-4.47c0.55-.76-1.15-2.12-1.84-1.64l-4.34,3,1.84,1.64,2.77-4.46-2-1.51-1.15,2.14,2.08,1.11,0.1-5.11c0-.63-1.7-1.93-2.08-1.11a5.47,5.47,0,0,1-2,2.39l1.93,1.24-0.07-2.29c0-.91-2.2-2-2.17-0.71h0Z"/><path class="cls-13" d="M228.68,452.38a68.42,68.42,0,0,1,13.6,3c2.93,1,4.17-2.43,1.2-3.4a75.16,75.16,0,0,0-14.89-3.28c-3.26-.37-2.7,3.4.09,3.72h0Z"/><path class="cls-13" d="M241.54,455.85a44.26,44.26,0,0,0,36.95-12c2-2-1.21-5.71-3.37-3.64A40.21,40.21,0,0,1,241.4,451c-3.06-.43-2.64,4.47.14,4.86h0Z"/><path class="cls-13" d="M243.9,453.6l0.08,1.6a4.13,4.13,0,0,0,1.18,2.8c0.46,0.43,1.42,1,1.93.31l1.62-2.32-2.85-4-1.64,3.19a3.12,3.12,0,0,0,.52,3.18c0.35,0.45,1.79,1.82,2.32.78l1.64-3.19a3.12,3.12,0,0,0-.52-3.18c-0.43-.56-1.66-1.73-2.32-0.78l-1.62,2.32,3.1,3.11-0.08-1.6a4,4,0,0,0-1.6-3.15,1.05,1.05,0,0,0-1.76.9h0Z"/><path class="cls-13" d="M260.71,453l7.52,23.61c0.16,0.5,2.52.2,2.48-.29a20.87,20.87,0,0,0-3.89-10.64c-0.33-.47-2.63.09-2.37,0.46a20.19,20.19,0,0,1,3.78,10.47l2.48-.29-7.52-23.61c-0.18-.57-2.6-0.07-2.48.29h0Z"/><path class="cls-13" d="M273.48,473.62c1.31,0.91,2.94,1.44,4-.16,0.59-.91-1.67-1.12-2.12-1l-1.13.39,2.12,1,0.82-.7c0.66-.56-1.61-1.29-2.12-1-7.21,4.5-13.22,10.89-21.36,13.8l2,1.08,9.15-4.27c1-.44-1.27-1.4-2-1.08L253.66,486c-1,.47,1.33,1.3,2,1.08,8.15-2.91,14.14-9.29,21.36-13.8l-2.12-1L274,473c-0.78.66,1.74,1.1,2.12,1l1.13-.39-2.12-1,0.22,0.59c-0.61-.42-3-0.34-1.91.43h0Z"/><path class="cls-13" d="M246.53,454.5a4.67,4.67,0,0,0-1.83,3.67c0,0.53,2,1.68,2.13,1.23l0.88-3-2.13-1.23,0.06,4.08c0,0.64,2.14,1.67,2.15,1.11a2.83,2.83,0,0,0-1.05-2.19c-0.17-.17-1.8-1.24-1.79-0.6l0,4.41c0,0.65,2.15,1.64,2.15,1.11l0-4.41-1.79-.6a1.49,1.49,0,0,1,.34,1.17l2.15,1.11-0.06-4.08c0-.51-2-1.69-2.13-1.23l-0.88,3,2.13,1.23a4.44,4.44,0,0,1,1.79-3.44c0.29-.23-1.52-1.8-2.11-1.35h0Z"/><path class="cls-13" d="M245.84,454.78a26.61,26.61,0,0,0,.73,8.93,3.11,3.11,0,0,0,2,1.32,26.61,26.61,0,0,1-.73-8.93c0.05-.61-2-1.77-2-1.32h0Z"/><path class="cls-13" d="M244,449.88a9.4,9.4,0,0,0,1.39,5.08c0.16,0.27,2.17-.92,2.13-1.31l-0.09-.86s-2.19.7-2.13,1.31l0.09,0.86,2.13-1.31a9.4,9.4,0,0,1-1.39-5.08,3.42,3.42,0,0,0-1.18.47,1.79,1.79,0,0,0-.94.85h0Z"/><path class="cls-13" d="M245,448.13a5.5,5.5,0,0,0,1.19,5.72,2,2,0,0,0,1.56.72c0.52-.15.25-0.55,0-0.85a4.33,4.33,0,0,1-.6-4.3c0.29-.76-1.91-1.91-2.14-1.29h0Z"/><path class="cls-13" d="M244.85,445.61a20.13,20.13,0,0,0,1.69,7.32c0.52,1.17,3,1,2.37-.36a18.55,18.55,0,0,1-1.59-6.78c-0.06-1.3-2.52-1.6-2.46-.18h0Z"/><path class="cls-13" d="M201.59,438.18l4.24,4.44c0.75,0.79,3,.26,2-0.85l-4.24-4.44c-0.75-.79-3-0.26-2,0.85h0Z"/><path class="cls-13" d="M232.69,428.1l-1,2.71c-0.47,1.23,1.9,2,2.37.79l1-2.71c0.47-1.23-1.9-2-2.37-.79h0Z"/><path class="cls-13" d="M233.64,428.58l3.7,3.69c0.38,0.38,2.3-1,2.28-1l-3.7-3.69c-0.38-.38-2.3,1-2.28,1h0Z"/><path class="cls-13" d="M233.06,425.32l-0.48,4.94c0,0.36,2.37.2,2.45-.52l0.48-4.94c0-.36-2.37-0.2-2.45.52h0Z"/><path class="cls-13" d="M274.93,441.28a13.58,13.58,0,0,0,7.45-1c0.36-.16.93-0.51,0.64-1s-1.27-.16-1.6,0a9,9,0,0,1-5,.69,2.08,2.08,0,0,0-1.71.46c-0.31.34-.33,0.77,0.23,0.85h0Z"/><path class="cls-13" d="M280.56,439.45a9,9,0,0,0-3,6.22c0,0.64,2.16,1.65,2.21,1a8.72,8.72,0,0,1,3-6c0.31-.28-1.6-1.75-2.17-1.24h0Z"/><path class="cls-13" d="M243.33,445.7a7.94,7.94,0,0,1-6.21,5.84c-0.41.08,0.48,0.76,0.55,0.81a2.29,2.29,0,0,0,1.47.52,8.19,8.19,0,0,0,6.38-6c0.16-.63-2.1-1.56-2.19-1.21h0Z"/><path class="cls-2" d="M223.66,482.9a154.29,154.29,0,0,1-4.87-27.41,0.59,0.59,0,0,0-.38-0.38l-0.07-1.17a28.14,28.14,0,0,0,.95-4.58c0-.45-1.6-0.87-1.69-0.48l-0.07.28-0.63-.35,0.23-.14c0.52-.32-0.52-1.64-1-1.4l-1,.49a1.25,1.25,0,0,0-1.14-.92l-0.73.28a27.67,27.67,0,0,0-4.39-1.23l-0.59-.17-3.27-2.1a3.25,3.25,0,0,0-.72-0.22c-0.42-.39-1-0.57-1,0.13l0.35,4.07a1.55,1.55,0,0,0,.55.79l0.11,0.58v0.75a1.21,1.21,0,0,0,.19.49,40.14,40.14,0,0,0,2.79,19.22c0.33,0.82,1.48.93,1-.15a37.61,37.61,0,0,1-2.66-11.53l1.06,4.8c0.23,1,1.77.58,1.7-.4l-0.84-11.08,1.37-.52-0.89.66a0.69,0.69,0,0,0,.14.94c-0.23.43,0.72,1.2,1,1.27a4.36,4.36,0,0,0,2.45-.15c0.38-.12.74-0.29,1.12-0.42a5.07,5.07,0,0,1,.86-0.26l0.2-.05a7.15,7.15,0,0,0,1.11,2.68,1.64,1.64,0,0,0,.86.61q0.13,2.76,0,5.52l-0.58-.74c-0.66-.84-1.4-0.2-0.75.64l1.57,2c0.2,0.26,1,.74,1.06.09q0.17-2.47.12-4.94l0.23,0.11A155.07,155.07,0,0,0,222,482.59C222.11,483,223.77,483.29,223.66,482.9Zm-18.07-29.67q0.06-1.29.21-2.58l0.19,2.57A1,1,0,0,0,205.59,453.23Zm0.41-5.79L205.92,446c0.26,0.19.52,0.37,0.79,0.54Zm6.25,0.06-0.19,0-0.65,0c-0.16-.15-0.32-0.29-0.49-0.42,0.48,0.14,1,.29,1.43.46Zm1.47,3.48-0.42,0,0.44-.27C213.73,450.82,213.72,450.9,213.72,451Zm3.24,1.29h-0.17c0-.4-0.1-0.8-0.16-1.21s-1.24-1.54-1.35-.66l-0.1.77-0.13-.29a2.11,2.11,0,0,0-.57-0.61l1.71-1c0.42,0.24.83,0.49,1.24,0.76C217.32,450.76,217.15,451.52,217,452.27Z"/><path class="cls-2" d="M251.23,483q-1.31-4.64-2.64-9.27l-2.92-10.26-1.51-5.3c-0.07-.24-0.13-0.59-0.21-1l0.06,0c2.26-1.38-.36-3.07-1.85-3.41-4.12-.92-8.3-1.64-12.44-2.45-0.82-.16-1.66.61-0.49,0.84l0.75,0.15a0.65,0.65,0,0,0-.11.27,0.74,0.74,0,0,0-.34.83l2.67,6a0.73,0.73,0,0,0,.76.41l-0.89,16c-0.16,2.84-.78,6.09-0.07,8.89a7,7,0,0,0,4.24,4.59,20.27,20.27,0,0,0,7.38,1.21c2.25,0.08,4.7,0,6.57-1.39C252.32,487.58,251.88,485.34,251.23,483Zm-9.57-2.2a8.13,8.13,0,0,1,0-2.57l0.74,0.45Zm7.6,2.55c0-.44-0.08-0.88-0.13-1.32l0.07-.11q0.22,0.79.42,1.58A0.79,0.79,0,0,0,249.25,483.39Zm-15.43-28.94a2.08,2.08,0,0,0-.48-1.43l2.87,0.57Zm-0.7,2.35v0l-0.2-.56,2-.73-0.51.91C233.94,456.28,233.15,456.38,233.12,456.8Zm14,17.83q-0.56-1.28-1.24-2.52a8.17,8.17,0,0,0,.31-0.77l0.93,3.28h0Zm-2.64-9.28,1.06,3.71a1,1,0,0,0-.65.55l-0.08.26v-0.21a0.62,0.62,0,0,0-.85-0.58,1.1,1.1,0,0,0-.35,0,0.62,0.62,0,0,0-.24-0.4l-0.06-.37a0.87,0.87,0,0,0,.44-0.88l-0.92-4.19a0.53,0.53,0,0,0-.18-0.3c0-2.1.35-4.27-.74-6.14a4.17,4.17,0,0,0-.35-0.51l0,0c0.93,0.72,1.17,3.12,1.46,4.14Zm-3.27-10.83-1.14.57a3.89,3.89,0,0,0-2.88-.27l0.21-.38a0.59,0.59,0,0,0,0-.63l2.71,0.53C240.4,454.41,240.79,454.46,241.17,454.52Zm7.71,34.05c-1.62,1.41-3.9,1.21-5.89,1.12-3.23-.15-7.36-0.55-8.91-3.93-1.23-2.68-.46-6.27-0.3-9.11l1-18.78a0.89,0.89,0,0,0,.36-0.06l0.51-.2c-0.08.53,0.77,0.82,1.33,0.54h0l0.07,0.1-0.41.36c-0.81.71,0.38,1.37,1.07,1l0.2-.11,0.26,0.37a1,1,0,0,0,1.49-.21l0.94-1.2a10.21,10.21,0,0,1,.28,3.38,18.32,18.32,0,0,0,.12,3.7L241,471.35a0.56,0.56,0,0,0,.56.59l-0.42,3.38c-0.09.7,0.94,0.65,1.31,0.44l0.29-.17q0,0.39,0,.78a0.54,0.54,0,0,0,.26.5l-0.08.25c-0.48-.26-1-0.51-1.47-0.75a1,1,0,0,0-1.25.6,9.45,9.45,0,0,0,.62,6.85,0.94,0.94,0,0,0,1.66-.23l1.29-3.87,0.2,0.17a7.08,7.08,0,0,1-3.09,5.73,0.75,0.75,0,0,0-.38.62l-0.14.06a4.08,4.08,0,0,0-3.14.74,0.68,0.68,0,0,0,.46,1.27,9.33,9.33,0,0,0,2.78-.53c0.51,0.08,1,.21,1.52.31a0.72,0.72,0,0,0,1,.51c0.47-.15.91-0.32,1.36-0.5a3.85,3.85,0,0,0,1.58-.74l0.06-.05,0.07,0,1-.44c0,0.17,0,.33,0,0.51,0,0.68.8,0.73,1.32,0.39a1,1,0,0,0,.89-0.63l0.26-1.36a0.78,0.78,0,0,0,.21-1.13l0.06-.32C250.18,485.88,250.25,487.38,248.88,488.58Z"/><path class="cls-2" d="M209.27,441.27V441.1a0.8,0.8,0,0,0-.41-0.73L214,439c1.1-.3-0.36-0.76-0.89-0.62l-5.27,1.44a0.77,0.77,0,0,0-1,0,0.87,0.87,0,0,0,.19,1.08,3.47,3.47,0,0,0,.49.48q0,0.15,0,.3a0.08,0.08,0,0,0,0,0l0.06,0a2.31,2.31,0,0,0,1.16,2c1.19,0.64,2.71.47,3.94,1.08a0.77,0.77,0,0,0,1-.23l0.55,0.19a3.65,3.65,0,0,0,1.62-.5A35,35,0,0,1,209.27,441.27Z"/><path class="cls-2" d="M233,436.15a11.08,11.08,0,0,1-3.73-2.07l3.13-.6a1.25,1.25,0,0,0,.83-0.35,1.21,1.21,0,0,0-.9,0l-3.59.69c-0.47-.15-1.07-0.11-0.95.2-0.2.06-.37,0.14-0.34,0.24a0.68,0.68,0,0,0,.62.09,14.59,14.59,0,0,0,5.06,2.76c0.25,0.08.74,0.13,0.76-.23A1.19,1.19,0,0,0,233,436.15Z"/><path class="cls-2" d="M219.59,444.93a0.91,0.91,0,0,0-.47-0.36,1.2,1.2,0,0,0-.68,0,0.66,0.66,0,0,0-.46.29l-0.15.41-0.84-.48a1,1,0,0,0-1.22.14,0.64,0.64,0,0,0,.23,1l1,0.58a1,1,0,0,0,1.22-.14,0.67,0.67,0,0,0,.09-0.17,1.16,1.16,0,0,0,.63,0,0.66,0.66,0,0,0,.46-0.29l0.18-.47A0.5,0.5,0,0,0,219.59,444.93Z"/></svg>