<?xml version="1.0" encoding="UTF-8" standalone="no"?>
<svg
   xmlns:dc="http://purl.org/dc/elements/1.1/"
   xmlns:cc="http://creativecommons.org/ns#"
   xmlns:rdf="http://www.w3.org/1999/02/22-rdf-syntax-ns#"
   xmlns:svg="http://www.w3.org/2000/svg"
   xmlns="http://www.w3.org/2000/svg"
   height="500"
   width="500"
   version="1.1"
   viewBox="0 0 499.99998 500.00002"
   data-name="Capa 1"
   id="Capa_1">
  <metadata
     id="metadata3940">
    <rdf:RDF>
      <cc:Work
         rdf:about="">
        <dc:format>image/svg+xml</dc:format>
        <dc:type
           rdf:resource="http://purl.org/dc/dcmitype/StillImage" />
        <dc:title>globo</dc:title>
      </cc:Work>
    </rdf:RDF>
  </metadata>
  <defs
     id="defs3875">
    <style
       id="style3873">.cls-1,.cls-5{fill:#cd6a52;}.cls-2,.cls-4,.cls-5,.cls-6,.cls-8{opacity:0.89;}.cls-3,.cls-6{fill:#c3938a;}.cls-4{fill:#903f2e;}.cls-7{fill:#d6c2be;}.cls-8{fill:#a89c9a;}.cls-9{fill:#bdb1af;}.cls-10,.cls-11{fill:#010002;}.cls-11{stroke:#010002;stroke-miterlimit:10;stroke-width:0.5px;}</style>
  </defs>
  <title
     id="title3877">globo</title>
  <g
     transform="translate(-27.949612,-8.5350032)"
     id="g3971">
    <path
       class="cls-1"
       d="m 206.31,194.44001 c 0.4,-1.11 1.44,-3.43 3,-3.42 2.59,0 5.18,0.1 7.75,0.25 a 22.18,22.18 0 0 0 0.56,-5.25 c 0,-2.67 -0.25,-5.34 -0.24,-8 0.67,-5.42 2.35,-10.81 3.35,-16.15 0.58,-3.12 0.77,-6.23 1.12,-9.37 a 47.82,47.82 0 0 1 2.05,-9.08 c 1.64,-5 3.35,-10.1 5.46,-14.94 1.19,-2.74 2.68,-5.32 4,-8 1.16,-2.44 2.18,-5 3.54,-7.29 a 57.74,57.74 0 0 1 8.1,-8.51 10.21,10.21 0 0 0 6.4,-5.339995 15.55,15.55 0 0 0 1,-9.5 q -10.81,2.57 -21.55,5.43 c -17.86,4.759995 -35.54,10.089995 -53.14,15.699995 -4.32,3.72 -8.71,7.35 -13,11.13 -2.47,2.19 -4.9,4.42 -7.22,6.76 q -1.63,1.64 -3.19,3.34 c -0.11,0.12 -1,1.16 -1.07,1.21 -0.44,0.51 -0.87,1 -1.29,1.56 a 70.34,70.34 0 0 0 -5.53,7.9 q -1.31,2.19 -2.45,4.49 l -0.26,0.55 c 0.11,-0.22 0.14,-0.27 -0.21,0.43 v 0 c -0.33,0.77 -0.64,1.55 -1,2.33 -0.75,1.85 -1.45,3.71 -2,5.62 q -0.2,0.66 -0.39,1.32 l -0.09,0.3 c -0.06,0.25 -0.16,0.62 -0.19,0.75 q -0.15,0.66 -0.29,1.33 c -0.39,1.87 -0.69,3.76 -0.94,5.66 l -0.07,0.4 c 0,0.08 0,0.18 0,0.31 -0.08,0.9 -0.16,1.79 -0.22,2.69 0,0.51 -0.06,1 -0.09,1.52 a 25.79,25.79 0 0 1 0.58,2.77 37.8,37.8 0 0 1 0.45,7.6 c 0.9,0.25 1.8,0.51 2.69,0.77 10.09,3 20,6.66 30.18,9.23 8.41,2 16.9,3.78 25.39,5.49 q 4.06,0.82 8.13,1.6 a 15.61,15.61 0 0 1 0.68,-3.59 z m -51.61,-30.71 1.48,-2.56 a 27.55,27.55 0 0 0 2.14,2.62 z m 40,-7.1 a 96.06,96.06 0 0 0 -2.21,11.5 26.18,26.18 0 0 0 -3,-1 c 0.11,-0.54 0.23,-1.07 0.37,-1.6 a 71.27,71.27 0 0 1 5.14,-10.67 z"
       id="path3879"
       style="fill:#cd6a52" />
    <g
       class="cls-2"
       id="g3885"
       style="opacity:0.88999999"
       transform="translate(0,17.140015)">
      <path
         class="cls-3"
         d="m 307.5,96.45 a 174.85,174.85 0 0 0 -10.81,-17.83 30.51,30.51 0 0 0 -6.86,-7.8 26,26 0 0 0 -3.52,-2.15 c -6.69,-0.63 -13.39,-1.06 -20.11,-1.35 a 4.32,4.32 0 0 1 -3,2.84 q -8.87,2 -17.69,4.15 c 0,0.12 0,0.24 -0.06,0.36 -0.27,2.17 -0.59,4.34 -0.94,6.5 -2.74,1.22 -4.73,4.53 -6,7 a 42.11,42.11 0 0 0 -2.37,6.32 c -1.07,3.09 -2.21,6.16 -3,9.33 -0.59,2.24 -0.94,4.52 -1.53,6.75 -1.37,4 -2.79,7.91 -4.07,11.91 -2.19,6.84 -4.24,13.65 -5.79,20.69 a 80.33,80.33 0 0 0 -1.42,12.88 c 0,0.73 -0.06,1.45 -0.06,2.16 l -1,1.12 a 14,14 0 0 0 -3.75,12.44 20.46,20.46 0 0 0 0.5,2.29 c 11.3,0.59 22.49,2.42 33.71,3.86 21,2.69 42.17,2.84 63.31,2.85 1.84,-4.2 2.38,-8.8 2.8,-13.52 1,-11.7 0.65,-23.46 1,-35.19 0.16,-6.17 -1.13,-12 -2.83,-17.86 A 101.59,101.59 0 0 0 307.5,96.45 Z m -42.41,63.06 a 28.25,28.25 0 0 0 -3.66,-0.44 c 0.26,-1.23 0.48,-2.46 0.64,-3.65 a 105.62,105.62 0 0 0 0.45,-15.79 c 0.71,2.35 1.4,4.71 2.07,7.08 1.12,4 2.15,7.95 3.15,11.95 q 0.19,0.76 0.4,1.52 c -1.02,-0.23 -2.03,-0.47 -3.05,-0.67 z"
         id="path3881"
         style="fill:#c3938a" />
      <path
         class="cls-3"
         d="m 227.47,122.87 0.12,-0.37 0.92,-2.86 z"
         id="path3883"
         style="fill:#c3938a" />
    </g>
    <path
       class="cls-4"
       d="m 418.42,175.80001 q -1.31,-3.74 -2.72,-7.45 c -0.41,-1.08 -0.83,-2.15 -1.25,-3.22 l -0.09,-0.22 -0.08,-0.18 -0.53,-1.28 q -1.12,-2.67 -2.32,-5.31 c -1,-1.45 -2,-2.89 -2.95,-4.32 -3,-4.36 -6,-8.72 -8.78,-13.25 l -0.07,-0.12 a 180.28,180.28 0 0 0 -14.63,-12.15 7,7 0 0 0 1,-1 12.51,12.51 0 0 0 2.39,-4.23 q -1.45,-1.86 -3.05,-3.61 c -2.73,-1.79 -5.51,-3.53 -8.38,-5 -8.23,-4.34 -18.21,-7.84 -22.73,-16.529995 -4.69,-1 -9.43,-1.77 -14.15,-2.59 -6.08,-1.06 -12.08,-2.38 -18.08,-3.86 l 1.25,0.3 c -7.73,-1.87 -15.56,-3.32 -23.44,-4.41 -7.44,-1 -14.89,-1.76 -22.37,-2.28 a 20.86,20.86 0 0 0 2.72,2.78 20.23,20.23 0 0 0 8.06,8.33 c 1.73,1 3.58,1.73 5.32,2.68 1.49,1 3,1.999995 4.45,2.999995 2.4,4.89 7.06,8.2 11.66,11.1 l 2.51,3.81 a 36.18,36.18 0 0 1 2,3.8 c 0.2,0.61 0.39,1.22 0.55,1.85 0.29,2.61 0.49,5.23 0.94,7.84 0.29,1.68 0.68,3.33 1,5 a 59.52,59.52 0 0 0 0.66,7.73 c 0.28,1.36 0.76,2.66 1.13,4 0.31,4.07 0,8.23 0,12.28 0,4.05 0.13,8.27 0,12.4 -0.09,0.72 -0.21,1.44 -0.36,2.15 -0.15,0.71 -0.58,1.27 -0.92,1.89 -1.24,1.41 -2.7,2.61 -3.8,4.15 a 11.61,11.61 0 0 0 -2.86,5.89 12.51,12.51 0 0 0 0.07,5.51 19.12,19.12 0 0 0 2.32,6.62 h 7.75 c 17.37,0 34.76,0.16 52.09,1.25 10.17,-0.79 20.48,-1 30.38,-3.37 4,-1 7.49,-2.16 10.51,-5 3.83,-3.63 4.86,-9.2 5.07,-14.27 z m -74.78,-3.08 v -0.24 l 0.45,0.16 z m 36.72,-4 c -2.68,0.25 -5.36,0.43 -8,0.62 0.06,-2 0.15,-3.94 0.14,-5.9 a 98.62,98.62 0 0 0 -0.77,-12.91 l -0.1,-0.7 2.17,1.65 a 193,193 0 0 1 15.1,12.53 c 1,1.07 2,2.16 2.92,3.29 -3.82,0.72 -7.72,1.09 -11.46,1.44 z"
       id="path3887"
       style="opacity:0.88999999;fill:#903f2e" />
    <path
       class="cls-5"
       d="m 317.11,375.19001 c -1.59,-1.95 -3.87,-2.44 -6.22,-2.72 a 57.59,57.59 0 0 1 -14.32,-3.4 25.48,25.48 0 0 0 -7.1,-2.21 c -2.93,-0.27 -5.88,-0.18 -8.82,-0.17 -2.94,0.01 -6.11,-0.08 -9.16,-0.2 a 3.87,3.87 0 0 0 -0.46,-0.19 12.14,12.14 0 0 0 -6.66,-0.12 h -0.71 c -2.93,-0.12 -6.09,-0.4 -8.89,0.68 a 16.7,16.7 0 0 0 -3.48,2.26 c -1.08,0.76 -2.22,1.4 -3.29,2.18 a 4.57,4.57 0 0 0 -2.75,-1.45 l -0.6,-0.06 a 3.86,3.86 0 0 0 -2.87,0.8 25.43,25.43 0 0 1 -2.61,0.16 2.68,2.68 0 0 0 -0.89,0.14 c -2.16,0.1 -3.5,2.43 -3.41,4.53 a 6.59,6.59 0 0 0 4.83,6.09 c 4.89,1.13 9.65,3.1 14.5,4.45 5.05,1.4 10.23,2.17 15.25,3.63 5.02,1.46 10.88,0.82 16.18,0.78 2.49,0 5,0 7.47,-0.17 a 33.11,33.11 0 0 0 7.81,-1.77 c 4.68,-1.41 9.37,-2.76 14,-4.16 4.15,-1.26 4.85,-5.83 2.2,-9.08 z"
       id="path3889"
       style="opacity:0.88999999;fill:#cd6a52" />
    <path
       class="cls-4"
       d="m 324.26,400.48001 a 7.54,7.54 0 0 0 -2.65,-2.8 17.67,17.67 0 0 0 -0.74,-3.33 c -1,-3.29 -1.82,-6.62 -2.82,-9.91 -0.63,-2.07 -1.38,-4.19 -3.14,-5.59 a 5,5 0 0 0 -5.85,-0.28 c -2.87,1.61 -5.56,3.47 -8.46,5.06 -2.74,1.5 -5.64,3.55 -8.71,4.26 -3.53,0.82 -7.42,-0.4 -10.9,0.5 a 4.15,4.15 0 0 0 -3.14,4.27 c -0.88,2.21 0,4.51 1,6.56 1.68,3.28 3.68,6.38 5.25,9.72 1.28,2.74 1.58,6.3 1.54,9.7 a 20.93,20.93 0 0 0 0.18,5.45 c 0.79,3 3.64,5.69 6.83,4.8 a 20.46,20.46 0 0 0 4.48,-2.29 c 1.74,-1 3.5,-2 5.22,-3.05 a 39.5,39.5 0 0 0 5.69,-4 c 1.58,-1.4 3,-3 4.48,-4.49 a 71.57,71.57 0 0 1 10.48,-7.68 c 2.31,-1.53 2.47,-4.54 1.26,-6.9 z m -28.18,13.89 -1.56,0.91 a 29.73,29.73 0 0 0 -1.42,-6.9 46.91,46.91 0 0 0 -3.65,-7.69 h 0.78 q 0.76,0.53 1.55,1 0.79,0.47 1.76,1 a 11.91,11.91 0 0 0 0.32,7.84 6,6 0 0 0 3.36,3.15 z"
       id="path3891"
       style="opacity:0.88999999;fill:#903f2e" />
    <path
       class="cls-6"
       d="m 289.54,427.32001 c -0.51,-5 -2.87,-9.76 -4.8,-14.31 -2.12,-5 -4.28,-10 -6.34,-15 a 2.59,2.59 0 0 0 -0.16,-0.32 4.41,4.41 0 0 0 0.57,-0.74 c 1.07,-1.77 -0.63,-4.32 -2.41,-4.73 a 2.23,2.23 0 0 0 -0.75,0 v -0.17 a 4.75,4.75 0 0 0 -1.49,-2.87 c -1.46,-1.23 -3.48,-0.84 -5.25,-1.12 -3.67,-0.58 -6.93,-2.5 -10.44,-3.64 -3.92,-1.28 -8,-2.3 -12,-3.26 -2.76,-0.66 -6.43,-1.89 -9.55,-1.65 -1.42,-1.33 -3.9,-1.28 -4.07,1.5 -0.48,8 0.05,16 0.09,23.94 a 62.61,62.61 0 0 0 0.77,11.83 28.83,28.83 0 0 0 3.1,7.64 c 1.69,3.16 3.78,4.83 7.36,5.27 a 41.88,41.88 0 0 0 5.1,0.2 c 1.89,0 3.85,0.2 5.73,0.11 3.48,-0.17 2.56,-6.49 2.23,-8.72 a 80.19,80.19 0 0 0 -3,-11.16 c -0.36,-1.2 -0.74,-2.4 -1.13,-3.61 0,-0.15 0,-0.3 0,-0.43 a 96.83,96.83 0 0 0 -1.12,-10.43 4.82,4.82 0 0 0 -1.09,-2.47 3,3 0 0 0 0.34,-1 45.26,45.26 0 0 0 8.56,2.9 11.15,11.15 0 0 0 -4.69,2.18 c -1.41,1.33 -0.3,3.62 0.79,4.66 1.09,1.04 3.28,0.94 4.87,0.91 0,0.28 0,0.56 0,0.84 -0.3,0.24 -0.61,0.47 -0.92,0.69 -1.32,0.95 -3.51,2.06 -3.66,3.89 a 4.11,4.11 0 0 0 1.58,3.68 4.27,4.27 0 0 0 -0.23,2.82 4.41,4.41 0 0 0 1.4,2.29 v 0.09 a 5.71,5.71 0 0 0 -0.6,3.09 4.62,4.62 0 0 0 1.67,2.92 4,4 0 0 0 0.84,0.5 c 0.27,1.66 1.91,3.25 3.34,3.06 a 3.62,3.62 0 0 0 2,3.8 c 2,0.76 4.67,0.43 6.83,0.43 a 35.4,35.4 0 0 1 7.71,0.58 c 1.08,0.24 2.06,0.78 3.13,1 a 6,6 0 0 0 3.11,-0.25 c 2.38,-0.62 2.82,-2.52 2.58,-4.94 z m -51.89,-36.33 a 2.59,2.59 0 0 0 0.37,0.14 v 0.05 l -0.33,0.38 c -0.04,-0.2 -0.04,-0.42 -0.04,-0.57 z m 3.86,32.15 a 16,16 0 0 1 -2.29,-4.58 20.24,20.24 0 0 1 -1.16,-5.34 c -0.35,-4.36 -0.28,-8.81 -0.3,-13.2 a 5.58,5.58 0 0 0 1.09,0.14 24.41,24.41 0 0 0 -0.45,6.24 8.14,8.14 0 0 0 0.6,2.69 c 0.31,0.72 0.89,1.28 1.24,1.93 -0.3,-0.48 0,1.33 0,1.64 a 25.82,25.82 0 0 0 0.3,2.76 15.39,15.39 0 0 0 1.84,5 c 0.39,0.71 0.81,1.41 1.22,2.1 0.14,0.24 0.65,1.21 0.87,1.51 -1.23,-0.12 -2.47,-0.32 -2.96,-0.89 z m 3.64,-12.36 a 6,6 0 0 0 -0.14,-0.69 4.17,4.17 0 0 0 -0.5,-1.12 l 0.65,0.07 c 0,0.56 -0.01,1.1 -0.01,1.72 z m 0,-7.81 h -0.2 l 0.11,-0.23 0.07,-0.14 v 0.08 0.31 z m 36.4,23.13 -0.81,-0.22 c -0.17,-1.44 -1.13,-2.94 -2.58,-3.11 l -0.75,-0.08 a 3.32,3.32 0 0 0 -3.16,-2.53 h -2.56 c 0,-0.42 0,-0.83 0,-1.25 0,-2.81 -0.06,-5.62 -0.09,-8.42 0,-2.16 -0.06,-4.32 -0.18,-6.46 a 2.38,2.38 0 0 0 1,-2.13 6.06,6.06 0 0 0 -0.16,-1.15 2.25,2.25 0 0 0 2.1,0.72 l 0.28,-0.07 c 1.87,4.51 3.83,9 5.7,13.49 a 71.11,71.11 0 0 1 2.75,6.77 c 0.44,1.45 1.33,3.43 1.39,5.14 a 7,7 0 0 1 -2.92,-0.73 z"
       id="path3893"
       style="opacity:0.88999999;fill:#c3938a" />
    <path
       class="cls-7"
       d="m 264,420.52001 a 26.94,26.94 0 0 1 -1.55,-3.7 c -0.49,-1.92 -0.87,-3.84 -1.18,-5.78 0,-1.14 0.09,-2.27 0.1,-3.45 a 40,40 0 0 0 -0.42,-6.25 2.36,2.36 0 0 0 0.8,-2 c 0,-3.07 0.12,-6.16 0,-9.23 -0.09,-2.3 -1,-4.45 -3.22,-5.45 -2,-0.92 -5.67,-1.32 -6.18,1.54 -0.46,2.62 0.09,5.37 0.3,8 a 77.65,77.65 0 0 0 2.62,15.71 c 0.68,2.28 1.1,4.63 1.82,6.9 a 70,70 0 0 1 2.62,8.44 c 0.54,2.88 5,3.74 4.93,0.15 a 12.28,12.28 0 0 0 -0.64,-4.88 z"
       id="path3895"
       style="fill:#d6c2be" />
    <path
       class="cls-7"
       d="m 308.47,406.67001 c -0.65,-2.08 -1.52,-4.12 -2.1,-6.22 -0.51,-1.86 -1,-3.75 -1.46,-5.62 -0.3,-1.15 -0.62,-2.29 -1,-3.42 a 17.24,17.24 0 0 1 -1.1,-3.41 3.64,3.64 0 0 0 -2.66,-3.36 2,2 0 0 0 -2.19,1.24 2.64,2.64 0 0 0 -0.84,2.93 c 1.5,4.25 2.33,8.82 3.75,13.13 0.65,2 1.38,3.86 2.1,5.8 0.35,0.93 0.76,1.77 1.09,2.7 0.2,0.55 0.46,1.36 0.24,0.31 a 8.12,8.12 0 0 0 0.56,1.83 c 0.91,2 4,2.74 4.58,0.1 0.41,-2.01 -0.37,-4.1 -0.97,-6.01 z"
       id="path3897"
       style="fill:#d6c2be" />
    <path
       class="cls-8"
       d="m 310.17,407.36001 c 0,-2.73 -1.19,-5.31 -2.34,-7.74 -0.61,-1.29 -1,-2.64 -1.57,-4 -0.57,-1.36 -1.39,-2.78 -2,-4.23 l -0.19,-0.45 a 17.33,17.33 0 0 0 -2.3,-7.05 c -0.86,-2.36 -3.75,-4.14 -6.06,-4.48 h -0.38 a 12.12,12.12 0 0 0 -1.65,-0.76 18.34,18.34 0 0 0 -6.4,-0.74 18.44,18.44 0 0 0 -2,-0.64 25.72,25.72 0 0 0 -3,-0.15 7.58,7.58 0 0 1 -0.79,-0.14 c 1.86,-0.39 3.65,-0.54 5.32,-1.87 2.33,-1.86 -1.18,-6.81 -3.81,-4.71 a 4.88,4.88 0 0 1 -2.59,0.61 16.37,16.37 0 0 0 -3.63,1 16.4,16.4 0 0 1 -3.2,0.78 28.58,28.58 0 0 0 -2.9,1 c -1.24,-0.43 -2.49,-0.74 -3.81,-1.18 a 50.63,50.63 0 0 1 -5.66,-2.12 c -1.83,-0.87 -3.89,-1.32 -5.76,-2.2 -3.47,-1.65 -3.76,4.08 -1,5.39 1.81,0.86 3.75,1.39 5.61,2.09 -0.5,-0.18 0.41,0.27 0.69,0.42 a 9.2,9.2 0 0 0 1.48,0.59 c 0.48,0.15 1,0.31 1.42,0.48 a 12.14,12.14 0 0 1 -2.39,0.8 c -0.74,0.13 -1.5,0.08 -2.24,0.25 a 17.34,17.34 0 0 1 -4.64,0.88 c -1.48,0 -2.88,0.24 -3.62,1.67 a 3.48,3.48 0 0 0 0.61,3.58 l 0.2,0.21 c 0.94,1 2.42,1.73 3.57,0.59 a 1.85,1.85 0 0 0 0.23,-0.28 21,21 0 0 0 3,-0.1 32,32 0 0 1 4,-1 16.88,16.88 0 0 0 4.62,-1.41 41.6,41.6 0 0 0 3.85,-2.61 2.08,2.08 0 0 0 0.43,0 10.11,10.11 0 0 0 1.26,0.7 4.31,4.31 0 0 0 1.81,0.27 3.53,3.53 0 0 1 0.94,-0.07 3,3 0 0 0 1.53,0.52 19.3,19.3 0 0 0 8,1.65 c 1.13,0.11 2.13,0.7 3.27,0.77 1.94,0.11 3.61,-0.08 5.42,0.73 a 17.38,17.38 0 0 1 2.35,1.33 4.53,4.53 0 0 0 0,1.65 7.54,7.54 0 0 0 1.46,2.87 8.68,8.68 0 0 1 1,3 c 0.53,2.53 1.65,4.75 2.33,7.22 0.34,1.23 0.89,2.39 1.14,3.65 a 17.57,17.57 0 0 0 0.86,3.78 14.9,14.9 0 0 0 0.82,1.59 l 0.25,0.42 c 0,0 -0.06,0 0,0.28 0.25,1.28 0.16,2.27 1.1,3.34 0.94,1.07 2.33,1.58 3.57,0.59 2.1,-1.47 1.76,-4.52 1.79,-6.77 z"
       id="path3899"
       style="opacity:0.88999999;fill:#a89c9a" />
    <path
       class="cls-9"
       d="m 295.54,379.84001 c -1.53,-0.43 -3,-1.17 -4.54,-1.62 -1.54,-0.45 -3.16,-1 -4.71,-1.53 a 9.52,9.52 0 0 0 1.85,-0.84 c 2.35,-1.58 1.72,-5.1 -0.62,-6.38 -1.57,-0.86 -4.42,-0.52 -6.09,-0.17 a 30.63,30.63 0 0 0 -6.89,2.64 c -1.1,0.53 -2.19,1 -3.29,1.54 a 16.88,16.88 0 0 0 -2.4,-0.9 c -2,-0.59 -3.91,-1.27 -5.9,-1.71 -3.71,-0.82 -7.17,-3 -11,-3.51 -3.56,-0.48 -2.68,5.41 0.28,5.81 3.58,0.48 6.88,2.47 10.39,3.37 -0.63,0.21 -1.28,0.4 -2,0.58 a 24.1,24.1 0 0 1 -5.32,1.16 1.59,1.59 0 0 0 -1.56,1 c -3.24,0.15 -1.41,6 1.59,5.85 a 19.15,19.15 0 0 0 4.36,-1.07 l 4.72,-1.36 a 43.12,43.12 0 0 0 7.31,-2.66 l 0.37,-0.18 a 6.23,6.23 0 0 0 1.6,0.45 v 0 a 3.74,3.74 0 0 0 0.79,0.29 21.23,21.23 0 0 0 5.1,0.09 c 2.13,0 3.69,0.73 5.65,1.43 1.96,0.7 3.78,1.27 5.69,1.86 1.63,0.5 3.17,1.23 4.8,1.69 1.63,0.46 2.42,-1.2 2.38,-2.45 a 3.65,3.65 0 0 0 -2.56,-3.38 z"
       id="path3901"
       style="fill:#bdb1af" />
    <path
       class="cls-10"
       d="m 141.85,183.60001 c 1.59,-22.59 13.35,-43 29.91,-58.05 18.59,-16.92 42.66,-26.259995 67,-31.259995 25.44,-5.23 52.66,-7.48 78.45,-3.82 26.83,3.81 50.37,16.269995 67.55,37.329995 a 109.14,109.14 0 0 1 24.84,67.54 c 0,1.14 4.63,1.91 4.63,1.88 -0.46,-47.08 -32.64,-88.62 -76.89,-103.239995 -25.59,-8.46 -53.09,-8.33 -79.62,-5.36 -27,3 -54.34,9.63 -77.27,24.709995 -23.29,15.31 -41.25,40 -43.24,68.39 -0.07,1 4.62,2 4.63,1.88 v 0 z"
       id="path3903"
       style="fill:#010002" />
    <path
       class="cls-10"
       d="m 139.19,182.47001 a 723.37,723.37 0 0 0 212.38,21.46 q 30.52,-1.47 60.83,-5.53 c 2.18,-0.29 0.27,-3.66 -1.41,-3.43 a 720.65,720.65 0 0 1 -213.55,-3.46 q -29.66,-5 -58.83,-12.4 c -2.34,-0.59 -1.08,2.94 0.58,3.36 z"
       id="path3905"
       style="fill:#010002" />
    <path
       class="cls-10"
       d="m 254.34,89.670015 c -15.53,8.64 -20.65,29.359995 -26,44.999995 -6.76,19.61 -11.78,40 -9.36,60.85 0.14,1.2 2.93,2 2.74,0.39 -2.45,-21.12 2.94,-41.81 9.87,-61.6 5.24,-15 10.17,-34.459995 25,-42.739995 1.17,-0.65 -1.19,-2.46 -2.28,-1.85 v 0 z"
       id="path3907"
       style="fill:#010002" />
    <path
       class="cls-10"
       d="m 283.67,90.500015 c 20.64,7.51 29.93,29.169995 32.48,49.539995 a 209.45,209.45 0 0 1 1.26,31.74 c -0.3,10.76 -1.91,21.58 -8.42,30.46 -1.19,1.63 2,2.65 3,1.32 6.3,-8.59 8.32,-18.93 8.81,-29.38 a 189,189 0 0 0 -1.68,-37.75 c -3.12,-20.2 -13.37,-40.789995 -33.68,-48.179995 -1.67,-0.61 -3.92,1.47 -1.77,2.25 z"
       id="path3909"
       style="fill:#010002" />
    <path
       class="cls-10"
       d="m 230.4,373.47001 a 156.91,156.91 0 0 0 2.7,28.38 c 1,5 2.12,10 2.93,15 0.54,3.34 0.39,6.8 2.46,9.63 0.4,0.55 2.66,0.35 2.42,0 -2.4,-3.29 -2.17,-8.35 -2.9,-12.25 -0.87,-4.68 -1.91,-9.32 -2.76,-14 a 154.68,154.68 0 0 1 -2.37,-26.59 c 0,-0.61 -2.49,-0.75 -2.49,-0.24 v 0 z"
       id="path3911"
       style="fill:#010002" />
    <path
       class="cls-10"
       d="m 230.77,375.14001 c 7.3,6.1 17.14,8.18 26.21,10.54 4.72,1.22 9.41,1.58 14.12,2.54 1.94,0.4 5,1.11 6.33,2.7 0.68,0.84 0.66,2.63 0.8,3.63 0.37,2.66 0.68,5.28 1.27,7.91 a 134.85,134.85 0 0 0 4.43,14.57 c 0.81,2.33 2.38,5.24 2.67,7.72 0.48,4 -5.17,5 -8.32,5 a 41.12,41.12 0 0 1 -4.3,-0.36 c -5.5,-0.56 -10.59,-2.07 -16,-3.25 -4.65,-1 -9.63,-0.38 -14.34,-0.13 -0.72,0 -2.63,1.17 -1,1.08 a 80.34,80.34 0 0 1 10.49,-0.3 c 3.7,0.29 7.28,1.63 10.92,2.4 5.23,1.11 11.1,2.1 16.47,1.67 2.44,-0.2 5.9,-0.76 7.56,-2.78 3.12,-3.78 -1.89,-12 -3.2,-16 -2.11,-6.35 -3.15,-12.57 -4.32,-19.11 -1,-5.59 -4.65,-5.47 -9.65,-6.06 a 113.25,113.25 0 0 1 -19.52,-4.42 c -6.69,-2 -12.91,-3.7 -18.35,-8.24 -0.55,-0.46 -2.74,0.44 -2.28,0.82 v 0 z"
       id="path3913"
       style="fill:#010002" />
    <path
       class="cls-10"
       d="m 279.75,390.35001 c 8.91,0 15.71,-2.33 23.52,-6.26 2.34,-1.18 4.75,-3.88 7,-4.71 3.71,-1.35 4.32,1.82 5.21,4.67 0.71,2.28 1.39,4.59 1.88,6.93 0.7,3.31 0.56,6.2 1.72,9.37 2,5.42 -2.69,7.3 -6.43,9.64 -2,1.24 -3.71,2.8 -5.62,4.15 -2.23,1.58 -4.62,2.38 -7,3.56 -3.72,1.81 -5.91,6.18 -10,7.08 -1.64,0.36 -0.4,1.49 0.78,1.23 4.33,-0.94 5.9,-4.36 9.41,-6.62 2.3,-1.48 5.09,-2 7.42,-3.54 2.33,-1.54 4.49,-3.55 6.93,-5.08 2.44,-1.53 6.22,-3 7.35,-6.14 a 6.54,6.54 0 0 0 -0.2,-4.31 45.89,45.89 0 0 1 -1.52,-8.18 c -0.54,-3.94 -1.77,-10.59 -4.32,-13.78 a 4.1,4.1 0 0 0 -4.82,-1.26 c -3.35,1 -6,4.31 -9.15,5.92 -7.13,3.67 -13.48,6 -21.62,5.95 -1.2,0 -2.22,1.35 -0.54,1.35 v 0 z"
       id="path3915"
       style="fill:#010002" />
    <path
       class="cls-10"
       d="m 233.82,376.56001 c 5.09,-4.31 13.17,-4.83 19.37,-6.91 8.07,-2.71 14.89,-4.34 23.27,-1.28 a 125,125 0 0 0 16.7,4.82 c 6.64,1.44 13.31,2 19.9,3.43 0.62,0.14 -1,-1.43 -1.55,-1.56 -7.13,-1.56 -14.37,-2.23 -21.56,-3.78 -7.19,-1.55 -13.67,-5 -20.76,-6.05 -7.09,-1.05 -12.94,1.32 -19.45,3.39 -5.89,1.87 -13.13,2.42 -18,6.51 -0.3,0.26 1.52,1.87 2.06,1.42 v 0 z"
       id="path3917"
       style="fill:#010002" />
    <path
       class="cls-10"
       d="m 138,181.14001 c -0.45,6.72 4.84,13 8.5,18.17 5.42,7.66 10.53,15.32 15.41,23.34 9.83,16.15 19.45,32.29 27.29,49.52 7.75,17 15.34,34.26 22.37,51.62 3.36,8.31 7.47,16.19 11,24.41 3.75,8.71 6.1,18.15 8.32,27.34 0.27,1.13 2.76,1.19 2.46,-0.07 a 232.76,232.76 0 0 0 -7.41,-25 c -2.88,-7.91 -7.41,-15.12 -10.44,-23 -6.57,-17.07 -14.16,-33.92 -21.66,-50.6 a 444.35,444.35 0 0 0 -25.75,-48.32 c -4.89,-8.06 -9.58,-16.27 -15.1,-23.92 -2.47,-3.42 -5,-6.82 -7.31,-10.33 -2.31,-3.51 -5.51,-8.43 -5.22,-12.71 0.08,-1.22 -2.38,-1.62 -2.46,-0.42 v 0 z"
       id="path3919"
       style="fill:#010002" />
    <path
       class="cls-10"
       d="m 409.45,197.02001 c -2.6,0.77 -3.57,3.51 -4.9,5.67 a 107.26,107.26 0 0 0 -6.89,12.34 c -3.7,8.2 -7.13,16.51 -11,24.63 a 149.25,149.25 0 0 1 -14.3,24.68 254.44,254.44 0 0 0 -15.39,22.64 c -9.35,15.9 -14.88,33.22 -21.76,50.21 -3.47,8.55 -3.9,19 -9.13,26.66 a 57.92,57.92 0 0 1 -5.18,6.95 c -2.34,2.49 -5.21,4.21 -7.76,6.43 -0.48,0.42 1.77,1.06 2.37,0.53 2.59,-2.26 5.37,-3.89 7.76,-6.43 a 72.2,72.2 0 0 0 5.18,-6.95 c 4.74,-6.49 5.27,-15.55 7.71,-23.06 2.79,-8.56 6.39,-16.88 9.75,-25.24 3.61,-9 7.16,-17.8 12,-26.19 9,-15.42 20.64,-28.91 28.71,-44.86 4.06,-8 7.6,-16.29 11.21,-24.53 a 110.73,110.73 0 0 1 6.26,-12.8 c 1.46,-2.43 4.06,-8.87 7,-9.74 1.26,-0.37 -1,-1.14 -1.68,-0.94 v 0 z"
       id="path3921"
       style="fill:#010002" />
    <path
       class="cls-10"
       d="m 304,205.37001 c -0.36,15.42 -8.27,29.75 -10.57,44.9 -2.38,15.66 -5.24,31.41 -6.79,47.18 -1.58,16.11 -1,32.29 -1.07,48.44 a 48.22,48.22 0 0 1 -1,11.38 c -0.84,3.48 -2.46,6.68 -3.54,10.09 a 71.59,71.59 0 0 0 -3.15,23.08 c 0,0.58 2.23,1 2.23,1.13 0,-8.17 0.63,-15.26 3.15,-23.08 2.27,-7.06 4.5,-12.92 4.53,-20.49 0.07,-16.48 -0.55,-33 1.07,-49.41 1.53,-15.48 4.37,-30.92 6.66,-46.31 2.29,-15.39 10.33,-30.09 10.7,-45.77 0,-0.57 -2.23,-1.05 -2.23,-1.13 v 0 z"
       id="path3923"
       style="fill:#010002" />
    <path
       class="cls-10"
       d="m 210.52,196.05001 c 7.25,9.24 11.7,21.69 16.09,32.41 6.08,14.84 11.63,29.93 18.22,44.56 3.4,7.54 7.17,15.14 10,22.91 2.57,7 3.51,14.41 4.9,21.72 1.47,7.72 1.13,15.57 2.31,23.27 1.31,8.55 3.86,16.9 5,25.44 0.14,1 2.5,1.52 2.31,0.15 -1.16,-8.56 -3.93,-16.84 -5,-25.44 -1.06,-8.36 -1.12,-16.67 -2.65,-25 -1.34,-7.31 -2.35,-14.69 -5.19,-21.63 -3,-7.32 -6.34,-14.51 -9.58,-21.72 -7.24,-16.13 -13.25,-32.79 -20.09,-49.09 -4,-9.53 -8.14,-20.14 -14.57,-28.33 -0.74,-0.94 -2.77,-0.51 -1.76,0.77 v 0 z"
       id="path3925"
       style="fill:#010002" />
    <path
       class="cls-11"
       d="m 265,423.77001 a 15.82,15.82 0 0 1 -0.92,-5.22 c 0,-1.63 -0.5,-3.2 -0.67,-4.83 a 53.1,53.1 0 0 1 -0.1,-5.76 c 0,-4.11 0.15,-8.26 -0.62,-12.32 a 36.21,36.21 0 0 0 -1.06,-4.71 16.48,16.48 0 0 1 -0.36,-1.86 c -0.19,-0.88 -0.63,-1.64 -0.78,-2.55 -0.07,-0.43 -1.93,-0.39 -1.9,-0.24 0.37,2.33 1.52,4.5 1.8,6.85 a 79.12,79.12 0 0 1 1,8.63 c 0,3.33 -0.07,6.66 0,10 a 23.11,23.11 0 0 0 0.61,4.65 c 0.33,1.51 0.1,3 0.36,4.57 0.21,1.2 2.78,7.07 0.66,7.45 -1.45,0.26 -2.17,-1.16 -2.56,-2.21 -0.49,-1.33 -1.35,-2.53 -1.83,-3.87 -1,-2.9 -1.84,-6 -2.73,-9 -0.38,-1.26 -0.45,-2.57 -0.87,-3.82 a 26.65,26.65 0 0 1 -1,-4.84 30,30 0 0 1 -0.52,-5.33 16.31,16.31 0 0 0 -0.35,-5.05 c -0.89,-3.2 0.47,-6.79 -0.89,-9.86 -0.22,-0.49 -1.9,-0.24 -1.9,-0.24 1.34,3 -0.09,6.44 0.8,9.56 a 15.43,15.43 0 0 1 0.45,5 31.78,31.78 0 0 0 0.51,5.69 54.23,54.23 0 0 0 2.29,10 c 1.06,3.05 1.6,6.31 3,9.21 0.28,0.57 0.53,1.15 0.8,1.73 0.27,0.58 0.36,1.37 0.65,1.9 0.45,0.82 1.34,0.87 2.18,1.08 1.37,0.34 4,1.5 4.48,-0.54 a 7.75,7.75 0 0 0 -0.53,-4.07 z"
       id="path3927"
       style="fill:#010002;stroke:#010002;stroke-width:0.5px;stroke-miterlimit:10" />
    <path
       class="cls-11"
       d="m 309.63,407.36001 c -0.85,-2.32 -2.1,-4.55 -2.76,-6.93 -0.43,-1.56 -1.09,-3.07 -1.47,-4.64 -0.38,-1.57 -0.49,-3.35 -0.8,-5 -0.24,-1.29 -0.77,-2.45 -1,-3.76 a 4,4 0 0 0 -1,-2.22 c -0.5,-0.59 -1.66,-0.9 -0.8,0.11 0.54,0.63 0.58,2.65 0.9,3.55 a 28.26,28.26 0 0 1 1,5.28 26.37,26.37 0 0 0 1.18,4.13 35.12,35.12 0 0 0 1.21,3.73 c 0.58,1.29 1,2.61 1.6,3.9 a 11,11 0 0 1 1.23,4.24 c 0,1.61 -0.84,2.47 -1.94,3.49 -0.33,0.3 -0.84,1 -1.37,1.4 -0.12,-0.31 -0.3,-0.65 -0.38,-0.91 a 8.85,8.85 0 0 0 -0.54,-1.64 37.13,37.13 0 0 1 -3.26,-8.6 c -0.54,-2.61 -1.52,-5.07 -2.26,-7.63 a 33.08,33.08 0 0 1 -1.32,-8.87 2.17,2.17 0 0 0 -1.36,-1.21 c -0.32,-2.25 -2.1,-2.89 -4.51,-3.44 a 50.05,50.05 0 0 0 -5.32,-0.48 c -2.05,-0.23 -4.14,-0.52 -6.17,-0.88 -2.03,-0.36 -4,-0.59 -6,-1 -1.41,-0.27 -2.68,-0.81 -4.13,-0.41 a 19.48,19.48 0 0 0 -4.12,1.95 c -0.8,0.44 -1.64,0.76 -2.45,1.18 -0.81,0.42 -2,1.51 -3,1.51 -1.17,0 -1.26,1.28 -0.06,1.28 a 5.28,5.28 0 0 0 3,-1 c 1.31,-0.8 2.72,-1.37 4.05,-2.11 1.55,-0.85 3.17,-1.74 5,-1.45 1.48,0.24 3,0.43 4.48,0.68 3.09,0.53 6.15,1.21 9.27,1.55 1.4,0.15 2.85,0.14 4.25,0.31 a 10,10 0 0 1 2.5,0.66 2.24,2.24 0 0 1 1.34,2.5 c 0,0.74 1.38,0.91 1.8,0.41 a 28.06,28.06 0 0 0 1,6.9 c 0.78,2.66 1.92,5.3 2.45,8 a 42.14,42.14 0 0 0 2.52,7.72 c 0.35,0.86 0.93,1.63 1.23,2.48 0.3,0.85 0.37,1.88 0.67,2.76 a 1.94,1.94 0 0 0 1.87,1.45 4,4 0 0 0 1.63,-1.28 9.64,9.64 0 0 0 2.17,-2.3 c 0.95,-1.7 0.28,-3.74 -0.33,-5.41 z"
       id="path3929"
       style="fill:#010002;stroke:#010002;stroke-width:0.5px;stroke-miterlimit:10" />
    <path
       class="cls-11"
       d="m 264.23,376.04001 a 31.91,31.91 0 0 1 -5.06,-1.55 c -1.64,-0.55 -3.34,-0.78 -5,-1.4 a 39.47,39.47 0 0 0 -4.88,-1.46 c -1.48,-0.35 -2.6,-1.22 -4.15,-1.24 -0.91,0 -0.28,1.79 0.55,1.8 1.4,0 2.95,1 4.36,1.32 a 40.6,40.6 0 0 1 4.95,1.63 c 1.64,0.59 3.38,0.79 5,1.42 l 0.56,0.21 c -0.51,0.15 -1,0.29 -1.55,0.4 a 34.51,34.51 0 0 0 -4.62,1 c -2.22,0.77 -4.59,2.13 -4.54,4.74 0,0.92 1.46,1.6 1.43,0.35 0,-2.53 4.34,-3.58 6.17,-4 1.14,-0.23 2.29,-0.36 3.42,-0.66 a 15,15 0 0 1 3.74,-0.8 c 0.9,0.02 0.28,-1.66 -0.38,-1.76 z"
       id="path3931"
       style="fill:#010002;stroke:#010002;stroke-width:0.5px;stroke-miterlimit:10" />
    <path
       class="cls-11"
       d="m 302.93,383.79001 a 1.56,1.56 0 0 0 -0.79,-1 c -0.62,-0.21 -1.18,-1 -1.81,-1.29 -1.07,-0.51 -2.16,-1 -3.24,-1.5 a 25,25 0 0 0 -6.4,-1.6 c -2.15,-0.36 -4.22,-0.87 -6.34,-1.37 -0.49,-0.12 -1,-0.25 -1.45,-0.38 a 11.62,11.62 0 0 0 2.64,-0.48 22.85,22.85 0 0 0 2.76,-0.89 10.94,10.94 0 0 0 2.81,-1.49 c 0.57,-0.53 -0.68,-2 -1.24,-1.47 -1.3,1.21 -3.66,1.72 -5.3,2.23 a 11,11 0 0 1 -2.78,0.49 c -1.37,0.09 -2.66,0.51 -4,0.52 -1,0 -0.06,1.6 0.63,1.64 a 31.45,31.45 0 0 1 6.14,1.41 c 2,0.51 4,0.91 6.1,1.3 2.42,0.46 4.78,0.7 7,1.78 0.79,0.38 1.64,0.74 2.41,1.14 a 16.93,16.93 0 0 0 2.32,1.5 c 0.47,0.15 0.61,-0.08 0.56,-0.41 H 303 c 0.11,0.03 0.06,-0.04 -0.07,-0.13 z"
       id="path3933"
       style="fill:#010002;stroke:#010002;stroke-width:0.5px;stroke-miterlimit:10" />
    <path
       class="cls-11"
       d="m 277.32,371.50001 a 14,14 0 0 1 -10.86,0.86 14.51,14.51 0 0 1 -4.22,-1.59 c -1.2,-0.7 -2.38,-1.43 -3.57,-2.15 a 5,5 0 0 0 -2.4,-1 c -0.54,0 -1.43,0.75 -1.7,0.74 1.15,0 2.26,1 3.22,1.53 1.18,0.68 2.32,1.49 3.54,2.08 a 16.15,16.15 0 0 0 3.43,1.16 16.86,16.86 0 0 0 3.15,0.68 19.84,19.84 0 0 0 6,-0.64 c 2.25,-0.63 4,-2 6.48,-2 a 10.13,10.13 0 0 0 1.7,-0.74 10.28,10.28 0 0 0 -4.77,1.07 z"
       id="path3935"
       style="fill:#010002;stroke:#010002;stroke-width:0.5px;stroke-miterlimit:10" />
  </g>
</svg>
