<svg version="1.1" xmlns="http://www.w3.org/2000/svg">
    <defs>
        <symbol version="1.1" id="facebook-with-circle"
             x="0px" y="0px" viewBox="0 0 20 20" enable-background="new 0 0 20 20" xml:space="preserve">
            <path d="M10,0.4c-5.302,0-9.6,4.298-9.6,9.6s4.298,9.6,9.6,9.6s9.6-4.298,9.6-9.6S15.302,0.4,10,0.4z M12.274,7.034h-1.443
                c-0.171,0-0.361,0.225-0.361,0.524V8.6h1.805l-0.273,1.486H10.47v4.461H8.767v-4.461H7.222V8.6h1.545V7.726
                c0-1.254,0.87-2.273,2.064-2.273h1.443V7.034z"/>
        </symbol>

        <symbol id="instagram-with-circle" data-name="Instagram w/circle" viewBox="0 0 19.19995 19.19995">
            <title>instagram-with-circle</title>
            <path d="M13.89777,7.05115a1.65591,1.65591,0,0,0-.94891-0.94891,2.76589,2.76589,0,0,0-.92841-0.17218C11.49316,5.906,11.33508,5.90094,10,5.90094S8.50684,5.906,7.97955,5.93005a2.76589,2.76589,0,0,0-.92841.17218,1.65591,1.65591,0,0,0-.94891.94891,2.76589,2.76589,0,0,0-.17218.92841C5.906,8.50684,5.90094,8.665,5.90094,10s0.00507,1.49316.02911,2.02045a2.76553,2.76553,0,0,0,.17218.92841,1.65591,1.65591,0,0,0,.94891.94891,2.76589,2.76589,0,0,0,.92841.17218c0.52716,0.024.6853,0.02911,2.02045,0.02911s1.49329-.00507,2.02045-0.02911a2.76589,2.76589,0,0,0,.92841-0.17218,1.65591,1.65591,0,0,0,.94891-0.94891,2.76553,2.76553,0,0,0,.17218-0.92841c0.024-.52728.02911-0.68536,0.02911-2.02045S14.094,8.50684,14.06995,7.97955A2.76589,2.76589,0,0,0,13.89777,7.05115ZM10,12.56757A2.56757,2.56757,0,1,1,12.56757,10,2.56756,2.56756,0,0,1,10,12.56757ZM12.669,7.931a0.6,0.6,0,1,1,.6-0.6A0.6,0.6,0,0,1,12.669,7.931Z"
                  transform="translate(-0.40002 -0.40002)"/>
            <circle cx="9.59998" cy="9.59998" r="1.66669"/>
            <path d="M10,0.4A9.6,9.6,0,1,0,19.6,10,9.59995,9.59995,0,0,0,10,.4Zm4.96991,11.6615a3.67039,3.67039,0,0,1-.23242,1.21368,2.55612,2.55612,0,0,1-1.46228,1.46228,3.67039,3.67039,0,0,1-1.21368.23242C11.5282,14.99426,11.35791,15,10,15s-1.5282-.00574-2.06152-0.03009a3.67039,3.67039,0,0,1-1.21368-.23242,2.55612,2.55612,0,0,1-1.46228-1.46228,3.67039,3.67039,0,0,1-.23242-1.21368C5.00574,11.5282,5,11.35791,5,10s0.00574-1.5282.03009-2.06152a3.67039,3.67039,0,0,1,.23242-1.21368A2.55612,2.55612,0,0,1,6.72479,5.26251a3.67039,3.67039,0,0,1,1.21368-.23242C8.4718,5.00574,8.64209,5,10,5s1.5282,0.00574,2.06152.03009a3.67039,3.67039,0,0,1,1.21368.23242,2.55612,2.55612,0,0,1,1.46228,1.46228,3.67039,3.67039,0,0,1,.23242,1.21368C14.99426,8.4718,15,8.64209,15,10S14.99426,11.5282,14.96991,12.06152Z"
                  transform="translate(-0.40002 -0.40002)"/>
        </symbol>

        <symbol version="1.1" id="medium-with-circle" xmlns="http://www.w3.org/2000/svg" x="0px" y="0px" viewBox="0 0 20 20" enable-background="new 0 0 20 20" xml:space="preserve">
            <path d="M10,0.3999634c-5.3019409,0-9.5999756,4.2980957-9.5999756,9.6000366S4.6980591,19.5999756,10,19.5999756
                S19.5999756,15.3019409,19.5999756,10S15.3019409,0.3999634,10,0.3999634z M14.2000122,7.666687h-0.1165771
                c0,0-0.3500977,0-0.3500977,0.3500977c0,0.3500366,0,3.9666748,0,3.9666748s0,0.3497925,0.3500977,0.3497925h0.1165771v0.9333496
                h-2.7999878V12.333252h0.4666138V7.9933472h-0.0466309l-1.4301147,5.2732544H9.1304321L7.7133179,7.9933472H7.666687v4.3399048
                h0.4666748v0.9333496h-2.333374V12.333252h0.1165771c0,0,0.3500977,0,0.3500977-0.3500366s0-3.9667358,0-3.9667358
                s0-0.3497925-0.3500977-0.3497925H5.7999878V6.7333984H8.895874l1.0858765,4.0408325h0.0357666l1.0959473-4.0408325h3.0865479
                V7.666687z"/>
        </symbol>

        <symbol version="1.1" id="twitter-with-circle" x="0px" y="0px" viewBox="0 0 20 20" enable-background="new 0 0 20 20" xml:space="preserve">
            <path d="M10,0.4c-5.302,0-9.6,4.298-9.6,9.6s4.298,9.6,9.6,9.6s9.6-4.298,9.6-9.6S15.302,0.4,10,0.4z M13.905,8.264
                c0.004,0.082,0.005,0.164,0.005,0.244c0,2.5-1.901,5.381-5.379,5.381c-1.068,0-2.062-0.312-2.898-0.85
                c0.147,0.018,0.298,0.025,0.451,0.025c0.886,0,1.701-0.301,2.348-0.809c-0.827-0.016-1.525-0.562-1.766-1.312
                c0.115,0.021,0.233,0.033,0.355,0.033c0.172,0,0.34-0.023,0.498-0.066c-0.865-0.174-1.517-0.938-1.517-1.854V9.033
                C6.257,9.174,6.549,9.26,6.859,9.27C6.351,8.93,6.018,8.352,6.018,7.695c0-0.346,0.093-0.672,0.256-0.951
                c0.933,1.144,2.325,1.896,3.897,1.977c-0.033-0.139-0.049-0.283-0.049-0.432c0-1.043,0.846-1.891,1.891-1.891
                c0.543,0,1.035,0.23,1.38,0.598c0.431-0.086,0.835-0.242,1.2-0.459c-0.141,0.441-0.44,0.812-0.831,1.047
                c0.383-0.047,0.747-0.148,1.086-0.299C14.595,7.664,14.274,7.998,13.905,8.264z"/>
        </symbol>

        <symbol id="heart" viewBox="0 0 8 8">
            <path d="M2 0c-.55 0-1.04.23-1.41.59-.36.36-.59.85-.59 1.41 0 .55.23 1.04.59 1.41l3.41 3.41 3.41-3.41c.36-.36.59-.85.59-1.41 0-.55-.23-1.04-.59-1.41-.36-.36-.85-.59-1.41-.59-.55 0-1.04.23-1.41.59-.36.36-.59.85-.59 1.41 0-.55-.23-1.04-.59-1.41-.36-.36-.85-.59-1.41-.59z"
                  transform="translate(0 1)"/>
        </symbol>

        <symbol id="facebook-variant" viewBox="0 0 20 20">
            <title>facebook-variant</title>
            <path d="M12.27,7H10.83a0.48,0.48,0,0,0-.36.52v1h1.81L12,10.09H10.47v4.46H8.77V10.09H7.22V8.6H8.77V7.73a2.14,2.14,0,0,1,2.06-2.27h1.44V7Z"/>
        </symbol>

        <symbol id="social-circle" viewBox="0 0 20 20">
            <title>social-circle</title>
            <circle cx="10" cy="10" r="9.65"/>
        </symbol>

        <symbol id="twitter-variant" viewBox="0 0 20 20">
            <title>twitter-variant</title>
            <path d="M13.9,8.26c0,0.08,0,.16,0,0.24A5.38,5.38,0,0,1,5.63,13l0.45,0a3.79,3.79,0,0,0,2.35-.81,1.89,1.89,0,0,1-1.77-1.31A2,2,0,0,0,7,11a1.9,1.9,0,0,0,.5-0.07A1.89,1.89,0,0,1,6,9.06V9a1.9,1.9,0,0,0,.86.24,1.9,1.9,0,0,1-.59-2.53,5.38,5.38,0,0,0,3.9,2,1.86,1.86,0,0,1,0-.43A1.89,1.89,0,0,1,13.39,7a3.8,3.8,0,0,0,1.2-.46,1.9,1.9,0,0,1-.83,1,3.8,3.8,0,0,0,1.09-.3A3.83,3.83,0,0,1,13.9,8.26Z"/>
        </symbol>

        <symbol id="instagram-variant" viewBox="0 0 20 20">
            <title>instagram-variant</title>
            <path d="M13.9,7.05a1.66,1.66,0,0,0-.95-0.95A2.77,2.77,0,0,0,12,5.93c-0.53,0-.69,0-2,0s-1.49,0-2,0a2.77,2.77,0,0,0-.93.17,1.66,1.66,0,0,0-.95.95A2.77,2.77,0,0,0,5.93,8c0,0.53,0,.69,0,2s0,1.49,0,2a2.77,2.77,0,0,0,.17.93,1.66,1.66,0,0,0,.95.95,2.77,2.77,0,0,0,.93.17c0.53,0,.69,0,2,0s1.49,0,2,0a2.77,2.77,0,0,0,.93-0.17,1.66,1.66,0,0,0,.95-0.95A2.77,2.77,0,0,0,14.07,12c0-.53,0-0.69,0-2s0-1.49,0-2A2.77,2.77,0,0,0,13.9,7.05Zm-1.23.88a0.6,0.6,0,1,1,.6-0.6,0.6,0.6,0,0,1-.6.6h0ZM15,12.06a3.67,3.67,0,0,1-.23,1.21,2.56,2.56,0,0,1-1.46,1.46,3.67,3.67,0,0,1-1.21.23c-0.53,0-.7,0-2.06,0s-1.53,0-2.06,0a3.67,3.67,0,0,1-1.21-.23,2.56,2.56,0,0,1-1.46-1.46A3.67,3.67,0,0,1,5,12.06c0-.53,0-0.7,0-2.06S5,8.47,5,7.94a3.67,3.67,0,0,1,.23-1.21A2.56,2.56,0,0,1,6.72,5.26,3.67,3.67,0,0,1,7.94,5C8.47,5,8.64,5,10,5s1.53,0,2.06,0a3.67,3.67,0,0,1,1.21.23,2.56,2.56,0,0,1,1.46,1.46A3.67,3.67,0,0,1,15,7.94c0,0.53,0,.7,0,2.06s0,1.53,0,2.06h0Z"/>
            <path d="M10,8.33A1.67,1.67,0,1,1,8.33,10,1.67,1.67,0,0,1,10,8.33Zm0-.9A2.57,2.57,0,1,0,12.57,10,2.57,2.57,0,0,0,10,7.43Z"/>
        </symbol>

        <symbol id="medium-variant" viewBox="0 0 20 20">
            <title>medium-variant</title>
            <path d="M14.2,7.67H14.08a0.34,0.34,0,0,0-.35.35v4a0.34,0.34,0,0,0,.35.35H14.2v0.93H11.4V12.33h0.47V8h0l-1.43,5.27H9.13L7.71,8h0v4.34H8.13v0.93H5.8V12.33H5.92A0.34,0.34,0,0,0,6.27,12V8a0.34,0.34,0,0,0-.35-0.35H5.8V6.73H8.9l1.09,4h0l1.1-4H14.2V7.67Z"/>
        </symbol>
    </defs>
</svg>