<svg version="1.1" xmlns="http://www.w3.org/2000/svg" id="instagram-light" viewBox="0 0 20 20">
            <title>instagram-variant</title>
            <path d="M13.9,7.05a1.66,1.66,0,0,0-.95-0.95A2.77,2.77,0,0,0,12,5.93c-0.53,0-.69,0-2,0s-1.49,0-2,0a2.77,2.77,0,0,0-.93.17,1.66,1.66,0,0,0-.95.95A2.77,2.77,0,0,0,5.93,8c0,0.53,0,.69,0,2s0,1.49,0,2a2.77,2.77,0,0,0,.17.93,1.66,1.66,0,0,0,.95.95,2.77,2.77,0,0,0,.93.17c0.53,0,.69,0,2,0s1.49,0,2,0a2.77,2.77,0,0,0,.93-0.17,1.66,1.66,0,0,0,.95-0.95A2.77,2.77,0,0,0,14.07,12c0-.53,0-0.69,0-2s0-1.49,0-2A2.77,2.77,0,0,0,13.9,7.05Zm-1.23.88a0.6,0.6,0,1,1,.6-0.6,0.6,0.6,0,0,1-.6.6h0ZM15,12.06a3.67,3.67,0,0,1-.23,1.21,2.56,2.56,0,0,1-1.46,1.46,3.67,3.67,0,0,1-1.21.23c-0.53,0-.7,0-2.06,0s-1.53,0-2.06,0a3.67,3.67,0,0,1-1.21-.23,2.56,2.56,0,0,1-1.46-1.46A3.67,3.67,0,0,1,5,12.06c0-.53,0-0.7,0-2.06S5,8.47,5,7.94a3.67,3.67,0,0,1,.23-1.21A2.56,2.56,0,0,1,6.72,5.26,3.67,3.67,0,0,1,7.94,5C8.47,5,8.64,5,10,5s1.53,0,2.06,0a3.67,3.67,0,0,1,1.21.23,2.56,2.56,0,0,1,1.46,1.46A3.67,3.67,0,0,1,15,7.94c0,0.53,0,.7,0,2.06s0,1.53,0,2.06h0Z"/>
            <path d="M10,8.33A1.67,1.67,0,1,1,8.33,10,1.67,1.67,0,0,1,10,8.33Zm0-.9A2.57,2.57,0,1,0,12.57,10,2.57,2.57,0,0,0,10,7.43Z"/>
        </svg>