<svg id="Capa_1" data-name="Capa 1" xmlns="http://www.w3.org/2000/svg" viewBox="0 0 555.71 482.86"><defs><style>.cls-1{fill:#cd6a52;}.cls-2{fill:#010002;}.cls-3,.cls-6{fill:#903f2e;}.cls-3,.cls-5{opacity:0.89;}.cls-4{fill:#d2a299;}.cls-5{fill:#6f2c20;}</style></defs><title>Mazo</title><path class="cls-1" d="M31.4,312.07a6.27,6.27,0,0,0-5.12-2.42c0.05-.53.1-1.07,0.12-1.56,0.12-3.07-2.62-6.6-5.65-7.13-3.38-.58-4.94,2.32-5.05,5.2,0-1.06-.11.17-0.14,0.38a22.66,22.66,0,0,0-.19,2.52c0,1.08,0,2.16-.05,3.24a10.62,10.62,0,0,0,3.77,8.62c3.47,2.76,9.53,3,12.83-.12C34.25,318.64,33.25,314.19,31.4,312.07Z"/><path class="cls-2" d="M19.61,298.37c-4,6.8-7.71,13.85-2.38,21,4.37,5.88,11,1.62,16.29-.78,1.33-.61-1.3-4.8-2.92-4.06-2.62,1.2-10.05,6-12.09,2.48-2.66-4.55,2.17-11.28,4.42-15.11,0.79-1.36-2.41-5.11-3.32-3.55h0Z"/><path class="cls-2" d="M22.57,294.68a22.9,22.9,0,0,0,4.7,16.11c2.23,2.8,6.1,6,9.91,5.49-0.17,0-2.73-2.77-4.06-2.61-2.34.28-4.42-5.16-5.1-7.11a23.08,23.08,0,0,1-1.12-9.38c0.09-1.19-4.33-2.45-4.33-2.5h0Z"/><path class="cls-3" d="M179.61,180.89c-4.35-.59-7,1-9.89,3.69-9.27-.72-15.29,4.28-21.31,10.88A55.79,55.79,0,0,0,140.9,206c-0.27.49-.53,1-0.8,1.5-1.11.55-2.22,1.1-3.31,1.68-10.46,5.54-21.63,9.2-32.39,14.05a91.31,91.31,0,0,0-8.73,4.59A6.68,6.68,0,0,1,92.81,231c-20.22,8.63-34,25.77-50.27,39.84-4.45,3.86-9.27,8.05-13.71,12.23a8.23,8.23,0,0,0,3.25,3.8,27.72,27.72,0,0,0-2.26,5.32,12,12,0,0,0-.41,3.81c-3.58,6.1-5.53,14.12,2.31,17.89,4.77,2.29,13.3,1.35,17.62-1.57,3.59-2.43,5.47-6.5,8.9-9,3.61-2.66,8.47-3.19,12.55-4.83,8.84-3.55,16.3-9.68,23.94-15.21,3.87-2.8,7.93-5.23,11.95-7.8,4.63-3,8.73-6.69,13.39-9.63,7.49-4.72,13.78-9.17,19.31-16.19,6.12-7.78,12.62-15.24,18.36-23.32,4-5.56,11.47-15.27,9.71-23,2.19-1.81,4.42-3.56,6.6-5.38,1.43-1.2,4.15-5,6.17-4.7C187.76,194.23,185.89,181.74,179.61,180.89ZM52.38,277.06l0.67-.56,1.07-.93,1.16-.19C54.33,276,53.36,276.54,52.38,277.06Zm24.16,3.38c1.8-1.23,3.58-2.48,5.35-3.75C80.14,278,78.36,279.24,76.54,280.44ZM64.27,262.87c4-2.7,7.72-5.77,11.82-8.32,4.44-2.76,9.19-5,13.64-7.72a227.14,227.14,0,0,1,21.62-12.26c-4,3.81-8,7.65-12.17,11.26q-1.73,1.12-3.39,2.33c-5,1-8.52,4.31-12.7,7.54C77.83,259.76,71.12,263.36,64.27,262.87Zm54.39-11.39c-5.73,3.6-11,7.66-16.58,11.46-5.42,3.69-11,7-16.31,10.91l-2.64,1.94c0.89-.65,1.78-1.3,2.66-2,1.65-1.26,3.21-2.56,4.74-3.89a148.78,148.78,0,0,0,19.72-13.47c2-1.65,3.91-3.38,5.78-5.17l0.57-.34c4.27-2.61,8.22-5.66,12.29-8.55A47.14,47.14,0,0,1,118.66,251.47Z"/><path class="cls-1" d="M286.6,187.46c-3.12-6.34-10-6.16-16-6.15-13.08,0-26.2,3.35-38.64,7.26-6.44,2-12.51,5-18.74,7.48s-10.9,7.43-11.16,14.23a6.77,6.77,0,0,0,3.9,6.29c1.86,3,5.57,5,8.32,2.34,6-5.92,14.73-8.61,22.64-10.89,7.22-2.07,16.49-3.48,22.78-7.73a4.75,4.75,0,0,0,1.39-1.45c1.66-.07,3.33-0.11,5-0.09,3.4,0,6.88-.13,10.27.14,2.34,0.18,5.16,1.26,7.46.87C290.2,198.67,288.48,191.29,286.6,187.46Z"/><path class="cls-1" d="M222.53,107c-4.12-4.53-9-8.34-15-9.52A12.37,12.37,0,0,0,204,95.32c-4.75-1.61-10.63,0-15.27,1.28s-9.69,2.62-13.81,5.17c-6,3.7-9.87,10.12-11.71,16.93a29.38,29.38,0,0,0-.92,4.45l0,0.21q-0.07.55-.12,1.11c0,0.3-.06.61-0.08,0.91q-0.05.69-.08,1.4c-0.23,6.95,10.32,10.4,10.71,1.93,0-.33,0-0.66.07-1,0.43-4.27,2.31-6.86,5.27-9.79,0.38,3.48,2.92,6.82,6.77,6.45,5.47-.53,10.59-2.48,15.93-3.65,3.05-.66,10.72-3.43,13.57-1.38,4.13,3,7,.33,7.48-3.14C224.45,114.73,225.62,110.39,222.53,107Z"/><path class="cls-4" d="M262.73,170.57A7.06,7.06,0,0,0,256,165c-6.9,0-13.74.06-20.5,1.6-5,1.15-9.95,2.9-14.92,4.3-5.61,1.58-10.4,4-15.67,6.6-3.58,1.76-7.94,3.77-8.31,8.29-0.31,3.75,1.58,7.77,5.55,8.66,4.17,0.93,8.12-.48,12.07-1.73,4.89-1.54,10-3,14.72-4.91a83.09,83.09,0,0,1,14-4.41c2.32-.51,4.5-1.21,6.78-1.82s4.32-.58,6.28-1.78a4.61,4.61,0,0,0,1.95-2.4h1.41C262.6,177.44,263.33,173,262.73,170.57Z"/><path class="cls-4" d="M281.1,198.07c-10.93,0-21.95.16-32.66,2.6a61.67,61.67,0,0,0-13.36,4.77,65.3,65.3,0,0,1-6.45,3.21,29.19,29.19,0,0,0-6.53,2.85,4.75,4.75,0,0,0-2.05,2.9l-1.31,0a3.94,3.94,0,0,0-2.38,1.21,1.93,1.93,0,0,0-.29.3,7.5,7.5,0,0,0-.86,1.3,8,8,0,0,0-.63,3.36,6,6,0,0,0,.57,2.43,6.36,6.36,0,0,0,1.26,2.27,6.63,6.63,0,0,0,3.82,2.42,4.13,4.13,0,0,0,3.74-1.17l0.77-1.13c0.05-.11.09-0.23,0.13-0.35a3.64,3.64,0,0,0,.55-1.25,3.89,3.89,0,0,0,2.59-.65c3.56-2.3,7.89-3.52,11.7-5.42a53.72,53.72,0,0,1,13.57-4.93c10.3-2,20.68-2.28,31.15-2.28C291.32,210.47,287.46,198.07,281.1,198.07Z"/><path class="cls-4" d="M221.5,120.39a106,106,0,0,0-15.3-.45c-4.57.24-8.91,2-13.25,3.16s-8.18,3.75-11.61,6.46c-4.24,3.35-6.1,6.4-5.85,11.85,0.32,6.87,11.1,10.44,10.71,1.93-0.11-2.47,4.41-4.75,6.43-5.86,2.79-1.53,5.37-2,8.34-2.92,3.31-1,5.79-2.11,9.34-2.24a89.53,89.53,0,0,1,11.79.41C229.7,133.41,227.81,121,221.5,120.39Z"/><path class="cls-5" d="M235.29,226.53c7.65-.89,16-1.29,23.25-4l2.22-.9-1.48.59c5.69-2.37,11.09-5.34,17-7,5-1.42,10.08-2.43,14.95-4.21,0.22-4-2.91-8.81-6.91-7.77-3.85,1-7.34,3-11.12,4.24-0.71.24-1.43,0.46-2.15,0.68a35.07,35.07,0,0,0-5.58.24c-4,.55-7.79,2.18-11.78,2.68-6.3.79-14.8,2.16-20,6.06a4.88,4.88,0,0,0-1.29,1.44l-0.21,0c-4.3.2-4.45,5-2.44,8.56Q232.54,226.85,235.29,226.53Z"/><path class="cls-5" d="M192,175.64c-0.63-.55-1.29-1-2-1.54-0.25-.18-0.48-0.38-0.72-0.57l-0.36-.45v0c0-.73,0-1.65,0-1.8,0.07-3.08-2.58-6.6-5.65-7.13-3.34-.57-5,2.31-5.05,5.2a17.67,17.67,0,0,0,.33,5,17,17,0,0,0,2.67,5.27c1.66,2.43,3.87,4,6,5.86s5.8,1.75,7.18-1C196,181.38,194.39,177.68,192,175.64Z"/><path class="cls-5" d="M170.9,193.81c-3,1-4.25,4.46-5.58,7-1.68,3.25-3.45,6.44-5.39,9.55q-1.36,2.17-2.86,4.26c-1.58,1.6-3.49,2.89-5.13,4.42-2.74,2.56-4.65,5.83-6.83,8.87-10.71,9.42-23.44,15.81-34.48,24.82-0.76.62-1.53,1.23-2.3,1.84a167.53,167.53,0,0,1-18,9.45c-4.76,2.07-9.28,4.46-13.93,6.75s-8,5.1-12.05,8.17a5,5,0,0,0-1.84,2.78,4.41,4.41,0,0,0-1.88.48,65.39,65.39,0,0,0-13.18,9.19A4.77,4.77,0,0,0,46,295.87c-1.54.7-3.13,1.32-4.79,2.1-3.37,1.58-7.6,4.52-11.43,4.38-7.63-.28-5.73,12.09.6,12.32,4.3,0.16,7.55-.88,11.48-2.56,3.67-1.56,7.64-3.1,11.18-4.86,3.15-1.56,6-4,9-6,3.86-2.58,7.85-4.95,11.81-7.36,13.57-8.26,27.88-16.27,39.83-26.82q1-.91,2.08-1.78c3.1-1.84,6.2-3.71,9.37-5.52,9-5.16,17.73-10.46,25-18a32.87,32.87,0,0,0,3-3.74,87,87,0,0,0,12.22-13.39c0.33-.46.65-0.93,1-1.4a17.6,17.6,0,0,1,2.79-3.29,4.35,4.35,0,0,0,1.6-3.64q0.7-1.19,1.38-2.38c0.92-1.62,3.27-8,4.78-8.52C183,203.36,177.24,191.69,170.9,193.81Z"/><path class="cls-2" d="M226.29,226.42a105.93,105.93,0,0,1,62-19c3.27,0,1.73-3.92-.82-4a110.64,110.64,0,0,0-65,19.87c-2.08,1.44,1.95,4.38,3.85,3.06h0Z"/><path class="cls-2" d="M219,223.92c-0.48.36-2.89-2.46-3.05-2.82-0.76-1.64,0-3.82,1-5.21,2.18-3.05,7.26-5.28,10.53-6.92a81.05,81.05,0,0,1,18.32-6.54,85.48,85.48,0,0,1,36.89-.14c1.46,0.31,4.85-2.69,3.89-2.89a90.07,90.07,0,0,0-55.91,5.89c-6.11,2.75-16.79,7-19.08,14.11-2.16,6.64,5.16,8.72,9.55,5.43,2.73-2-.38-2.19-2.09-0.92h0Z"/><path class="cls-2" d="M206.35,216.72c-4.2-1.11-5.91-7.11-5.36-10.86,0.59-4,3.53-6.66,6.94-8.58,8.17-4.62,17.8-7.56,26.71-10.39,9.66-3.07,19.87-6.23,30-7.14,6.77-.61,14.16.14,18.6,6a14,14,0,0,1,2.64,12.05c-0.28,1.18,4.33,2.87,4.49,2.2,2.39-9.95-6-18.09-14.67-21.18-13-4.61-28.16.5-40.77,4.24q-11.21,3.33-22.07,7.72c-5.23,2.12-12.47,4.28-15.33,9.66-4.32,8.12,3,16.38,10.58,18.39,3.05,0.81-.62-1.84-1.76-2.15h0Z"/><path class="cls-2" d="M200.58,199.61c-8-9.63,18.81-15.49,24.37-17.46l16.62-5.89c7.09-2.51,17.31-7.6,22.24.57,0.45,0.75,4.86-1.37,4.75-1.55-3.28-5.44-9.56-5.27-15-3.86-8.64,2.22-17,5.83-25.44,8.81-8.65,3.06-17.59,5.73-26,9.3-4.41,1.86-10.51,6.46-6.21,11.62,0.68,0.82,4.74-1.57,4.75-1.55h0Z"/><path class="cls-2" d="M202.65,193.28c-0.36-11.41,11.93-15.25,20.73-18.33,11.95-4.18,24.57-8.12,37.36-6.08,3.42,0.55.69-1-1.08-1.28-12.24-2-24,.45-35.7,4.26-9.87,3.23-26.61,7.06-26.19,20.35,0,1.08,4.89,1.5,4.88,1.08h0Z"/><path class="cls-2" d="M256.77,167.67l-13.44-20c-4-6-7.71-12.77-12.52-18.18-8.13-9.17-20.79-5.91-31-2.66-9.9,3.15-20,9-20,20.69,0,6.25,2.76,12.2,5.53,17.66,3.83,7.52,7.89,14.94,11.84,22.4,1.34,2.53,5.65,1.24,4.13-1.64l-8.73-16.51c-2.72-5.14-5.78-10.31-7.23-16-3.25-12.75,6.12-19,16.82-22.44,4.78-1.52,9.78-3,14.83-3.08,7.76-.1,11.2,5.13,15.15,11l20.42,30.36c1.57,2.34,5.95,1.06,4.13-1.64h0Z"/><path class="cls-2" d="M230.71,128.7c-1.7-8.15-8.8-13.66-16.79-15.12-9.82-1.79-19.75,2.39-27.76,7.75-6.88,4.6-14.68,11.42-14.74,20.42,0,7.54,5.34,13.6,12.81,14,2.62,0.12,4-3,.72-3.15-7-.33-9.71-9.45-8-15.1,2-6.65,8-11.4,13.63-14.95,6.27-4,13.83-7.28,21.41-5.85,6.76,1.28,12.43,6.23,13.85,13,0.43,2,5.33,1.06,4.9-1h0Z"/><path class="cls-2" d="M224.27,121.69c0.89-20.84-19.76-34.88-39.17-29.87-21.67,5.59-32.11,29.06-24.78,49.48,0.44,1.22,3.47,4.55,2.41,1.58a35.72,35.72,0,0,1,16.54-43.4c15.79-8.62,43.22-3.67,42.27,18.77,0,1.17,2.68,4.9,2.74,3.43h0Z"/><path class="cls-2" d="M182.15,161.57c-12,8.56,1,27.89,13.77,22.71,1.33-.54-1.86-4.23-3.1-3.73-4.8,1.94-10.37.53-11.46-5a10,10,0,0,1,4.36-10.45c0.92-.66-2.35-4.37-3.58-3.49h0Z"/><path class="cls-2" d="M173.78,170.56c-4.73,5.92-3.83,15.71,2.93,19.78,5.85,3.52,14.25,2.94,18.53-2.67,1.39-1.83-1.79-5.65-3.36-3.59-2.88,3.77-7.95,4.6-12.32,3.12-5.75-2-5.84-8.77-2.43-13,1.43-1.79-1.74-5.62-3.36-3.59h0Z"/><path class="cls-2" d="M179.65,193.28c-39.57,53.25-92.14,96.67-153,123.41-2.81,1.23-1.58,4.51,1.28,3.26C90,292.69,143.5,248.59,183.84,194.3c1.81-2.44-2.87-2.8-4.19-1h0Z"/><path class="cls-2" d="M170.94,176.61c-20,27.72-53.49,39.19-81.22,57.19C61.63,252,33.37,272.45,17,302.5c-1.34,2.46,2.9,5,4.33,2.43C38,274.38,67.65,253.44,96.48,235.36c27.08-17,58.75-28.53,78.12-55.34,1.67-2.31-2-5.71-3.66-3.4h0Z"/><path class="cls-2" d="M224.53,225.74c10.28,5,23.67-1.52,33.69-4.32,10.43-2.92,23-4.81,30.8-13.07,0.53-.57-2.15-0.22-2.61.27-6.8,7.22-17.32,8.91-26.49,11.47-9.47,2.65-23.35,9.19-32.66,4.69-0.74-.36-3,0.84-2.74,1h0Z"/><path class="cls-3" d="M399.13,352.4l0.52-.61c0.89-1.09,1.78-2.18,2.64-3.29a138.21,138.21,0,0,0,10.19-15.09q2.47-4.23,4.66-8.62c0.15-.29.66-1.37,1-2.18s0.91-2.07,1.08-2.47a150.68,150.68,0,0,0,6.06-17.47c0.09-.33.29-1.12,0.45-1.72,0.24-1.07.48-2.14,0.7-3.22-0.77-1.37-1.55-2.73-2.36-4.07l-0.68-1.11c-0.61-.9-1.21-1.8-1.83-2.69q-2.64-3.79-5.58-7.36c-4.38,2.31-8.92,4.33-13.38,6.5a170.61,170.61,0,0,1-19,8.08c-13.56,3.79-27.48,6.24-41.36,8.54a357.85,357.85,0,0,1-46,5,37.93,37.93,0,0,0-9.79-11,36.21,36.21,0,0,0-23-7.47H122.93c-4.24,0-8.51,2.37-12,5.54-6.43,3.69-11.18,11.26-12.27,18.45a43.41,43.41,0,0,0,4.47,27.27c3.86,7,9.66,15.12,17.19,18.72,1.41-7.18,4.73-15.72,11.5-12.26a107.18,107.18,0,0,0,21.5,8.09c15.41,3.49,31.22,4.36,47,4.62,47.2,0.78,94.39,2.09,141.6,2.8C361.11,361.41,380.48,358.22,399.13,352.4Z"/><path class="cls-1" d="M410.37,278.34c-0.49-5.85-3.69-9.18-7.79-12,2.81-2.65,3.2-6.94,1.57-10.62-4.8-10.82-21.75-14.86-32.2-14.76-4.11,0-4.41,4.43-2.64,8-1.23.82-1.73,2.62-1.67,4.56q-3.34,0-6.67.12c-25.84.21-51.75,0.71-77.53-.12A122,122,0,0,1,261.23,251c-2.51-.55-4.58-1.24-6.36-3.06s-3.16-4-5.14-5.64a13.06,13.06,0,0,0-2.52-1.65c5.42-.24,10.84-0.22,16.28-0.69,8.67-.74,17.21-0.89,25.88-1.23,9.25-.36,18.5-0.26,27.75-0.24l13.91,0c4.15,0,7.76-.54,11.26,2.1,6.79,5.13,10.25-5.62,4.73-9.79-5.93-4.49-11.25-4.71-18.39-4.71-8,0-16.08-.05-24.11-0.06-8.28,0-16.57.4-24.84,0.35-7.7,0-15.24,1-22.91,1.38s-15.14.17-22.73,1.3c-7.1,1-14.24,1.92-21.32,3.18-7.33,1.3-14.63,3.77-21.79,5.82S176.75,242,170,245s-14.43,6.59-18.8,13c-1.94,2.83-3.84,5.67-4.6,9.08-0.84,3.76-.27,7.94-0.27,11.77,0,6.92,10.71,10.43,10.71,1.93,0-.58,0-1.16,0-1.73a10.92,10.92,0,0,0,3.3-2.11c4.25,5.75,11.56,4.72,18.32,4.41,6.65,0.49,13.37,0,20.05-.06l3.76,0,11.79,0h99.9c1.49,0.05,3,.12,4.47.21,9.64,0.62,19.16,2,28.83,2.36,9.31,0.3,18.62.22,27.93,0.22,5.77,0,13.68,1.88,19.25-.9l1.28,0.38c4,1.18,8.29,1.75,12.09-.36A5,5,0,0,0,410.37,278.34Zm-204.54-9.91a4.7,4.7,0,0,0,.82-1.28,10.25,10.25,0,0,0,3.39-1.33,11.32,11.32,0,0,0,1,3h-5.65C205.55,268.72,205.7,268.58,205.84,268.43Zm-5.91-18.83a7.09,7.09,0,0,0-.81-0.51l1.86-.55C200.62,248.87,200.27,249.23,199.93,249.6Zm37-8a11.92,11.92,0,0,0-1.27,1.1l-0.39.39a7.66,7.66,0,0,0-1.33-1.07Z"/><path class="cls-2" d="M147.84,281.28c-2.66-19.49,14.06-33.79,31-39.21,19.47-6.23,41.35-7.22,61.61-8.56a587.85,587.85,0,0,1,62.91-.79c20.54,0.84,41.58,2.07,61.75,6.22,20.72,4.27,41.93,15.09,48.38,36.77,0.44,1.49,5,2.75,4.62,1.5-11.86-39.86-62.42-43.52-96.71-46.13A587.64,587.64,0,0,0,249.65,230c-22.38,1-45.73,2.27-67.59,7.44-19.77,4.68-42,19-38.83,42.33,0.21,1.51,4.82,3,4.62,1.5h0Z"/><path class="cls-2" d="M143.53,285.25l205.7,1.3,58.63,0.37c2.94,0,.14-3.69-1.72-3.7l-205.7-1.3-58.63-.37c-2.94,0-.14,3.69,1.72,3.7h0Z"/><path class="cls-2" d="M137.65,288.86c-10.4-4.46-21.71-.81-29.33,7.17-8.19,8.57-10.43,20.28-6.82,31.46,9.14,28.32,40.73,36.52,67.08,37.74,36.61,1.68,73.44,1.19,110.09,1.7l54.8,0.77c17.34,0.24,34.91,1.15,52.17-1,16-2,31.66-7.14,43.86-18,10.77-9.59,18.09-23,17.56-37.63-0.07-2-4.34-4.49-4.25-1.85,1,27.75-24.73,46.25-49.29,51.59-14.21,3.09-28.89,3.12-43.36,3-15.82-.18-31.65-0.44-47.47-0.66L205,361.69c-15.57-.22-31.33.2-46.84-1.27-13.88-1.32-28.09-4.64-39.12-13.63-10.82-8.82-18.89-23.86-13.34-37.8,4.76-12,18.8-21.82,31.66-16.31,3,1.29,2.39-2.9.24-3.82h0Z"/><path class="cls-6" d="M113.88,299.18c-9.34,17.88,4,37.23,19.76,45.71,9.6,5.18,20.35,7.6,31,9.47,13.37,2.34,26.87,4,40.38,5.28,27.29,2.54,54.71,3.22,82.11,3.23,24.53,0,50.5,1.4,74.06-6.55,21.54-7.27,41.47-25.58,41.73-49.67,0-1.68-4.41-3.78-4.43-2-0.21,19.59-14.14,35.85-31,44.4-20.29,10.29-44.05,10.24-66.25,10.41-48.47.38-98.61,0.42-146.21-9.9-11.85-2.57-24.6-6.76-32.47-16.55-7-8.73-9.82-20.92-4.48-31.14,0.82-1.57-3.46-4.15-4.23-2.67h0Z"/><path class="cls-6" d="M119.64,302.71l196.09-.91c3,0,3.39-4.18.15-4.17l-196.09.91c-3,0-3.39,4.18-.15,4.17h0Z"/><path class="cls-6" d="M151.12,282l227.11,1.32c3.27,0,2.14-4-.75-4L150.37,278c-3.27,0-2.14,4,.75,4h0Z"/><path class="cls-2" d="M308.16,149.88V187c0,1.75,4.7.29,4.7-1.22V148.66c0-1.75-4.7-.29-4.7,1.22h0Z"/><path class="cls-2" d="M336.77,192.68l50-78.5c0.32-.5-4.15-0.95-4.83.12l-50,78.5c-0.32.5,4.15,0.95,4.83-.12h0Z"/><path class="cls-2" d="M394.34,175.82L473,136.14c1.9-1-1.47-4.59-3.1-3.77l-78.65,39.69c-1.9,1,1.47,4.59,3.1,3.77h0Z"/><path class="cls-2" d="M460.84,214.55l87.09-8.43c0.32,0-2.26-3.37-3.58-3.24l-87.09,8.43c-0.32,0,2.26,3.37,3.58,3.24h0Z"/></svg>