<svg version="1.1" xmlns="http://www.w3.org/2000/svg" id="twitter-light" viewBox="0 0 20 20">
            <title>twitter-variant</title>
            <path d="M13.9,8.26c0,0.08,0,.16,0,0.24A5.38,5.38,0,0,1,5.63,13l0.45,0a3.79,3.79,0,0,0,2.35-.81,1.89,1.89,0,0,1-1.77-1.31A2,2,0,0,0,7,11a1.9,1.9,0,0,0,.5-0.07A1.89,1.89,0,0,1,6,9.06V9a1.9,1.9,0,0,0,.86.24,1.9,1.9,0,0,1-.59-2.53,5.38,5.38,0,0,0,3.9,2,1.86,1.86,0,0,1,0-.43A1.89,1.89,0,0,1,13.39,7a3.8,3.8,0,0,0,1.2-.46,1.9,1.9,0,0,1-.83,1,3.8,3.8,0,0,0,1.09-.3A3.83,3.83,0,0,1,13.9,8.26Z"/>
        </svg>